<svg width="137" height="271" viewBox="0 0 137 271" fill="none" xmlns="http://www.w3.org/2000/svg">
<path d="M54.7097 31.4742L52.5348 34.3475C48.6751 38.4644 40.3126 39.8796 36.3182 38.979C32.3299 38.0784 21.3881 25.213 32.2012 12.5987C51.8915 11.5695 49.5757 25.8501 56.5231 34.8621C63.4704 43.874 72.997 41.84 72.997 41.84C81.1696 40.1369 96.1487 26.0952 84.9128 2C47.119 2.68003 53.9255 32.3074 53.9255 32.3074L58.3549 50.1904" fill="#B7ED58"/>
<path d="M54.7097 31.4742L52.5348 34.3475C48.6751 38.4644 40.3126 39.8796 36.3182 38.979C32.3299 38.0784 21.3881 25.213 32.2012 12.5987C51.8915 11.5695 49.5757 25.8501 56.5231 34.8621C63.4704 43.874 72.997 41.84 72.997 41.84C81.1696 40.1369 96.1487 26.0952 84.9128 2C47.119 2.68003 53.9255 32.3074 53.9255 32.3074L58.3549 50.1904" stroke="#231815" stroke-width="3" stroke-miterlimit="10" stroke-linejoin="round"/>
<path d="M72.8255 16.8872C67.2504 19.6993 61.8837 23.1791 57.583 27.7065C56.1433 29.1339 54.8261 30.6226 54.0235 32.6015C53.9929 32.6934 53.8459 32.675 53.8397 32.577C53.6314 25.8808 61.7918 21.8803 66.8583 19.1785C68.7882 18.2596 70.7425 17.4141 72.752 16.7218C72.85 16.6851 72.9296 16.8382 72.8255 16.8872Z" fill="#231815"/>
<path d="M42.9223 25.3171C44.0925 27.6207 45.9304 29.6301 48.3564 30.5307C50.274 31.0392 51.873 31.5232 53.9989 31.3394C54.0846 31.321 54.152 31.4313 54.0908 31.4987C52.5347 33.3734 49.5695 33.2631 47.658 32.001L46.8371 31.4742C44.7357 30.059 43.3328 27.7861 42.7508 25.3845C42.7263 25.2742 42.8733 25.2191 42.9223 25.3171Z" fill="#231815"/>
<path d="M44.5703 164.129C32.4155 182.76 12.4617 207.639 25.3885 219.42C38.3213 231.201 59.3655 172.02 59.3655 172.02" fill="white"/>
<path d="M44.5703 164.129C32.4155 182.76 12.4617 207.639 25.3885 219.42C38.3213 231.201 59.3655 172.02 59.3655 172.02" stroke="#231815" stroke-width="3" stroke-miterlimit="10"/>
<path d="M72.0718 243.828C72.0718 243.828 73.4073 268.346 67.8936 268.431C62.3798 268.523 44.166 270.092 41.5745 267.029C38.983 263.965 47.5477 255.97 47.5477 255.97L37.9844 233.584C37.9844 233.584 29.6219 222.361 30.6082 203.779C31.5149 186.736 52.7858 170.237 51.0888 160.778L102.061 155.779C101.411 178.343 101.699 260.063 97.5576 265.356C93.4162 270.649 74.9328 269.528 72.7885 268.309C70.6504 267.09 75.5699 257.435 75.5699 257.435L70.7056 237.334L63.5193 236.954" fill="white"/>
<path d="M72.0718 243.828C72.0718 243.828 73.4073 268.346 67.8936 268.431C62.3798 268.523 44.166 270.092 41.5745 267.029C38.983 263.965 47.5477 255.97 47.5477 255.97L37.9844 233.584C37.9844 233.584 29.6219 222.361 30.6082 203.779C31.5149 186.736 52.7858 170.237 51.0888 160.778L102.061 155.779C101.411 178.343 101.699 260.063 97.5576 265.356C93.4162 270.649 74.9328 269.528 72.7885 268.309C70.6504 267.09 75.5699 257.435 75.5699 257.435L70.7056 237.334L63.5193 236.954" stroke="#231815" stroke-width="3" stroke-miterlimit="10" stroke-linecap="round"/>
<path d="M99.849 164.54C105.442 176.419 133.465 206.879 119.386 216.823C105.308 226.76 93.4591 208.338 89.5015 187.33" fill="white"/>
<path d="M99.849 164.54C105.442 176.419 133.465 206.879 119.386 216.823C105.308 226.76 93.4591 208.338 89.5015 187.33" stroke="#231815" stroke-width="3" stroke-miterlimit="10" stroke-linecap="round"/>
<path d="M10.1277 104.691C9.04944 127.23 -11.1861 143.171 16.5666 167.119C44.3192 191.067 95.3216 182.674 123.479 150.97C145.007 126.734 139.946 50.1965 77.3405 45.8774C14.7348 41.5582 11.1753 82.6848 10.1277 104.691Z" fill="white" stroke="#231815" stroke-width="3" stroke-miterlimit="10"/>
<path d="M29.138 132.517C28.4457 135.139 29.1013 140.751 38.4441 135.249C46.7943 139.709 50.4763 136.034 49.4042 133.338" fill="white"/>
<path d="M29.138 132.517C28.4457 135.139 29.1013 140.751 38.4441 135.249C46.7943 139.709 50.4763 136.034 49.4042 133.338" stroke="#231815" stroke-width="3" stroke-miterlimit="10" stroke-linecap="round"/>
<path d="M22.742 118.622C25.4624 118.622 27.6677 117.64 27.6677 116.429C27.6677 115.218 25.4624 114.236 22.742 114.236C20.0217 114.236 17.8164 115.218 17.8164 116.429C17.8164 117.64 20.0217 118.622 22.742 118.622Z" fill="#FFAEE0"/>
<path d="M58.7714 118.267C61.4918 118.267 63.6971 117.285 63.6971 116.074C63.6971 114.863 61.4918 113.881 58.7714 113.881C56.0511 113.881 53.8458 114.863 53.8458 116.074C53.8458 117.285 56.0511 118.267 58.7714 118.267Z" fill="#FFAEE0"/>
<path d="M26.4422 115.81C27.7889 115.81 28.8805 114.719 28.8805 113.372C28.8805 112.025 27.7889 110.934 26.4422 110.934C25.0956 110.934 24.0039 112.025 24.0039 113.372C24.0039 114.719 25.0956 115.81 26.4422 115.81Z" fill="#231815"/>
<path d="M55.1016 115.185C56.4483 115.185 57.54 114.094 57.54 112.747C57.54 111.401 56.4483 110.309 55.1016 110.309C53.755 110.309 52.6633 111.401 52.6633 112.747C52.6633 114.094 53.755 115.185 55.1016 115.185Z" fill="#231815"/>
</svg>
