<svg width="137" height="246" viewBox="0 0 137 246" fill="none" xmlns="http://www.w3.org/2000/svg">
<path d="M36.8086 33.3074C18.0617 34.5644 24.4968 15.223 34.113 17.5329C37.9613 9.45053 41.5601 8.29785 45.1497 10.222C49.892 0.601218 64.8996 -0.937203 67.5907 7.52637C72.2105 3.29232 81.4455 5.60223 81.4455 9.83629C86.0653 9.06481 94.1431 17.1472 87.218 20.6098C80.2928 24.0723 36.8086 33.3074 36.8086 33.3074Z" fill="#30B72C" stroke="#231815" stroke-width="3" stroke-miterlimit="10"/>
<path d="M15.8517 64.4071C2.38259 59.7873 6.23091 45.5512 10.8507 45.5512C10.8507 40.9314 13.9275 39.393 15.8517 41.3172C15.466 35.9304 22.0099 37.0831 22.0099 37.0831C21.2384 33.2348 29.3208 30.1579 31.245 32.849C33.9406 24.3855 42.0185 16.6888 49.7151 21.3041C53.9492 7.44922 73.0591 8.35686 77.0345 15.5316C85.4981 12.836 90.8894 17.4558 91.2706 23.9952C101.277 19.3754 110.666 21.6808 109.627 29.5725C116.285 32.0776 117.052 44.0037 116.285 46.6993C125.52 45.9279 135.526 60.9354 125.134 73.633C114.746 86.3397 15.8517 64.4071 15.8517 64.4071Z" fill="#30B72C" stroke="#231815" stroke-width="3" stroke-miterlimit="10"/>
<path d="M23.5483 116.355C5.07816 112.507 2.76826 98.8105 10.4649 95.2708C8.54074 91.3453 8.54074 84.6607 11.6176 82.2282C1.22984 81.3388 0.844103 76.3332 3.154 73.6421C5.07816 69.4081 7.64673 64.3844 11.0549 65.8184C14.286 60.4362 21.6423 55.5896 33.8452 56.6651C33.8452 52.3584 38.8689 45.3606 45.1497 46.4362C44.4327 43.3866 47.8408 40.337 49.6379 41.231C48.9209 36.3843 56.8172 31.5421 63.2749 36.9243C68.6571 34.9502 76.3764 39.2569 77.992 44.0128C81.4001 38.8984 92.5276 39.6154 93.7846 44.0128C103.655 42.488 111.846 42.1567 113.167 59.7147C122.679 60.7902 124.812 66.0817 126.618 71.6045C131.292 70.4836 131.115 75.4574 131.115 75.4574C134.523 76.0473 139.37 91.8354 127.167 92.017C122.502 94.5311 125.011 96.6821 125.193 97.2222C133.089 99.3778 129.323 113.373 121.063 112.116C127.162 119.473 119.806 132.756 104.731 129.166C89.6595 125.576 23.5483 116.355 23.5483 116.355Z" fill="#30B72C" stroke="#231815" stroke-width="3" stroke-miterlimit="10"/>
<path d="M48.1449 61.8975L45.5219 98.688H82.2261L75.9726 67.2298L48.1449 61.8975Z" fill="black"/>
<path d="M44.2921 166.542C35.2885 180.342 20.5033 198.771 30.0833 207.498C39.6632 216.225 55.2562 172.387 55.2562 172.387" fill="white"/>
<path d="M44.2921 166.542C35.2885 180.342 20.5033 198.771 30.0833 207.498C39.6632 216.225 55.2562 172.387 55.2562 172.387" stroke="#231815" stroke-width="3" stroke-miterlimit="10"/>
<path d="M64.6637 225.578C64.6637 225.578 65.653 243.74 61.5687 243.803C57.4844 243.871 43.9926 245.033 42.073 242.764C40.1534 240.495 46.4977 234.573 46.4977 234.573L39.4137 217.99C39.4137 217.99 33.2192 209.677 33.9498 195.912C34.6214 183.287 50.3778 171.066 49.1207 164.059L86.8778 160.356C86.3967 177.07 86.61 237.604 83.5423 241.525C80.4745 245.446 66.783 244.615 65.1947 243.712C63.6109 242.809 67.255 235.657 67.255 235.657L63.6517 220.768L58.3285 220.486" fill="white"/>
<path d="M64.6637 225.578C64.6637 225.578 65.653 243.74 61.5687 243.803C57.4844 243.871 43.9926 245.033 42.073 242.764C40.1534 240.495 46.4977 234.573 46.4977 234.573L39.4137 217.99C39.4137 217.99 33.2192 209.677 33.9498 195.912C34.6214 183.287 50.3778 171.066 49.1207 164.059L86.8778 160.356C86.3967 177.07 86.61 237.604 83.5423 241.525C80.4745 245.446 66.783 244.615 65.1947 243.712C63.6109 242.809 67.255 235.657 67.255 235.657L63.6517 220.768L58.3285 220.486" stroke="#231815" stroke-width="3" stroke-miterlimit="10" stroke-linecap="round"/>
<path d="M85.2395 166.841C89.3828 175.641 110.14 198.204 99.7115 205.57C89.2829 212.93 80.5062 199.284 77.5746 183.723" fill="white"/>
<path d="M85.2395 166.841C89.3828 175.641 110.14 198.204 99.7115 205.57C89.2829 212.93 80.5062 199.284 77.5746 183.723" stroke="#231815" stroke-width="3" stroke-miterlimit="10" stroke-linecap="round"/>
<path d="M19.6819 122.513C18.8832 139.209 3.89384 151.017 24.4515 168.756C45.0091 186.496 82.7889 180.279 103.646 156.794C119.593 138.841 115.844 82.1465 69.4695 78.9471C23.1037 75.7478 20.4625 106.212 19.6819 122.513Z" fill="white" stroke="#231815" stroke-width="3" stroke-miterlimit="10"/>
<path d="M32.4021 145.39C31.8893 147.332 32.3749 151.489 39.2955 147.414C45.481 150.717 48.2084 147.995 47.4142 145.998" fill="white"/>
<path d="M32.4021 145.39C31.8893 147.332 32.3749 151.489 39.2955 147.414C45.481 150.717 48.2084 147.995 47.4142 145.998" stroke="#231815" stroke-width="3" stroke-miterlimit="10" stroke-linecap="round"/>
<path d="M27.6644 135.097C29.6795 135.097 31.313 134.37 31.313 133.473C31.313 132.575 29.6795 131.848 27.6644 131.848C25.6493 131.848 24.0157 132.575 24.0157 133.473C24.0157 134.37 25.6493 135.097 27.6644 135.097Z" fill="#FFAEE0"/>
<path d="M54.353 134.834C56.3681 134.834 58.0016 134.107 58.0016 133.209C58.0016 132.312 56.3681 131.585 54.353 131.585C52.3379 131.585 50.7043 132.312 50.7043 133.209C50.7043 134.107 52.3379 134.834 54.353 134.834Z" fill="#FFAEE0"/>
<path d="M30.4099 133.019C31.4074 133.019 32.2161 132.21 32.2161 131.213C32.2161 130.215 31.4074 129.406 30.4099 129.406C29.4124 129.406 28.6038 130.215 28.6038 131.213C28.6038 132.21 29.4124 133.019 30.4099 133.019Z" fill="#231815"/>
<path d="M51.6347 132.556C52.6322 132.556 53.4408 131.747 53.4408 130.75C53.4408 129.752 52.6322 128.944 51.6347 128.944C50.6371 128.944 49.8285 129.752 49.8285 130.75C49.8285 131.747 50.6371 132.556 51.6347 132.556Z" fill="#231815"/>
<path d="M23.2579 93.814C24.1565 95.6066 28.8217 94.3541 28.8217 92.38C40.4846 97.0452 42.6402 90.2244 41.7417 83.2266C48.5624 83.4081 46.4068 77.5994 46.4068 77.5994C48.921 77.6629 49.0979 74.4318 49.0979 74.4318C51.072 73.7147 61.1557 69.0496 68.4984 71.0236C67.4047 75.6888 76.735 78.4299 79.7846 77.5994C74.5794 81.6111 79.7846 83.7667 79.7846 83.7667C76.018 85.7407 82.4757 97.7622 89.2965 96.5097C85.7069 100.998 92.5277 106.38 101.318 101.533C99.3439 106.38 107.599 103.444 107.599 103.444L117.855 70.5471L33.8499 59.3879L23.2579 93.814Z" fill="#30B72C"/>
<path d="M23.2579 93.814C24.1565 95.6066 28.8217 94.3541 28.8217 92.38C40.4846 97.0452 42.6402 90.2244 41.7417 83.2266C48.5624 83.4081 46.4068 77.5994 46.4068 77.5994C48.921 77.6629 49.0979 74.4318 49.0979 74.4318C51.072 73.7147 61.1557 69.0495 68.4984 71.0236C67.4047 75.6888 76.735 78.4298 79.7846 77.5994C74.5794 81.6111 79.7846 83.7666 79.7846 83.7666C76.018 85.7407 82.4757 97.7622 89.2965 96.5097C85.7069 100.998 92.5277 106.38 101.318 101.533C99.3439 106.38 107.599 103.444 107.599 103.444" stroke="#231815" stroke-width="3" stroke-miterlimit="10"/>
</svg>
