<svg width="22" height="23" viewBox="0 0 22 23" fill="none" xmlns="http://www.w3.org/2000/svg">
<mask id="mask0_88_1411" style="mask-type:alpha" maskUnits="userSpaceOnUse" x="0" y="0" width="22" height="23">
<rect y="0.5" width="22" height="22" fill="#D9D9D9"/>
</mask>
<g mask="url(#mask0_88_1411)">
<path d="M13.2688 11.5L6.53125 4.7625C6.30209 4.53333 6.19132 4.26215 6.19896 3.94896C6.2066 3.63576 6.325 3.36458 6.55417 3.13542C6.78334 2.90625 7.05452 2.79167 7.36771 2.79167C7.68091 2.79167 7.95209 2.90625 8.18125 3.13542L15.2167 10.1937C15.4 10.3771 15.5375 10.5833 15.6292 10.8125C15.7208 11.0417 15.7667 11.2708 15.7667 11.5C15.7667 11.7292 15.7208 11.9583 15.6292 12.1875C15.5375 12.4167 15.4 12.6229 15.2167 12.8062L8.15834 19.8646C7.92917 20.0937 7.66181 20.2045 7.35625 20.1969C7.0507 20.1892 6.78334 20.0708 6.55417 19.8417C6.325 19.6125 6.21042 19.3413 6.21042 19.0281C6.21042 18.7149 6.325 18.4438 6.55417 18.2146L13.2688 11.5Z" fill="#B5B7B6"/>
</g>
</svg>
