<svg width="22" height="23" viewBox="0 0 22 23" fill="none" xmlns="http://www.w3.org/2000/svg">
<mask id="mask0_88_1662" style="mask-type:alpha" maskUnits="userSpaceOnUse" x="0" y="0" width="22" height="23">
<rect y="0.320618" width="22" height="22" fill="#D9D9D9"/>
</mask>
<g mask="url(#mask0_88_1662)">
<path d="M6.41667 19.5706C5.91251 19.5706 5.48091 19.3911 5.12188 19.0321C4.76285 18.673 4.58334 18.2415 4.58334 17.7373V5.82062H3.66667V3.98728H8.25001V3.07062H13.75V3.98728H18.3333V5.82062H17.4167V17.7373C17.4167 18.2415 17.2372 18.673 16.8781 19.0321C16.5191 19.3911 16.0875 19.5706 15.5833 19.5706H6.41667ZM15.5833 5.82062H6.41667V17.7373H15.5833V5.82062ZM8.25001 15.904H10.0833V7.65395H8.25001V15.904ZM11.9167 15.904H13.75V7.65395H11.9167V15.904Z" fill="#353938"/>
</g>
</svg>
