<svg width="124" height="266" viewBox="0 0 124 266" fill="none" xmlns="http://www.w3.org/2000/svg">
<path d="M55.1845 70.242C40.0886 72.6764 36.7942 73.6446 32.151 68.2226C27.5079 62.8006 28.6687 41.8759 28.6687 41.8759C28.6687 41.8759 40.2821 41.295 44.9253 47.6908C49.5684 54.0866 56.1518 66.679 56.1518 66.679C56.1518 66.679 52.2825 42.4624 86.1556 33.3556C102.805 58.1531 90.7987 73.8493 82.8666 75.0112C74.929 76.162 55.1845 70.242 55.1845 70.242Z" fill="#98D845" stroke="#231815" stroke-width="3" stroke-miterlimit="10" stroke-linejoin="round"/>
<path d="M73.304 53.2512C68.2739 55.7907 63.4317 58.9332 59.5513 63.0219C58.2523 64.311 57.0639 65.6554 56.3398 67.4425C56.3122 67.5255 56.1795 67.5089 56.1739 67.4204C55.986 61.3731 63.3487 57.7603 67.9201 55.3204C69.6613 54.4905 71.4246 53.727 73.2376 53.1018C73.3261 53.0686 73.3979 53.2069 73.304 53.2512Z" fill="#231815"/>
<path d="M58.07 23.0149C53.9409 32.6252 53.7861 48.5483 55.6379 58.8059C56.1464 61.2126 56.5278 63.8959 57.7937 65.943C57.9484 66.1477 58.0976 66.3469 58.2137 66.607C58.6615 67.4645 58.2193 68.6375 57.2575 68.9141C56.4836 69.1631 55.6987 68.9971 54.9912 68.82C51.4038 67.7135 47.4958 65.2238 46.5671 61.3952C46.5395 61.2402 46.7551 61.1683 46.8269 61.3011C48.6344 64.2832 52.2274 65.8268 55.4886 66.4742C55.8148 66.5184 56.1575 66.5516 56.4283 66.5074C56.4449 66.5018 56.4339 66.4963 56.3952 66.5074C56.1022 66.5572 55.754 67.0994 55.7982 67.4147C55.8092 67.6194 55.8369 67.6748 55.8535 67.719C55.8811 67.7799 55.8314 67.7135 55.8203 67.7024C52.5369 63.5695 52.6806 56.7698 52.4982 51.7462C52.4651 44.3324 53.0952 36.8909 55.0907 29.7371C55.765 27.3636 56.6052 25.0233 57.8213 22.8766C57.86 22.8102 57.9429 22.7881 58.0092 22.8268C58.0755 22.8711 58.0977 22.954 58.07 23.0149Z" fill="black"/>
<path d="M54.958 23.2584C43.7757 28.0885 39.4863 37.5272 43.936 41.6989C48.3857 45.8705 63.2936 40.8192 54.958 23.2584Z" fill="#F978B9" stroke="black" stroke-width="3" stroke-miterlimit="10" stroke-linecap="round" stroke-linejoin="round"/>
<path d="M55.334 23.0149C53.9852 33.7372 59.2585 41.2617 64.4434 39.7402C69.6283 38.2187 72.4861 24.5474 55.334 23.0149Z" fill="#F978B9" stroke="black" stroke-width="3" stroke-miterlimit="10" stroke-linecap="round" stroke-linejoin="round"/>
<path d="M54.0459 23.0758C47.4239 14.5388 38.3808 12.951 35.7883 17.6925C33.1959 22.434 40.835 34.1301 54.0459 23.0758Z" fill="#F978B9" stroke="black" stroke-width="3" stroke-miterlimit="10" stroke-linecap="round" stroke-linejoin="round"/>
<path d="M55.1183 22.86C65.6926 28.199 75.399 25.5101 75.7362 19.5902C76.0734 13.6702 63.0062 5.68651 55.1183 22.86Z" fill="#F978B9" stroke="black" stroke-width="3" stroke-miterlimit="10" stroke-linecap="round" stroke-linejoin="round"/>
<path d="M55.179 22.9541C63.3599 14.3839 63.6141 4.30338 58.0534 2.26182C52.4926 0.22026 41.0616 10.4004 55.179 22.9541Z" fill="#F978B9" stroke="black" stroke-width="3" stroke-miterlimit="10" stroke-linecap="round" stroke-linejoin="round"/>
<path d="M40.4093 169.006C29.4426 185.831 11.4392 208.299 23.1024 218.938C34.7712 229.578 53.7584 176.132 53.7584 176.132" fill="white"/>
<path d="M40.4093 169.006C29.4426 185.831 11.4392 208.299 23.1024 218.938C34.7712 229.578 53.7584 176.132 53.7584 176.132" stroke="#231815" stroke-width="3" stroke-miterlimit="10"/>
<path d="M57.5117 234.768L63.9955 235.111L68.3844 253.263C68.3844 253.263 63.9402 261.988 65.8749 263.084C67.804 264.185 84.4863 265.192 88.2229 260.417C91.9596 255.637 91.6943 181.836 92.2857 161.459L46.2962 165.974C47.8328 174.517 28.641 189.416 27.8174 204.808C26.922 221.589 34.4727 231.725 34.4727 231.725L43.1012 251.941C43.1012 251.941 35.3681 259.161 37.7118 261.928C40.05 264.694 56.478 263.278 61.4584 263.195C66.4332 263.112 65.2282 240.975 65.2282 240.975L63.6528 235.354" fill="white"/>
<path d="M57.5117 234.768L63.9955 235.111L68.3844 253.263C68.3844 253.263 63.9402 261.988 65.8749 263.084C67.804 264.185 84.4863 265.192 88.2229 260.417C91.9596 255.637 91.6943 181.836 92.2857 161.459L46.2962 165.974C47.8328 174.517 28.641 189.416 27.8174 204.808C26.922 221.589 34.4727 231.725 34.4727 231.725L43.1012 251.941C43.1012 251.941 35.3681 259.161 37.7118 261.928C40.05 264.694 56.478 263.278 61.4584 263.195C66.4332 263.112 65.2282 240.975 65.2282 240.975L63.6528 235.354" stroke="#231815" stroke-width="3" stroke-miterlimit="10" stroke-linecap="round"/>
<path d="M90.2848 169.371C95.3315 180.099 120.615 207.607 107.912 216.587C95.2099 225.561 84.5196 208.924 80.9487 189.953" fill="white"/>
<path d="M90.2848 169.371C95.3315 180.099 120.615 207.607 107.912 216.587C95.2099 225.561 84.5196 208.924 80.9487 189.953" stroke="#231815" stroke-width="3" stroke-miterlimit="10" stroke-linecap="round"/>
<path d="M9.33326 115.328C8.36041 135.683 -9.89723 150.079 15.1427 171.706C40.1827 193.333 86.1999 185.753 111.605 157.122C131.029 135.234 126.463 66.1146 69.9764 62.2141C13.4955 58.3135 10.2785 95.4545 9.33326 115.328Z" fill="white" stroke="#231815" stroke-width="3" stroke-miterlimit="10"/>
<path d="M26.4798 140.452C25.8552 142.82 26.4466 147.888 34.8762 142.919C42.4103 146.947 45.7324 143.627 44.7651 141.193" fill="white"/>
<path d="M26.4798 140.452C25.8552 142.82 26.4466 147.888 34.8762 142.919C42.4103 146.947 45.7324 143.627 44.7651 141.193" stroke="#231815" stroke-width="3" stroke-miterlimit="10" stroke-linecap="round"/>
<path d="M20.7146 127.904C23.169 127.904 25.1587 127.017 25.1587 125.923C25.1587 124.829 23.169 123.942 20.7146 123.942C18.2601 123.942 16.2704 124.829 16.2704 125.923C16.2704 127.017 18.2601 127.904 20.7146 127.904Z" fill="#FFAEE0"/>
<path d="M53.2169 127.583C55.6713 127.583 57.661 126.696 57.661 125.602C57.661 124.508 55.6713 123.621 53.2169 123.621C50.7624 123.621 48.7727 124.508 48.7727 125.602C48.7727 126.696 50.7624 127.583 53.2169 127.583Z" fill="#FFAEE0"/>
<path d="M24.0531 125.37C25.2681 125.37 26.2531 124.384 26.2531 123.168C26.2531 121.951 25.2681 120.966 24.0531 120.966C22.8381 120.966 21.8531 121.951 21.8531 123.168C21.8531 124.384 22.8381 125.37 24.0531 125.37Z" fill="#231815"/>
<path d="M49.9113 124.805C51.1263 124.805 52.1113 123.82 52.1113 122.603C52.1113 121.387 51.1263 120.401 49.9113 120.401C48.6963 120.401 47.7113 121.387 47.7113 122.603C47.7113 123.82 48.6963 124.805 49.9113 124.805Z" fill="#231815"/>
<path d="M8.32579 115.295C7.35393 135.61 -10.8851 149.978 14.1293 171.563C39.1493 193.149 85.114 185.584 110.493 157.008C129.897 135.163 125.336 66.177 68.9071 62.2841C12.4783 58.3911 9.27005 95.46 8.32579 115.295Z" fill="white" stroke="#231815" stroke-width="1.65659" stroke-miterlimit="10"/>
<path d="M27.6305 135.98C27.6305 135.98 36.311 132.551 51.8443 132.324C53.1033 142.877 47.4985 148.99 40.4248 149.57C34.0028 150.1 28.0833 146.715 27.6305 135.98Z" fill="#231815"/>
<path d="M40.1819 139.42L35.7091 140.381C34.2347 140.696 32.7769 139.751 32.4567 138.283L32.1695 136.935C31.8548 135.461 32.799 134.003 34.2679 133.683L38.7406 132.722C40.215 132.407 41.6728 133.352 41.9931 134.82L42.2802 136.168C42.595 137.642 41.6507 139.105 40.1819 139.42Z" fill="white"/>
<path d="M22.4302 127.301C25.3305 126.785 27.3961 124.762 27.0438 122.783C26.6915 120.805 24.0547 119.62 21.1543 120.136C18.254 120.652 16.1884 122.675 16.5407 124.654C16.893 126.632 19.5298 127.818 22.4302 127.301Z" fill="#FFAEE0"/>
<path d="M59.4203 123.71C62.9122 123.71 65.7429 121.703 65.7429 119.226C65.7429 116.75 62.9122 114.743 59.4203 114.743C55.9284 114.743 53.0977 116.75 53.0977 119.226C53.0977 121.703 55.9284 123.71 59.4203 123.71Z" fill="#FFAEE0"/>
<path d="M21.6503 119.607C22.3902 116.46 26.4599 114.533 27.625 118.188" stroke="#231815" stroke-width="1.65659" stroke-miterlimit="10" stroke-linecap="round"/>
<path d="M50.2429 116.697C52.1866 111.976 55.8422 114.373 55.9526 117.228" stroke="#231815" stroke-width="1.65659" stroke-miterlimit="10" stroke-linecap="round"/>
<path d="M27.6305 135.98C27.6305 135.98 36.311 132.551 51.8443 132.324C53.1033 142.877 47.4985 148.99 40.4248 149.57C34.0028 150.1 28.0833 146.715 27.6305 135.98Z" stroke="#231815" stroke-width="1.65659" stroke-miterlimit="10" stroke-linecap="round"/>
</svg>
