<svg width="137" height="297" viewBox="0 0 137 297" fill="none" xmlns="http://www.w3.org/2000/svg">
<path d="M57.1417 77.5665C40.4104 80.2621 36.7591 81.3342 31.6129 75.3303C26.4667 69.3264 27.7533 46.1564 27.7533 46.1564C27.7533 46.1564 40.6249 45.5131 45.7711 52.5952C50.9172 59.6773 58.2138 73.6211 58.2138 73.6211C58.2138 73.6211 53.9253 46.8058 91.468 36.7217C109.921 64.1803 96.6141 81.5609 87.8227 82.8474C79.0314 84.134 57.1417 77.5665 57.1417 77.5665Z" fill="#98D845" stroke="#231815" stroke-width="3" stroke-miterlimit="10" stroke-linejoin="round"/>
<path d="M77.2241 58.7523C71.6491 61.5643 66.2824 65.0441 61.9816 69.5715C60.5419 70.999 59.2248 72.4877 58.4222 74.4665C58.3916 74.5584 58.2445 74.54 58.2384 74.442C58.0301 67.7458 66.1905 63.7453 71.257 61.0435C73.1868 60.1246 75.1412 59.2791 77.1506 58.5868C77.2487 58.5501 77.3283 58.7032 77.2241 58.7523Z" fill="#231815"/>
<path d="M60.3396 25.2776C55.7632 35.9191 55.5917 53.5509 57.644 64.9093C58.2076 67.5743 58.6304 70.5456 60.0333 72.8124C60.2049 73.039 60.3703 73.2596 60.4989 73.5475C60.9952 74.4971 60.505 75.7959 59.439 76.1023C58.5813 76.3779 57.7114 76.1941 56.9272 75.9981C52.9512 74.7728 48.6198 72.0159 47.5906 67.7765C47.56 67.6049 47.7989 67.5253 47.8785 67.6723C49.8818 70.9744 53.864 72.6837 57.4786 73.4005C57.8401 73.4495 58.2199 73.4863 58.5201 73.4373C58.5385 73.4311 58.5262 73.425 58.4833 73.4373C58.1586 73.4924 57.7727 74.0928 57.8217 74.442C57.834 74.6687 57.8646 74.7299 57.8829 74.779C57.9136 74.8463 57.8584 74.7728 57.8462 74.7606C54.2071 70.1841 54.3664 62.6548 54.1642 57.092C54.1275 48.8826 54.8259 40.6426 57.0375 32.7211C57.7849 30.0929 58.7161 27.5014 60.0639 25.1244C60.1068 25.0509 60.1987 25.0264 60.2723 25.0693C60.3458 25.1183 60.3703 25.204 60.3396 25.2776Z" fill="#231815"/>
<path d="M56.8905 25.541C44.4967 30.8893 39.7426 41.341 44.6744 45.9603C49.6 50.5735 66.1291 44.9862 56.8905 25.541Z" fill="#F978B9" stroke="#231815" stroke-width="3" stroke-miterlimit="10" stroke-linecap="round" stroke-linejoin="round"/>
<path d="M57.3071 25.2714C55.8122 37.1444 61.6568 45.4763 67.4034 43.7916C73.15 42.1068 76.3173 26.9684 57.3071 25.2714Z" fill="#F978B9" stroke="#231815" stroke-width="3" stroke-miterlimit="10" stroke-linecap="round" stroke-linejoin="round"/>
<path d="M55.8797 25.3388C48.5402 15.8857 38.5174 14.1274 35.6442 19.3778C32.7709 24.6281 41.2376 37.5793 55.8797 25.3388Z" fill="#F978B9" stroke="#231815" stroke-width="3" stroke-miterlimit="10" stroke-linecap="round" stroke-linejoin="round"/>
<path d="M57.0742 25.0999C68.794 31.0119 79.552 28.0344 79.9257 21.4792C80.2933 14.9239 65.8166 6.08352 57.0742 25.0999Z" fill="#F978B9" stroke="#231815" stroke-width="3" stroke-miterlimit="10" stroke-linecap="round" stroke-linejoin="round"/>
<path d="M57.1417 25.204C66.2088 15.7142 66.4906 4.55189 60.3275 2.29125C54.1643 0.0244745 41.4949 11.3032 57.1417 25.204Z" fill="#F978B9" stroke="#231815" stroke-width="3" stroke-miterlimit="10" stroke-linecap="round" stroke-linejoin="round"/>
<path d="M44.5704 189.3C32.4156 207.93 12.4619 232.81 25.3886 244.591C38.3214 256.372 59.3656 197.191 59.3656 197.191" fill="white"/>
<path d="M44.5704 189.3C32.4156 207.93 12.4619 232.81 25.3886 244.591C38.3214 256.372 59.3656 197.191 59.3656 197.191" stroke="#231815" stroke-width="3" stroke-miterlimit="10"/>
<path d="M72.0719 268.998C72.0719 268.998 73.4074 293.516 67.8937 293.602C62.3799 293.694 44.1661 295.262 41.5746 292.199C38.9831 289.136 47.5478 281.141 47.5478 281.141L37.9907 258.761C37.9907 258.761 29.6281 247.538 30.6144 228.956C31.5211 211.913 52.792 195.414 51.095 185.955L102.067 180.956C101.417 203.519 101.705 285.24 97.5639 290.533C93.4224 295.826 74.939 294.705 72.7948 293.486C70.6505 292.267 75.5762 282.611 75.5762 282.611L70.7118 262.511L63.5255 262.131" fill="white"/>
<path d="M72.0719 268.998C72.0719 268.998 73.4074 293.516 67.8937 293.602C62.3799 293.694 44.1661 295.262 41.5746 292.199C38.9831 289.136 47.5478 281.141 47.5478 281.141L37.9907 258.761C37.9907 258.761 29.6281 247.538 30.6144 228.956C31.5211 211.913 52.792 195.414 51.095 185.955L102.067 180.956C101.417 203.519 101.705 285.24 97.5639 290.533C93.4224 295.826 74.939 294.705 72.7948 293.486C70.6505 292.267 75.5762 282.611 75.5762 282.611L70.7118 262.511L63.5255 262.131" stroke="#231815" stroke-width="3" stroke-miterlimit="10" stroke-linecap="round"/>
<path d="M99.849 189.71C105.442 201.59 133.465 232.05 119.386 241.993C105.308 251.93 93.4591 233.508 89.5015 212.501" fill="white"/>
<path d="M99.849 189.71C105.442 201.59 133.465 232.05 119.386 241.993C105.308 251.93 93.4591 233.508 89.5015 212.501" stroke="#231815" stroke-width="3" stroke-miterlimit="10" stroke-linecap="round"/>
<path d="M10.1277 129.861C9.04945 152.401 -11.1861 168.341 16.5665 192.29C44.3192 216.238 95.3216 207.845 123.479 176.14C145.007 151.904 139.946 75.3671 77.3405 71.048C14.7348 66.7288 11.1753 107.855 10.1277 129.861Z" fill="white" stroke="#231815" stroke-width="3" stroke-miterlimit="10"/>
<path d="M29.1379 157.688C28.4456 160.31 29.1012 165.922 38.4439 160.42C46.7942 164.88 50.4762 161.204 49.4041 158.509" fill="white"/>
<path d="M29.1379 157.688C28.4456 160.31 29.1012 165.922 38.4439 160.42C46.7942 164.88 50.4762 161.204 49.4041 158.509" stroke="#231815" stroke-width="3" stroke-miterlimit="10" stroke-linecap="round"/>
<path d="M22.7419 143.793C25.4623 143.793 27.6675 142.811 27.6675 141.6C27.6675 140.388 25.4623 139.406 22.7419 139.406C20.0216 139.406 17.8163 140.388 17.8163 141.6C17.8163 142.811 20.0216 143.793 22.7419 143.793Z" fill="#FFAEE0"/>
<path d="M58.7714 143.438C61.4918 143.438 63.6971 142.456 63.6971 141.244C63.6971 140.033 61.4918 139.051 58.7714 139.051C56.0511 139.051 53.8458 140.033 53.8458 141.244C53.8458 142.456 56.0511 143.438 58.7714 143.438Z" fill="#FFAEE0"/>
<path d="M26.4422 140.987C27.7888 140.987 28.8805 139.895 28.8805 138.549C28.8805 137.202 27.7888 136.11 26.4422 136.11C25.0956 136.11 24.0039 137.202 24.0039 138.549C24.0039 139.895 25.0956 140.987 26.4422 140.987Z" fill="#231815"/>
<path d="M55.1017 140.362C56.4483 140.362 57.54 139.271 57.54 137.924C57.54 136.577 56.4483 135.486 55.1017 135.486C53.755 135.486 52.6633 136.577 52.6633 137.924C52.6633 139.271 53.755 140.362 55.1017 140.362Z" fill="#231815"/>
</svg>
