<svg width="137" height="246" viewBox="0 0 137 246" fill="none" xmlns="http://www.w3.org/2000/svg">
<path d="M36.8087 33.3074C18.0617 34.5644 24.4968 15.223 34.113 17.5329C37.9613 9.45053 41.5601 8.29785 45.1497 10.222C49.892 0.601218 64.8996 -0.937203 67.5907 7.52637C72.2104 3.29232 81.4455 5.60223 81.4455 9.83629C86.0653 9.06481 94.1431 17.1472 87.218 20.6098C80.2883 24.0723 36.8087 33.3074 36.8087 33.3074Z" fill="#30B72C" stroke="#231815" stroke-width="3" stroke-miterlimit="10"/>
<path d="M15.8516 64.4071C2.38247 59.7873 6.23079 45.5512 10.8506 45.5512C10.8506 40.9314 13.9274 39.393 15.8516 41.3172C15.4658 35.9304 22.0098 37.0831 22.0098 37.0831C21.2383 33.2348 29.3207 30.1579 31.2449 32.849C33.9405 24.3855 42.0183 16.6888 49.715 21.3041C53.949 7.44922 73.059 8.35686 77.0344 15.5316C85.498 12.836 90.8893 17.4558 91.2705 23.9952C101.277 19.3754 110.666 21.6808 109.627 29.5725C116.285 32.0776 117.051 44.0037 116.285 46.6993C125.52 45.9279 135.526 60.9354 125.134 73.633C114.742 86.3397 15.8516 64.4071 15.8516 64.4071Z" fill="#30B72C" stroke="#231815" stroke-width="3" stroke-miterlimit="10"/>
<path d="M31.3129 58.4122C33.8669 58.4122 35.9373 56.3419 35.9373 53.7879C35.9373 51.234 33.8669 49.1636 31.3129 49.1636C28.759 49.1636 26.6886 51.234 26.6886 53.7879C26.6886 56.3419 28.759 58.4122 31.3129 58.4122Z" fill="#D33333" stroke="#231815" stroke-width="3" stroke-miterlimit="10"/>
<path d="M78.9495 29.9583C81.5035 29.9583 83.5739 27.8879 83.5739 25.334C83.5739 22.78 81.5035 20.7096 78.9495 20.7096C76.3956 20.7096 74.3252 22.78 74.3252 25.334C74.3252 27.8879 76.3956 29.9583 78.9495 29.9583Z" fill="#D33333" stroke="#231815" stroke-width="3" stroke-miterlimit="10"/>
<path d="M43.7474 17.5193C45.5043 17.5193 46.9286 16.095 46.9286 14.3381C46.9286 12.5812 45.5043 11.1569 43.7474 11.1569C41.9904 11.1569 40.5662 12.5812 40.5662 14.3381C40.5662 16.095 41.9904 17.5193 43.7474 17.5193Z" fill="#D33333" stroke="#231815" stroke-width="3" stroke-miterlimit="10"/>
<path d="M23.5483 116.355C5.07816 112.507 2.76826 98.8105 10.4649 95.2708C8.54073 91.3453 8.54074 84.6607 11.6176 82.2282C1.22984 81.3388 0.844104 76.3332 3.154 73.6421C5.07816 69.4081 7.64673 64.3844 11.0549 65.8184C14.286 60.4362 21.6423 55.5896 33.8453 56.6651C33.8453 52.3584 38.8689 45.3606 45.1497 46.4362C44.4327 43.3866 47.8408 40.337 49.6379 41.231C48.9209 36.3843 56.8172 31.5421 63.2749 36.9243C68.6571 34.9502 76.3764 39.2569 77.992 44.0128C81.4001 38.8984 92.5276 39.6154 93.7846 44.0128C103.655 42.488 111.846 42.1567 113.167 59.7147C122.679 60.7902 124.812 66.0817 126.618 71.6045C131.292 70.4836 131.115 75.4574 131.115 75.4574C134.523 76.0473 139.37 91.8354 127.167 92.017C122.502 94.5311 125.011 96.6821 125.193 97.2222C133.089 99.3778 129.323 113.373 121.063 112.116C127.162 119.473 119.806 132.756 104.735 129.166C89.6549 125.576 23.5483 116.355 23.5483 116.355Z" fill="#30B72C" stroke="#231815" stroke-width="3" stroke-miterlimit="10"/>
<path d="M48.1402 61.8975L45.5172 98.688H82.2214L75.9725 67.2298L48.1402 61.8975Z" fill="black"/>
<path d="M44.2873 166.542C35.2837 180.342 20.5031 198.771 30.0785 207.498C39.6585 216.225 55.2469 172.387 55.2469 172.387" fill="white"/>
<path d="M44.2873 166.542C35.2837 180.342 20.5031 198.771 30.0785 207.498C39.6585 216.225 55.2469 172.387 55.2469 172.387" stroke="#231815" stroke-width="3" stroke-miterlimit="10"/>
<path d="M64.659 225.578C64.659 225.578 65.6483 243.74 61.564 243.803C57.4797 243.871 43.9879 245.033 42.0682 242.764C40.1486 240.495 46.4929 234.573 46.4929 234.573L39.4089 217.99C39.4089 217.99 33.2144 209.677 33.945 195.912C34.6167 183.287 50.373 171.066 49.1159 164.059L86.873 160.356C86.392 177.07 86.6053 237.604 83.5375 241.525C80.4697 245.446 66.7783 244.615 65.1899 243.712C63.6016 242.809 67.2502 235.657 67.2502 235.657L63.647 220.768L58.3238 220.486" fill="white"/>
<path d="M64.659 225.578C64.659 225.578 65.6483 243.74 61.564 243.803C57.4797 243.871 43.9879 245.033 42.0682 242.764C40.1486 240.495 46.4929 234.573 46.4929 234.573L39.4089 217.99C39.4089 217.99 33.2144 209.677 33.945 195.912C34.6167 183.287 50.373 171.066 49.1159 164.059L86.873 160.356C86.392 177.07 86.6053 237.604 83.5375 241.525C80.4697 245.446 66.7783 244.615 65.1899 243.712C63.6016 242.809 67.2502 235.657 67.2502 235.657L63.647 220.768L58.3238 220.486" stroke="#231815" stroke-width="3" stroke-miterlimit="10" stroke-linecap="round"/>
<path d="M85.2347 166.841C89.378 175.641 110.135 198.204 99.7067 205.57C89.2782 212.93 80.5014 199.284 77.5698 183.723" fill="white"/>
<path d="M85.2347 166.841C89.378 175.641 110.135 198.204 99.7067 205.57C89.2782 212.93 80.5014 199.284 77.5698 183.723" stroke="#231815" stroke-width="3" stroke-miterlimit="10" stroke-linecap="round"/>
<path d="M19.6772 122.513C18.8785 139.209 3.88908 151.017 24.4467 168.756C45.0089 186.496 82.7841 180.279 103.641 156.794C119.588 138.841 115.84 82.1465 69.4648 78.9471C23.0989 75.7478 20.4577 106.212 19.6772 122.513Z" fill="white" stroke="#231815" stroke-width="3" stroke-miterlimit="10"/>
<path d="M32.3975 145.39C31.8847 147.332 32.3703 151.489 39.2909 147.414C45.4763 150.717 48.2037 147.995 47.4096 145.998" fill="white"/>
<path d="M32.3975 145.39C31.8847 147.332 32.3703 151.489 39.2909 147.414C45.4763 150.717 48.2037 147.995 47.4096 145.998" stroke="#231815" stroke-width="3" stroke-miterlimit="10" stroke-linecap="round"/>
<path d="M27.6643 135.097C29.6794 135.097 31.3129 134.37 31.3129 133.473C31.3129 132.575 29.6794 131.848 27.6643 131.848C25.6492 131.848 24.0156 132.575 24.0156 133.473C24.0156 134.37 25.6492 135.097 27.6643 135.097Z" fill="#FFAEE0"/>
<path d="M54.3484 134.834C56.3634 134.834 57.997 134.107 57.997 133.209C57.997 132.312 56.3634 131.585 54.3484 131.585C52.3333 131.585 50.6997 132.312 50.6997 133.209C50.6997 134.107 52.3333 134.834 54.3484 134.834Z" fill="#FFAEE0"/>
<path d="M30.4053 133.019C31.4028 133.019 32.2115 132.21 32.2115 131.213C32.2115 130.215 31.4028 129.406 30.4053 129.406C29.4078 129.406 28.5991 130.215 28.5991 131.213C28.5991 132.21 29.4078 133.019 30.4053 133.019Z" fill="#231815"/>
<path d="M51.63 132.556C52.6275 132.556 53.4362 131.747 53.4362 130.75C53.4362 129.752 52.6275 128.944 51.63 128.944C50.6325 128.944 49.8239 129.752 49.8239 130.75C49.8239 131.747 50.6325 132.556 51.63 132.556Z" fill="#231815"/>
<path d="M23.2578 93.8141C24.1564 95.6066 28.8215 94.3541 28.8215 92.38C40.4845 97.0452 42.6401 90.2244 41.7415 83.2267C48.5623 83.4082 46.4067 77.5994 46.4067 77.5994C48.9208 77.663 49.0978 74.4318 49.0978 74.4318C51.0719 73.7148 61.1556 69.0496 68.4982 71.0237C67.4046 75.6888 76.7349 78.4299 79.7845 77.5994C74.5793 81.6111 79.7845 83.7667 79.7845 83.7667C76.0179 85.7408 82.4756 97.7622 89.2964 96.5097C85.7068 100.998 92.5275 106.38 101.318 101.533C99.3438 106.38 107.599 103.444 107.599 103.444L117.855 70.5472L33.8452 59.397L23.2578 93.8141Z" fill="#30B72C"/>
<path d="M23.2578 93.814C24.1564 95.6066 28.8215 94.3541 28.8215 92.38C40.4845 97.0452 42.6401 90.2244 41.7415 83.2266C48.5623 83.4081 46.4067 77.5994 46.4067 77.5994C48.9208 77.6629 49.0978 74.4318 49.0978 74.4318C51.0719 73.7147 61.1556 69.0495 68.4982 71.0236C67.4046 75.6888 76.7349 78.4298 79.7845 77.5994C74.5793 81.6111 79.7845 83.7666 79.7845 83.7666C76.0179 85.7407 82.4756 97.7622 89.2964 96.5097C85.7068 100.998 92.5275 106.38 101.318 101.533C99.3438 106.38 107.599 103.444 107.599 103.444" stroke="#231815" stroke-width="3" stroke-miterlimit="10"/>
<path d="M13.6597 98.8468C18.7826 98.8468 22.9356 94.6939 22.9356 89.5709C22.9356 84.448 18.7826 80.295 13.6597 80.295C8.53675 80.295 4.38379 84.448 4.38379 89.5709C4.38379 94.6939 8.53675 98.8468 13.6597 98.8468Z" fill="#D33333" stroke="#231815" stroke-width="3" stroke-miterlimit="10"/>
<path d="M110.045 102.305C114.153 102.305 117.483 98.9748 117.483 94.8669C117.483 90.759 114.153 87.4289 110.045 87.4289C105.937 87.4289 102.607 90.759 102.607 94.8669C102.607 98.9748 105.937 102.305 110.045 102.305Z" fill="#D33333" stroke="#231815" stroke-width="3" stroke-miterlimit="10"/>
</svg>
