<svg width="126" height="266" viewBox="0 0 126 266" fill="none" xmlns="http://www.w3.org/2000/svg">
<path d="M10.3258 115.295C9.35393 135.61 -8.8851 149.978 16.1293 171.563C41.1493 193.149 87.114 185.584 112.493 157.008C131.897 135.163 127.336 66.177 70.9071 62.2841C14.4783 58.3911 11.27 95.46 10.3258 115.295Z" fill="white" stroke="#231815" stroke-width="1.65659" stroke-miterlimit="10"/>
<path d="M29.6305 135.98C29.6305 135.98 38.311 132.551 53.8443 132.324C55.1033 142.877 49.4985 148.99 42.4248 149.57C36.0028 150.1 30.0833 146.715 29.6305 135.98Z" fill="#231815"/>
<path d="M42.1819 139.42L37.7091 140.381C36.2347 140.696 34.7769 139.751 34.4567 138.283L34.1695 136.935C33.8548 135.461 34.799 134.003 36.2679 133.683L40.7406 132.722C42.215 132.407 43.6728 133.352 43.9931 134.82L44.2802 136.168C44.595 137.642 43.6507 139.105 42.1819 139.42Z" fill="white"/>
<path d="M24.4302 127.301C27.3305 126.785 29.3961 124.762 29.0438 122.783C28.6915 120.805 26.0547 119.62 23.1543 120.136C20.254 120.652 18.1884 122.675 18.5407 124.654C18.893 126.632 21.5298 127.818 24.4302 127.301Z" fill="#FFAEE0"/>
<path d="M61.4203 123.71C64.9122 123.71 67.7429 121.703 67.7429 119.226C67.7429 116.75 64.9122 114.743 61.4203 114.743C57.9284 114.743 55.0977 116.75 55.0977 119.226C55.0977 121.703 57.9284 123.71 61.4203 123.71Z" fill="#FFAEE0"/>
<path d="M23.6503 119.607C24.3902 116.46 28.4599 114.533 29.625 118.188" stroke="#231815" stroke-width="1.65659" stroke-miterlimit="10" stroke-linecap="round"/>
<path d="M52.2429 116.697C54.1866 111.976 57.8422 114.373 57.9526 117.228" stroke="#231815" stroke-width="1.65659" stroke-miterlimit="10" stroke-linecap="round"/>
<path d="M29.6305 135.98C29.6305 135.98 38.311 132.551 53.8443 132.324C55.1033 142.877 49.4985 148.99 42.4248 149.57C36.0028 150.1 30.0833 146.715 29.6305 135.98Z" stroke="#231815" stroke-width="1.65659" stroke-miterlimit="10" stroke-linecap="round"/>
<path d="M57.1845 70.242C42.0886 72.6764 38.7942 73.6446 34.151 68.2226C29.5079 62.8006 30.6687 41.8759 30.6687 41.8759C30.6687 41.8759 42.2821 41.295 46.9253 47.6908C51.5684 54.0866 58.1518 66.679 58.1518 66.679C58.1518 66.679 54.2825 42.4624 88.1556 33.3556C104.805 58.1531 92.7987 73.8493 84.8666 75.0112C76.929 76.162 57.1845 70.242 57.1845 70.242Z" fill="#98D845" stroke="#231815" stroke-width="3" stroke-miterlimit="10" stroke-linejoin="round"/>
<path d="M75.304 53.2512C70.2739 55.7907 65.4317 58.9332 61.5513 63.0219C60.2523 64.311 59.0639 65.6554 58.3398 67.4425C58.3122 67.5255 58.1795 67.5089 58.1739 67.4204C57.986 61.3731 65.3487 57.7603 69.9201 55.3204C71.6613 54.4905 73.4246 53.727 75.2376 53.1018C75.3261 53.0686 75.3979 53.2069 75.304 53.2512Z" fill="#231815"/>
<path d="M60.07 23.0149C55.9409 32.6252 55.7861 48.5483 57.6379 58.8059C58.1464 61.2126 58.5278 63.8959 59.7937 65.943C59.9484 66.1477 60.0976 66.3469 60.2137 66.607C60.6615 67.4645 60.2193 68.6375 59.2575 68.9141C58.4836 69.1631 57.6987 68.9971 56.9912 68.82C53.4038 67.7135 49.4958 65.2238 48.5671 61.3952C48.5395 61.2402 48.7551 61.1683 48.8269 61.3011C50.6344 64.2832 54.2274 65.8268 57.4886 66.4742C57.8148 66.5184 58.1575 66.5516 58.4283 66.5074C58.4449 66.5018 58.4339 66.4963 58.3952 66.5074C58.1022 66.5572 57.754 67.0994 57.7982 67.4147C57.8092 67.6194 57.8369 67.6748 57.8535 67.719C57.8811 67.7799 57.8314 67.7135 57.8203 67.7024C54.5369 63.5695 54.6806 56.7698 54.4982 51.7462C54.4651 44.3324 55.0952 36.8909 57.0907 29.7371C57.765 27.3636 58.6052 25.0233 59.8213 22.8766C59.86 22.8102 59.9429 22.7881 60.0092 22.8268C60.0755 22.8711 60.0977 22.954 60.07 23.0149Z" fill="black"/>
<path d="M56.958 23.2584C45.7757 28.0885 41.4863 37.5272 45.936 41.6989C50.3857 45.8705 65.2936 40.8192 56.958 23.2584Z" fill="#F978B9" stroke="black" stroke-width="3" stroke-miterlimit="10" stroke-linecap="round" stroke-linejoin="round"/>
<path d="M57.334 23.0149C55.9852 33.7372 61.2585 41.2617 66.4434 39.7402C71.6283 38.2187 74.4861 24.5474 57.334 23.0149Z" fill="#F978B9" stroke="black" stroke-width="3" stroke-miterlimit="10" stroke-linecap="round" stroke-linejoin="round"/>
<path d="M56.0459 23.0758C49.4239 14.5388 40.3808 12.951 37.7883 17.6925C35.1959 22.434 42.835 34.1301 56.0459 23.0758Z" fill="#F978B9" stroke="black" stroke-width="3" stroke-miterlimit="10" stroke-linecap="round" stroke-linejoin="round"/>
<path d="M57.1183 22.86C67.6926 28.199 77.399 25.5101 77.7362 19.5902C78.0734 13.6702 65.0062 5.68651 57.1183 22.86Z" fill="#F978B9" stroke="black" stroke-width="3" stroke-miterlimit="10" stroke-linecap="round" stroke-linejoin="round"/>
<path d="M57.179 22.9541C65.3599 14.3839 65.6141 4.30338 60.0534 2.26182C54.4926 0.22026 43.0616 10.4004 57.179 22.9541Z" fill="#F978B9" stroke="black" stroke-width="3" stroke-miterlimit="10" stroke-linecap="round" stroke-linejoin="round"/>
<path d="M42.4093 169.006C31.4426 185.831 13.4392 208.299 25.1024 218.938C36.7712 229.578 55.7584 176.132 55.7584 176.132" fill="white"/>
<path d="M42.4093 169.006C31.4426 185.831 13.4392 208.299 25.1024 218.938C36.7712 229.578 55.7584 176.132 55.7584 176.132" stroke="#231815" stroke-width="3" stroke-miterlimit="10"/>
<path d="M59.5117 234.768L65.9955 235.111L70.3844 253.263C70.3844 253.263 65.9402 261.988 67.8749 263.084C69.804 264.185 86.4863 265.192 90.2229 260.417C93.9596 255.637 93.6943 181.836 94.2857 161.459L48.2962 165.974C49.8328 174.517 30.641 189.416 29.8174 204.808C28.922 221.589 36.4727 231.725 36.4727 231.725L45.1012 251.941C45.1012 251.941 37.3681 259.161 39.7118 261.928C42.05 264.694 58.478 263.278 63.4584 263.195C68.4332 263.112 67.2282 240.975 67.2282 240.975L65.6528 235.354" fill="white"/>
<path d="M59.5117 234.768L65.9955 235.111L70.3844 253.263C70.3844 253.263 65.9402 261.988 67.8749 263.084C69.804 264.185 86.4863 265.192 90.2229 260.417C93.9596 255.637 93.6943 181.836 94.2857 161.459L48.2962 165.974C49.8328 174.517 30.641 189.416 29.8174 204.808C28.922 221.589 36.4727 231.725 36.4727 231.725L45.1012 251.941C45.1012 251.941 37.3681 259.161 39.7118 261.928C42.05 264.694 58.478 263.278 63.4584 263.195C68.4332 263.112 67.2282 240.975 67.2282 240.975L65.6528 235.354" stroke="#231815" stroke-width="3" stroke-miterlimit="10" stroke-linecap="round"/>
<path d="M92.2848 169.371C97.3315 180.099 122.615 207.608 109.912 216.587C97.2099 225.561 86.5196 208.924 82.9487 189.953" fill="white"/>
<path d="M92.2848 169.371C97.3315 180.099 122.615 207.608 109.912 216.587C97.2099 225.561 86.5196 208.924 82.9487 189.953" stroke="#231815" stroke-width="3" stroke-miterlimit="10" stroke-linecap="round"/>
<path d="M61.027 234.918L67.4823 235.259L71.8519 253.315C71.8519 253.315 67.4273 261.994 69.3534 263.083C71.274 264.178 87.8828 265.18 91.603 260.431C95.3231 255.676 95.059 182.268 95.6478 162L49.861 166.491C51.3909 174.988 32.2837 189.808 31.4637 205.118C30.5722 221.809 38.0896 231.891 38.0896 231.891L46.6801 252C46.6801 252 38.9811 259.181 41.3145 261.933C43.6479 264.685 59.9979 263.276 64.9563 263.193C69.9147 263.111 68.7095 241.092 68.7095 241.092L74.7466 235.116" fill="white"/>
<path d="M61.027 234.918L67.4823 235.259L71.8519 253.315C71.8519 253.315 67.4273 261.994 69.3534 263.083C71.274 264.178 87.8828 265.18 91.603 260.431C95.3231 255.676 95.059 182.268 95.6478 162L49.861 166.491C51.3909 174.988 32.2837 189.808 31.4637 205.118C30.5722 221.809 38.0896 231.891 38.0896 231.891L46.6801 252C46.6801 252 38.9811 259.181 41.3145 261.933C43.6479 264.685 59.9979 263.276 64.9563 263.193C69.9147 263.111 68.7095 241.092 68.7095 241.092L74.7466 235.116" stroke="#231815" stroke-width="1.65097" stroke-miterlimit="10" stroke-linecap="round"/>
<path d="M44.0001 169.501C33.0817 186.236 15.1577 208.585 26.7695 219.167C38.3868 229.75 57.2903 176.589 57.2903 176.589" fill="white"/>
<path d="M44.0001 169.501C33.0817 186.236 15.1577 208.585 26.7695 219.167C38.3868 229.75 57.2903 176.589 57.2903 176.589" stroke="#231815" stroke-width="1.65097" stroke-miterlimit="10"/>
<path d="M68.8251 247.685C68.8581 243.987 68.704 241.092 68.704 241.092L74.741 235.116" fill="#7DA3BA"/>
<path d="M68.8251 247.685C68.8581 243.987 68.704 241.092 68.704 241.092L74.741 235.116" stroke="#231815" stroke-width="1.65097" stroke-miterlimit="10" stroke-linecap="round"/>
<path d="M93.6556 246.92C95.2461 223.625 95.2021 177.426 95.6478 162.005L49.861 166.496C51.3909 174.993 32.2837 189.813 31.4637 205.123C30.5722 221.815 38.0896 231.896 38.0896 231.896L44.8145 247.636" fill="#7DA3BA"/>
<path d="M93.6556 246.92C95.2461 223.625 95.2021 177.426 95.6478 162.005L49.861 166.496C51.3909 174.993 32.2837 189.813 31.4637 205.123C30.5722 221.815 38.0896 231.896 38.0896 231.896L44.8145 247.636" stroke="#231815" stroke-width="1.65097" stroke-miterlimit="10" stroke-linecap="round"/>
<path d="M61.0269 234.918L67.4821 235.264L70.3053 246.92" fill="#7DA3BA"/>
<path d="M61.0269 234.918L67.4821 235.264L70.3053 246.92" stroke="#231815" stroke-width="1.65097" stroke-miterlimit="10" stroke-linecap="round"/>
<path d="M93.6556 246.92C95.2461 223.625 95.2021 177.426 95.6478 162.005L49.861 166.496C51.3909 174.993 32.2837 189.813 31.4637 205.123C30.5722 221.815 38.0896 231.896 38.0896 231.896L46.6801 252.005C46.6801 252.005 38.9811 259.187 41.3145 261.938C43.6479 264.69 59.9979 263.281 64.9563 263.199C69.9147 263.116 68.7095 241.098 68.7095 241.098L74.7466 235.121" stroke="#231815" stroke-width="1.65097" stroke-miterlimit="10" stroke-linecap="round"/>
<path d="M70.3054 246.92L71.8573 253.32C71.8573 253.32 67.4327 261.999 69.3589 263.089C71.2795 264.184 87.8882 265.185 91.6084 260.436C92.4999 259.302 93.1603 254.239 93.6611 246.926" stroke="#231815" stroke-width="1.65097" stroke-miterlimit="10" stroke-linecap="round"/>
<path d="M61.0269 234.918L67.4821 235.264L70.3053 246.92" stroke="#231815" stroke-width="1.65097" stroke-miterlimit="10" stroke-linecap="round"/>
<path d="M84.3607 190.336C87.9103 209.212 98.559 225.76 111.205 216.829C123.852 207.902 98.6801 180.535 93.6557 169.864" fill="white"/>
<path d="M84.3607 190.336C87.9103 209.212 98.559 225.76 111.205 216.829C123.852 207.902 98.6801 180.535 93.6557 169.864" stroke="#231815" stroke-width="1.65097" stroke-miterlimit="10" stroke-linecap="round"/>
<path d="M82.3629 172.219C77.1128 177.635 73.0459 185.763 73.0459 187.342C63.1126 187.794 45.5353 187.342 45.5353 187.342C49.3655 177.959 56.206 176.055 56.206 176.055L82.3629 172.219Z" fill="white" stroke="#231815" stroke-width="1.65097" stroke-miterlimit="10"/>
<path d="M99.5386 164.102C86.661 174.371 81.0642 188.316 82.6162 195.036C84.1681 201.755 86.0502 197.391 86.0502 197.391" fill="white"/>
<path d="M99.5386 164.102C86.661 174.371 81.0642 188.316 82.6162 195.036C84.1681 201.755 86.0502 197.391 86.0502 197.391" stroke="#231815" stroke-width="1.65097" stroke-miterlimit="10" stroke-linecap="round"/>
<path d="M82.2969 190.512L72.4186 189.357L73.6788 185.24L83.5626 185.851L82.2969 190.512Z" fill="#C9CACA" stroke="#231815" stroke-width="1.65097" stroke-miterlimit="10"/>
<path d="M44.3193 189.846H37.2146L39.4159 186.016H45.4199L44.3193 189.846Z" fill="#C9CACA" stroke="#231815" stroke-width="1.65097" stroke-miterlimit="10"/>
<path d="M37.2145 202.79H72.4186C75.5554 227.213 33.2136 236.701 37.2145 202.79Z" fill="#7DA3BA" stroke="#231815" stroke-width="1.65097" stroke-miterlimit="10" stroke-linecap="round"/>
<path d="M38.0839 231.896L42.2608 245.886C42.58 246.959 43.5651 247.691 44.6822 247.691H68.8194L69.7824 243.007L67.9058 235.27" fill="#7DA3BA"/>
<path d="M38.0839 231.896L42.2608 245.886C42.58 246.959 43.5651 247.691 44.6822 247.691H68.8194L69.7824 243.007L67.9058 235.27" stroke="#231815" stroke-width="1.65097" stroke-miterlimit="10" stroke-linecap="round"/>
<path d="M94.6463 223.317L95.5379 244.345C95.5984 245.748 94.4757 246.915 93.0724 246.915H71.9235C70.6578 246.915 69.5737 246.007 69.3535 244.763L68.7041 241.092L67.4824 235.259" fill="#7DA3BA"/>
<path d="M94.6463 223.317L95.5379 244.345C95.5984 245.748 94.4757 246.915 93.0724 246.915H71.9235C70.6578 246.915 69.5737 246.007 69.3535 244.763L68.7041 241.092L67.4824 235.259" stroke="#231815" stroke-width="1.65097" stroke-miterlimit="10" stroke-linecap="round"/>
<path d="M37.2146 207.055H72.5068" stroke="#231815" stroke-width="1.65097" stroke-miterlimit="10"/>
<path d="M41.6666 243.882L95.6478 243.332" stroke="#231815" stroke-width="1.65097" stroke-miterlimit="10"/>
<path d="M11.3333 115.328C10.3604 135.683 -7.89723 150.079 17.1427 171.706C42.1827 193.333 88.1999 185.753 113.605 157.122C133.029 135.234 128.463 66.1146 71.9764 62.2141C15.4955 58.3135 12.2785 95.4545 11.3333 115.328Z" fill="white" stroke="#231815" stroke-width="3" stroke-miterlimit="10"/>
<path d="M28.4798 140.452C27.8552 142.82 28.4466 147.888 36.8762 142.919C44.4103 146.947 47.7324 143.627 46.7651 141.193" fill="white"/>
<path d="M28.4798 140.452C27.8552 142.82 28.4466 147.888 36.8762 142.919C44.4103 146.947 47.7324 143.627 46.7651 141.193" stroke="#231815" stroke-width="3" stroke-miterlimit="10" stroke-linecap="round"/>
<path d="M22.7146 127.904C25.169 127.904 27.1587 127.017 27.1587 125.923C27.1587 124.829 25.169 123.942 22.7146 123.942C20.2601 123.942 18.2704 124.829 18.2704 125.923C18.2704 127.017 20.2601 127.904 22.7146 127.904Z" fill="#FFAEE0"/>
<path d="M55.2169 127.583C57.6713 127.583 59.661 126.696 59.661 125.602C59.661 124.508 57.6713 123.621 55.2169 123.621C52.7624 123.621 50.7727 124.508 50.7727 125.602C50.7727 126.696 52.7624 127.583 55.2169 127.583Z" fill="#FFAEE0"/>
<path d="M26.0531 125.37C27.2681 125.37 28.2531 124.384 28.2531 123.168C28.2531 121.951 27.2681 120.966 26.0531 120.966C24.8381 120.966 23.8531 121.951 23.8531 123.168C23.8531 124.384 24.8381 125.37 26.0531 125.37Z" fill="#231815"/>
<path d="M51.9113 124.805C53.1263 124.805 54.1113 123.82 54.1113 122.603C54.1113 121.387 53.1263 120.401 51.9113 120.401C50.6963 120.401 49.7113 121.387 49.7113 122.603C49.7113 123.82 50.6963 124.805 51.9113 124.805Z" fill="#231815"/>
<path d="M9.34021 115.4C8.36643 135.755 -9.90848 150.151 15.1552 171.779C40.2243 193.407 86.2795 185.827 111.708 157.195C131.151 135.307 126.581 66.1853 70.0407 62.2846C13.5009 58.384 10.2863 95.5258 9.34021 115.4Z" fill="white" stroke="#231815" stroke-width="2.34909" stroke-miterlimit="10"/>
<path d="M28.6829 136.126C28.6829 136.126 37.3805 132.69 52.9443 132.463C54.2057 143.036 48.5899 149.161 41.5024 149.742C35.0677 150.273 29.1366 146.881 28.6829 136.126Z" fill="#231815"/>
<path d="M41.2589 139.572L36.7773 140.535C35.3001 140.851 33.8394 139.904 33.5185 138.433L33.2308 137.083C32.9155 135.605 33.8616 134.145 35.3333 133.824L39.8148 132.861C41.2921 132.546 42.7528 133.492 43.0737 134.964L43.3614 136.314C43.6768 137.791 42.7307 139.257 41.2589 139.572Z" fill="white"/>
<path d="M23.4722 127.43C26.3782 126.912 28.4479 124.885 28.0948 122.903C27.7418 120.921 25.0999 119.733 22.1938 120.25C19.2878 120.768 17.2182 122.794 17.5712 124.777C17.9242 126.759 20.5661 127.947 23.4722 127.43Z" fill="#FFAEE0"/>
<path d="M60.5353 123.832C64.034 123.832 66.8704 121.82 66.8704 119.339C66.8704 116.858 64.034 114.846 60.5353 114.846C57.0365 114.846 54.2002 116.858 54.2002 119.339C54.2002 121.82 57.0365 123.832 60.5353 123.832Z" fill="#FFAEE0"/>
<path d="M22.6908 119.721C23.4322 116.567 27.5099 114.636 28.6773 118.299" stroke="#231815" stroke-width="2.34909" stroke-miterlimit="10" stroke-linecap="round"/>
<path d="M51.3397 116.805C53.2873 112.074 56.95 114.476 57.0607 117.336" stroke="#231815" stroke-width="2.34909" stroke-miterlimit="10" stroke-linecap="round"/>
<path d="M28.6829 136.126C28.6829 136.126 37.3805 132.69 52.9443 132.463C54.2057 143.036 48.5899 149.161 41.5024 149.742C35.0677 150.273 29.1366 146.881 28.6829 136.126Z" stroke="#231815" stroke-width="2.34909" stroke-miterlimit="10" stroke-linecap="round"/>
</svg>
