<svg width="137" height="266" viewBox="0 0 137 266" fill="none" xmlns="http://www.w3.org/2000/svg">
<path d="M127.784 83.8657C130.781 86.3647 137.775 79.8683 131.284 67.3788C138.278 56.885 135.281 42.3997 123.289 37.8412C127.287 16.2926 106.803 9.92346 94.8105 14.9216C94.8105 10.9242 85.3175 7.43019 80.8227 7.43019C77.3228 1.93456 63.1557 -3.5495 60.3385 13.4233C54.328 9.50117 29.3605 12.4225 33.3578 34.405C5.37643 30.4077 12.3761 60.8824 26.364 73.8752" fill="#81DD45"/>
<path d="M127.784 83.8657C130.781 86.3647 137.775 79.8683 131.284 67.3788C138.278 56.885 135.281 42.3997 123.289 37.8412C127.287 16.2926 106.803 9.92346 94.8105 14.9216C94.8105 10.9242 85.3175 7.43019 80.8227 7.43019C77.3228 1.93456 63.1557 -3.5495 60.3385 13.4233C54.328 9.50117 29.3605 12.4225 33.3578 34.405C5.37643 30.4077 12.3761 60.8824 26.364 73.8752" stroke="#231815" stroke-width="3" stroke-miterlimit="10"/>
<path d="M54.4148 58.013L63.5375 42.8451L72.157 40.375L74.5635 41.9658L82.4772 40.7799L85.0283 45.8995L89.2339 47.3631L90.5818 49.0696L92.7801 48.7977L91.8255 53.1422L93.6478 57.5907L94.3998 58.9328L85.6589 63.983L54.4148 58.013Z" fill="#231815"/>
<path d="M41.0459 165.01C29.5687 182.602 10.7274 206.094 22.9335 217.218C35.1453 228.343 55.0164 172.461 55.0164 172.461" fill="white"/>
<path d="M41.0459 165.01C29.5687 182.602 10.7274 206.094 22.9335 217.218C35.1453 228.343 55.0164 172.461 55.0164 172.461" stroke="#231815" stroke-width="3" stroke-miterlimit="10"/>
<path d="M67.0084 240.265C67.0084 240.265 68.2695 263.416 63.0631 263.497C57.8567 263.584 40.6583 265.065 38.2113 262.173C35.7643 259.28 43.8516 251.731 43.8516 251.731L34.8214 230.593C34.8214 230.593 26.925 219.995 27.8564 202.45C28.7125 186.356 48.7976 170.778 47.1952 161.846L95.3253 157.125C94.7121 178.431 94.984 255.595 91.0735 260.593C87.1629 265.592 69.7099 264.533 67.6852 263.382C65.6663 262.231 70.3116 253.114 70.3116 253.114L65.7184 234.133L58.9327 233.775" fill="white"/>
<path d="M67.0084 240.265C67.0084 240.265 68.2695 263.416 63.0631 263.497C57.8567 263.584 40.6583 265.065 38.2113 262.173C35.7643 259.28 43.8516 251.731 43.8516 251.731L34.8214 230.593C34.8214 230.593 26.925 219.995 27.8564 202.45C28.7125 186.356 48.7976 170.778 47.1952 161.846L95.3253 157.125C94.7121 178.431 94.984 255.595 91.0735 260.593C87.1629 265.592 69.7099 264.533 67.6852 263.382C65.6663 262.231 70.3116 253.114 70.3116 253.114L65.7184 234.133L58.9327 233.775" stroke="#231815" stroke-width="3" stroke-miterlimit="10" stroke-linecap="round"/>
<path d="M93.2371 165.398C98.5187 176.614 124.979 205.377 111.685 214.766C98.3914 224.149 87.2035 206.754 83.4664 186.917" fill="white"/>
<path d="M93.2371 165.398C98.5187 176.614 124.979 205.377 111.685 214.766C98.3914 224.149 87.2035 206.754 83.4664 186.917" stroke="#231815" stroke-width="3" stroke-miterlimit="10" stroke-linecap="round"/>
<path d="M9.67458 108.885C8.65644 130.168 -10.451 145.22 15.7545 167.833C41.9599 190.446 90.119 182.521 116.706 152.584C137.034 129.699 132.256 57.4288 73.1404 53.3505C14.0248 49.2722 10.6638 88.106 9.67458 108.885Z" fill="white" stroke="#231815" stroke-width="3" stroke-miterlimit="10"/>
<path d="M105.125 53.0554C91.4033 58.7709 88.9389 62.0335 93.7635 75.5991C98.5881 89.1646 126.523 74.1297 126.523 74.1297L128.357 78.6072C128.357 78.6072 127.374 84.9763 123.394 85.1499C119.414 85.3234 117.4 80.1055 118.338 75.0495C119.275 69.9935 105.125 53.0554 105.125 53.0554Z" fill="#81DD45"/>
<path d="M48.9133 45.8532C53.0322 48.2077 57.7468 46.3045 58.0418 40.7799C63.0457 44.9682 70.4041 42.0237 72.1743 38.7899C73.6437 43.7938 81.0714 41.127 82.4772 40.7799C83.0672 46.1483 87.481 47.8375 89.2454 46.8425C88.9504 50.2671 92.78 48.7977 92.78 48.7977C90.7206 54.3917 92.242 56.6305 94.8857 58.6552C87.1108 62.3864 89.2917 90.9868 118.517 78.5551C118.048 87.7241 127.489 87.7588 127.79 80.6319" stroke="#231815" stroke-width="3" stroke-miterlimit="10"/>
<path d="M25.8896 138.053C25.2359 140.528 25.8549 145.827 34.6768 140.633C42.5616 144.844 46.0382 141.373 45.0259 138.828" fill="white"/>
<path d="M25.8896 138.053C25.2359 140.528 25.8549 145.827 34.6768 140.633C42.5616 144.844 46.0382 141.373 45.0259 138.828" stroke="#231815" stroke-width="3" stroke-miterlimit="10" stroke-linecap="round"/>
<path d="M19.8502 124.932C22.4188 124.932 24.5012 124.005 24.5012 122.861C24.5012 121.718 22.4188 120.79 19.8502 120.79C17.2815 120.79 15.1991 121.718 15.1991 122.861C15.1991 124.005 17.2815 124.932 19.8502 124.932Z" fill="#FFAEE0"/>
<path d="M53.871 124.597C56.4397 124.597 58.522 123.67 58.522 122.526C58.522 121.382 56.4397 120.455 53.871 120.455C51.3023 120.455 49.22 121.382 49.22 122.526C49.22 123.67 51.3023 124.597 53.871 124.597Z" fill="#FFAEE0"/>
<path d="M23.3442 122.283C24.6158 122.283 25.6466 121.252 25.6466 119.981C25.6466 118.709 24.6158 117.678 23.3442 117.678C22.0727 117.678 21.0419 118.709 21.0419 119.981C21.0419 121.252 22.0727 122.283 23.3442 122.283Z" fill="#231815"/>
<path d="M50.4058 121.687C51.6774 121.687 52.7082 120.656 52.7082 119.385C52.7082 118.113 51.6774 117.082 50.4058 117.082C49.1342 117.082 48.1034 118.113 48.1034 119.385C48.1034 120.656 49.1342 121.687 50.4058 121.687Z" fill="#231815"/>
</svg>
