<svg width="137" height="248" viewBox="0 0 137 248" fill="none" xmlns="http://www.w3.org/2000/svg">
<path d="M60.6523 37.1579C61.1547 20.8058 69.8113 5.10924 79.3073 2.00601C89.8018 9.03639 91.799 24.4082 91.799 37.1579C91.799 49.9076 60.6523 37.1579 60.6523 37.1579Z" fill="#C69360" stroke="#231815" stroke-width="3" stroke-miterlimit="10"/>
<path d="M79.3073 2C79.3073 2 89.1341 29.6344 86.1382 45.1686C83.1424 60.7028 71.8147 42.8231 71.8147 42.8231C71.8147 42.8231 69.4744 12.9575 79.3073 2Z" stroke="#231815" stroke-width="3" stroke-miterlimit="10" stroke-linejoin="round"/>
<path d="M46.8127 30.3862C49.3001 29.9532 55.4571 23.4821 56.9213 21.4734C58.3855 19.4647 68.6411 17.017 70.5465 18.4544C71.7166 16.0127 72.7458 15.1467 73.769 15.291C74.7921 15.4354 76.1154 14.858 76.6974 16.7284C78.0146 16.0067 80.655 16.4397 81.09 19.3144C82.8483 18.0214 85.9238 19.1701 87.2409 21.9004C88.5581 24.6308 89.8753 22.4778 91.9276 22.1891C93.98 21.9004 96.4673 22.9108 96.4673 25.7855C96.4673 28.6602 105.4 36.1356 105.4 36.1356L53.3986 41.025L46.8127 30.3862Z" fill="white"/>
<path d="M46.8127 30.3862C48.9937 29.5382 50.5376 27.6438 52.155 26.0501C53.7785 24.3541 55.2182 22.5379 56.6273 20.6796C58.5509 18.9836 61.0015 18.3401 63.4214 17.7748C65.2165 17.3839 67.0299 17.0652 68.9046 17.1313C69.6949 17.1975 70.3443 17.2275 71.104 17.7387L69.7133 18.0695C70.4484 16.6622 71.2204 14.9843 72.9419 14.4491C73.3585 14.3288 73.8057 14.3949 74.2346 14.413C75.8335 14.2686 77.114 14.84 77.5796 16.4638L76.2563 15.9405C78.7804 14.6235 81.7517 16.5239 82.0029 19.1821L80.5448 18.5927C83.2343 16.7464 86.7447 18.7972 87.9884 21.3531C88.0925 21.5516 88.3008 21.9365 88.4294 22.1049C88.7725 22.4597 88.7113 22.4176 89.2259 22.2492C92.6628 20.1864 97.3801 21.3712 97.4046 25.9058C97.8151 27.3431 98.9791 28.5399 100.021 29.7607C102.318 32.2806 105.001 34.614 107.623 36.8332C93.1039 38.0962 71.0917 40.4416 56.7375 41.5302C56.6089 41.5542 53.0494 41.6865 53.0188 41.6986C51.236 38.3909 48.5833 33.5796 46.8127 30.3862ZM46.8127 30.3862C48.859 33.5435 51.8487 37.585 53.9745 40.6822L53.3374 40.3695C55.2856 40.1169 57.8954 39.6538 59.813 39.4974C71.6063 38.463 93.3183 36.328 105.314 35.2335L104.805 36.8152C102.643 34.9689 100.578 33.0624 98.6422 30.9575C97.4292 29.4961 95.7444 27.8844 95.5483 25.7855C95.5422 25.0758 95.3339 24.306 94.807 23.8369C94.1148 23.1273 92.7853 22.8927 91.7438 23.1453C90.733 23.3739 89.7037 24.3662 88.3437 24.1256C87.3206 23.9151 86.7631 23.007 86.3404 22.165C85.9421 21.3892 85.3234 20.6916 84.5759 20.2406C83.6999 19.6933 82.4746 19.4347 81.6353 20.0361L80.4345 20.86C80.1711 19.3806 80.0485 17.438 78.1003 17.3238C77.4203 17.2335 76.7096 17.7568 76.1521 18.0214C76.0112 17.6786 75.7662 16.6502 75.515 16.4156C75.1474 16.0608 74.4796 16.2773 73.8915 16.2052C73.285 16.0909 72.9725 16.2954 72.3231 17.1554C71.7656 17.9191 71.2571 19.0678 70.8283 19.9519L69.9706 19.164C69.9338 19.134 69.7378 19.0558 69.5295 19.0137C66.5214 18.6589 63.4153 19.579 60.5604 20.4691C59.5924 20.7758 58.4345 21.1607 57.6749 21.7501C56.1371 23.4761 54.4891 25.1239 52.7186 26.6214C50.9174 28.0648 49.1163 29.7968 46.8127 30.3862Z" fill="#231815"/>
<path d="M44.5766 142.734C32.4218 161.023 12.4681 185.445 25.3948 197.01C38.3277 208.575 59.3719 150.48 59.3719 150.48" fill="white"/>
<path d="M44.5766 142.734C32.4218 161.023 12.4681 185.445 25.3948 197.01C38.3277 208.575 59.3719 150.48 59.3719 150.48" stroke="#231815" stroke-width="3" stroke-miterlimit="10"/>
<path d="M72.0779 220.97C72.0779 220.97 73.4134 245.038 67.8997 245.123C62.3859 245.213 44.1721 246.752 41.5806 243.745C38.9891 240.738 47.5538 232.89 47.5538 232.89L37.9905 210.915C37.9905 210.915 29.628 199.897 30.6143 181.657C31.521 164.926 52.7919 148.73 51.0949 139.444L102.067 134.537C101.417 156.686 101.705 236.907 97.5637 242.103C93.4223 247.3 74.9389 246.199 72.7947 245.002C70.6565 243.805 75.576 234.327 75.576 234.327L70.7117 214.595L63.5254 214.223" fill="white"/>
<path d="M72.0779 220.97C72.0779 220.97 73.4134 245.038 67.8997 245.123C62.3859 245.213 44.1721 246.752 41.5806 243.745C38.9891 240.738 47.5538 232.89 47.5538 232.89L37.9905 210.915C37.9905 210.915 29.628 199.897 30.6143 181.657C31.521 164.926 52.7919 148.73 51.0949 139.444L102.067 134.537C101.417 156.686 101.705 236.907 97.5637 242.103C93.4223 247.3 74.9389 246.199 72.7947 245.002C70.6565 243.805 75.576 234.327 75.576 234.327L70.7117 214.595L63.5254 214.223" stroke="#231815" stroke-width="3" stroke-miterlimit="10" stroke-linecap="round"/>
<path d="M99.8551 143.131C105.448 154.792 133.471 184.694 119.392 194.454C105.314 204.209 93.4652 186.125 89.5076 165.503" fill="white"/>
<path d="M99.8551 143.131C105.448 154.792 133.471 184.694 119.392 194.454C105.314 204.209 93.4652 186.125 89.5076 165.503" stroke="#231815" stroke-width="3" stroke-miterlimit="10" stroke-linecap="round"/>
<path d="M10.1277 84.386C9.04944 106.512 -11.1861 122.16 16.5666 145.669C44.3192 169.178 95.3216 160.938 123.479 129.816C145.007 106.024 139.946 30.8913 77.3405 26.6515C14.747 22.4116 11.1814 62.7836 10.1277 84.386Z" fill="white" stroke="#231815" stroke-width="3" stroke-miterlimit="10"/>
<path d="M29.138 111.702C28.4457 114.276 29.1013 119.784 38.444 114.384C46.7943 118.762 50.4763 115.154 49.4042 112.508" fill="white"/>
<path d="M29.138 111.702C28.4457 114.276 29.1013 119.784 38.444 114.384C46.7943 118.762 50.4763 115.154 49.4042 112.508" stroke="#231815" stroke-width="3" stroke-miterlimit="10" stroke-linecap="round"/>
<path d="M22.7481 98.0559C25.4685 98.0559 27.6738 97.0919 27.6738 95.9028C27.6738 94.7138 25.4685 93.7498 22.7481 93.7498C20.0278 93.7498 17.8225 94.7138 17.8225 95.9028C17.8225 97.0919 20.0278 98.0559 22.7481 98.0559Z" fill="#FFAEE0"/>
<path d="M58.7713 97.713C61.4917 97.713 63.697 96.7491 63.697 95.56C63.697 94.3709 61.4917 93.407 58.7713 93.407C56.051 93.407 53.8457 94.3709 53.8457 95.56C53.8457 96.7491 56.051 97.713 58.7713 97.713Z" fill="#FFAEE0"/>
<path d="M26.4486 95.3014C27.7952 95.3014 28.8869 94.2298 28.8869 92.9079C28.8869 91.5859 27.7952 90.5143 26.4486 90.5143C25.1019 90.5143 24.0103 91.5859 24.0103 92.9079C24.0103 94.2298 25.1019 95.3014 26.4486 95.3014Z" fill="#231815"/>
<path d="M55.1016 94.688C56.4483 94.688 57.54 93.6164 57.54 92.2944C57.54 90.9725 56.4483 89.9008 55.1016 89.9008C53.755 89.9008 52.6633 90.9725 52.6633 92.2944C52.6633 93.6164 53.755 94.688 55.1016 94.688Z" fill="#231815"/>
</svg>
