<svg width="124" height="245" viewBox="0 0 124 245" fill="none" xmlns="http://www.w3.org/2000/svg">
<path d="M49.5576 28.5716L47.5953 31.162C44.113 34.8735 36.5678 36.1493 32.9638 35.3374C29.3653 34.5255 19.4931 22.927 29.2493 11.555C47.0149 10.6271 44.9255 23.5014 51.1938 31.6259C57.4621 39.7504 66.0575 37.9167 66.0575 37.9167C73.4313 36.3813 86.9462 23.7224 76.8086 2C42.709 2.61306 48.8501 29.3228 48.8501 29.3228L52.8465 45.4447" fill="#B7ED58"/>
<path d="M49.5576 28.5716L47.5953 31.162C44.113 34.8735 36.5678 36.1493 32.9638 35.3374C29.3653 34.5255 19.4931 22.927 29.2493 11.555C47.0149 10.6271 44.9255 23.5014 51.1938 31.6259C57.4621 39.7504 66.0575 37.9167 66.0575 37.9167C73.4313 36.3813 86.9462 23.7224 76.8086 2C42.709 2.61306 48.8501 29.3228 48.8501 29.3228L52.8465 45.4447" stroke="#231815" stroke-width="3" stroke-miterlimit="10" stroke-linejoin="round"/>
<path d="M65.9027 15.4212C60.8726 17.9563 56.0304 21.0934 52.1501 25.175C50.8511 26.4619 49.6626 27.804 48.9385 29.5879C48.9109 29.6708 48.7782 29.6542 48.7727 29.5658C48.5848 23.5291 55.9475 19.9225 60.5188 17.4868C62.26 16.6583 64.0233 15.8962 65.8364 15.2721C65.9248 15.2389 65.9967 15.377 65.9027 15.4212Z" fill="#231815"/>
<path d="M38.9224 23.021C39.9781 25.0977 41.6364 26.9092 43.8253 27.7211C45.5555 28.1795 46.9982 28.6159 48.9163 28.4502C48.9936 28.4336 49.0544 28.533 48.9992 28.5938C47.5952 30.2839 44.9198 30.1844 43.1952 29.0467L42.4545 28.5717C40.5585 27.2959 39.2927 25.2468 38.7676 23.0817C38.7455 22.9823 38.8782 22.9326 38.9224 23.021Z" fill="#231815"/>
<path d="M40.4094 148.163C29.4427 164.959 11.4394 187.388 23.1026 198.009C34.7713 208.63 53.7586 155.277 53.7586 155.277" fill="white"/>
<path d="M40.4094 148.163C29.4427 164.959 11.4394 187.388 23.1026 198.009C34.7713 208.63 53.7586 155.277 53.7586 155.277" stroke="#231815" stroke-width="3" stroke-miterlimit="10"/>
<path d="M65.2227 220.013C65.2227 220.013 66.4277 242.117 61.4529 242.194C56.4781 242.277 40.0445 243.691 37.7064 240.929C35.3682 238.168 43.0958 230.96 43.0958 230.96L34.4672 210.779C34.4672 210.779 26.922 200.66 27.812 183.909C28.6301 168.543 47.8219 153.67 46.2907 145.142L92.2802 140.635C91.6943 160.977 91.9541 234.649 88.2175 239.421C84.4808 244.193 67.8041 243.183 65.8694 242.084C63.9403 240.984 68.379 232.28 68.379 232.28L63.9901 214.159L57.5062 213.816" fill="white"/>
<path d="M65.2227 220.013C65.2227 220.013 66.4277 242.117 61.4529 242.194C56.4781 242.277 40.0445 243.691 37.7064 240.929C35.3682 238.168 43.0958 230.96 43.0958 230.96L34.4672 210.779C34.4672 210.779 26.922 200.66 27.812 183.909C28.6301 168.543 47.8219 153.67 46.2907 145.142L92.2802 140.635C91.6943 160.977 91.9541 234.649 88.2175 239.421C84.4808 244.193 67.8041 243.183 65.8694 242.084C63.9403 240.984 68.379 232.28 68.379 232.28L63.9901 214.159L57.5062 213.816" stroke="#231815" stroke-width="3" stroke-miterlimit="10" stroke-linecap="round"/>
<path d="M90.2848 148.533C95.3315 159.243 120.615 186.704 107.912 195.668C95.2099 204.626 84.5196 188.018 80.9487 169.079" fill="white"/>
<path d="M90.2848 148.533C95.3315 159.243 120.615 186.704 107.912 195.668C95.2099 204.626 84.5196 188.018 80.9487 169.079" stroke="#231815" stroke-width="3" stroke-miterlimit="10" stroke-linecap="round"/>
<path d="M9.33325 94.5782C8.3604 114.898 -9.89722 129.269 15.1428 150.859C40.1827 172.448 86.1999 164.882 111.605 136.3C131.029 114.45 126.463 45.4503 69.9764 41.5565C13.49 37.6627 10.2785 74.7393 9.33325 94.5782Z" fill="white" stroke="#231815" stroke-width="3" stroke-miterlimit="10"/>
<path d="M26.4852 119.664C25.8605 122.028 26.452 127.087 34.8816 122.127C42.4157 126.148 45.7378 122.834 44.7704 120.404" fill="white"/>
<path d="M26.4852 119.664C25.8605 122.028 26.452 127.087 34.8816 122.127C42.4157 126.148 45.7378 122.834 44.7704 120.404" stroke="#231815" stroke-width="3" stroke-miterlimit="10" stroke-linecap="round"/>
<path d="M20.7147 107.138C23.1691 107.138 25.1589 106.253 25.1589 105.16C25.1589 104.068 23.1691 103.183 20.7147 103.183C18.2602 103.183 16.2705 104.068 16.2705 105.16C16.2705 106.253 18.2602 107.138 20.7147 107.138Z" fill="#FFAEE0"/>
<path d="M53.2224 106.817C55.6768 106.817 57.6666 105.932 57.6666 104.84C57.6666 103.748 55.6768 102.863 53.2224 102.863C50.7679 102.863 48.7782 103.748 48.7782 104.84C48.7782 105.932 50.7679 106.817 53.2224 106.817Z" fill="#FFAEE0"/>
<path d="M24.053 104.603C25.268 104.603 26.253 103.619 26.253 102.404C26.253 101.19 25.268 100.206 24.053 100.206C22.838 100.206 21.853 101.19 21.853 102.404C21.853 103.619 22.838 104.603 24.053 104.603Z" fill="#231815"/>
<path d="M49.9113 104.039C51.1263 104.039 52.1113 103.055 52.1113 101.841C52.1113 100.627 51.1263 99.6429 49.9113 99.6429C48.6963 99.6429 47.7113 100.627 47.7113 101.841C47.7113 103.055 48.6963 104.039 49.9113 104.039Z" fill="#231815"/>
<path d="M9.03002 94.2948C8.05816 114.61 -10.1809 128.978 14.8336 150.563C39.8535 172.149 85.8183 164.584 111.197 136.008C130.601 114.163 126.04 45.177 69.6113 41.2841C13.1825 37.3911 9.97427 74.46 9.03002 94.2948Z" fill="white" stroke="#231815" stroke-width="1.65659" stroke-miterlimit="10"/>
<path d="M28.3347 114.98C28.3347 114.98 37.0152 111.551 52.5485 111.324C53.8075 121.877 48.2027 127.99 41.1291 128.57C34.707 129.1 28.7875 125.715 28.3347 114.98Z" fill="#231815"/>
<path d="M40.8861 118.42L36.4133 119.381C34.939 119.696 33.4812 118.751 33.1609 117.283L32.8738 115.935C32.559 114.461 33.5033 113.003 34.9721 112.683L39.4449 111.722C40.9192 111.407 42.377 112.352 42.6973 113.82L42.9845 115.168C43.2992 116.642 42.355 118.105 40.8861 118.42Z" fill="white"/>
<path d="M23.1344 106.301C26.0347 105.785 28.1003 103.762 27.748 101.783C27.3957 99.8048 24.7589 98.6195 21.8586 99.136C18.9582 99.6524 16.8927 101.675 17.245 103.654C17.5973 105.632 20.234 106.818 23.1344 106.301Z" fill="#FFAEE0"/>
<path d="M60.1245 102.71C63.6164 102.71 66.4472 100.703 66.4472 98.2264C66.4472 95.75 63.6164 93.7426 60.1245 93.7426C56.6326 93.7426 53.8019 95.75 53.8019 98.2264C53.8019 100.703 56.6326 102.71 60.1245 102.71Z" fill="#FFAEE0"/>
<path d="M22.3545 98.6075C23.0944 95.4599 27.1641 93.5328 28.3292 97.1883" stroke="#231815" stroke-width="1.65659" stroke-miterlimit="10" stroke-linecap="round"/>
<path d="M50.9471 95.6974C52.8909 90.9761 56.5464 93.3727 56.6569 96.2275" stroke="#231815" stroke-width="1.65659" stroke-miterlimit="10" stroke-linecap="round"/>
<path d="M28.3347 114.98C28.3347 114.98 37.0152 111.551 52.5485 111.324C53.8075 121.877 48.2027 127.99 41.1291 128.57C34.707 129.1 28.7875 125.715 28.3347 114.98Z" stroke="#231815" stroke-width="1.65659" stroke-miterlimit="10" stroke-linecap="round"/>
</svg>
