<svg width="133" height="216" viewBox="0 0 133 216" fill="none" xmlns="http://www.w3.org/2000/svg">
<ellipse cx="66.5" cy="208" rx="66.5" ry="8" fill="#805936"/>
<path d="M39.7286 27.7281C23.6598 28.8013 29.1756 12.2889 37.4181 14.2609C40.7167 7.36074 43.8013 6.37667 46.8781 8.01938C50.943 -0.194183 63.8066 -1.50758 66.1132 5.71803C70.073 2.10329 77.9888 4.07533 77.9888 7.69008C81.9486 7.03144 88.8725 13.9316 82.9366 16.8877C77.0008 19.8438 39.7286 27.7281 39.7286 27.7281Z" fill="#30B72C" stroke="#231815" stroke-width="2" stroke-miterlimit="10"/>
<path d="M21.7656 54.2788C10.2206 50.3347 13.5192 38.181 17.479 38.181C17.479 34.2369 20.1163 32.9235 21.7656 34.5662C21.435 29.9674 27.0441 30.9515 27.0441 30.9515C26.3828 27.666 33.3106 25.0392 34.9598 27.3367C37.2704 20.1111 44.1942 13.5402 50.7914 17.4804C54.4206 5.65212 70.8005 6.42699 74.208 12.5523C81.4625 10.251 86.0836 14.195 86.4103 19.7779C94.9874 15.8339 103.035 17.802 102.145 24.5395C107.851 26.6781 108.508 36.8598 107.851 39.1612C115.767 38.5025 124.344 51.3149 115.436 62.1553C106.532 73.0034 21.7656 54.2788 21.7656 54.2788Z" fill="#30B72C" stroke="#231815" stroke-width="2" stroke-miterlimit="10"/>
<path d="M28.3625 98.6282C12.531 95.3428 10.5511 83.6501 17.1482 80.6281C15.4989 77.2768 15.4989 71.5699 18.1362 69.4933C9.23244 68.7339 8.90181 64.4605 10.8817 62.1631C12.531 58.5483 14.7326 54.2594 17.6539 55.4837C20.4234 50.8888 26.7288 46.751 37.1885 47.6692C37.1885 43.9925 41.4945 38.0183 46.878 38.9365C46.2634 36.3329 49.1847 33.7294 50.725 34.4927C50.1105 30.3549 56.8787 26.221 62.4139 30.8159C67.0272 29.1306 73.6438 32.8073 75.0286 36.8676C77.9498 32.5013 87.4876 33.1134 88.5651 36.8676C97.0254 35.5658 104.047 35.283 105.178 50.2728C113.332 51.191 115.16 55.7084 116.708 60.4235C120.714 59.4665 120.563 63.7128 120.563 63.7128C123.484 64.2165 127.638 77.6952 117.179 77.8502C113.18 79.9966 115.331 81.833 115.486 82.2941C122.255 84.1344 119.026 96.0828 111.947 95.0096C117.175 101.29 110.869 112.63 97.9473 109.565C85.0293 106.501 28.3625 98.6282 28.3625 98.6282Z" fill="#30B72C" stroke="#231815" stroke-width="2" stroke-miterlimit="10"/>
<path d="M49.4455 52.1363L47.1971 83.5455H78.6579L73.2978 56.6886L49.4455 52.1363Z" fill="black"/>
<path d="M46.1429 141.474C38.4255 153.256 25.7525 168.99 33.9639 176.44C42.1753 183.89 55.5407 146.464 55.5407 146.464" fill="white"/>
<path d="M46.1429 141.474C38.4255 153.256 25.7525 168.99 33.9639 176.44C42.1753 183.89 55.5407 146.464 55.5407 146.464" stroke="#231815" stroke-width="2" stroke-miterlimit="10"/>
<path d="M63.6042 191.875C63.6042 191.875 64.4522 207.38 60.9513 207.435C57.4505 207.493 45.8861 208.485 44.2407 206.547C42.5953 204.61 48.0333 199.554 48.0333 199.554L41.9613 185.398C41.9613 185.398 36.6517 178.3 37.278 166.549C37.8537 155.771 51.3591 145.337 50.2816 139.355L82.6448 136.194C82.2325 150.463 82.4153 202.142 79.7858 205.49C77.1563 208.837 65.4207 208.128 64.0593 207.357C62.7018 206.586 65.8253 200.48 65.8253 200.48L62.7368 187.769L58.174 187.528" fill="white"/>
<path d="M63.6042 191.875C63.6042 191.875 64.4522 207.38 60.9513 207.435C57.4505 207.493 45.8861 208.485 44.2407 206.547C42.5953 204.61 48.0333 199.554 48.0333 199.554L41.9613 185.398C41.9613 185.398 36.6517 178.3 37.278 166.549C37.8537 155.771 51.3591 145.337 50.2816 139.355L82.6448 136.194C82.2325 150.463 82.4153 202.142 79.7858 205.49C77.1563 208.837 65.4207 208.128 64.0593 207.357C62.7018 206.586 65.8253 200.48 65.8253 200.48L62.7368 187.769L58.174 187.528" stroke="#231815" stroke-width="2" stroke-miterlimit="10" stroke-linecap="round"/>
<path d="M81.2405 141.73C84.7919 149.242 102.584 168.506 93.6451 174.794C84.7064 181.078 77.1835 169.428 74.6707 156.143" fill="white"/>
<path d="M81.2405 141.73C84.7919 149.242 102.584 168.506 93.6451 174.794C84.7064 181.078 77.1835 169.428 74.6707 156.143" stroke="#231815" stroke-width="2" stroke-miterlimit="10" stroke-linecap="round"/>
<path d="M25.0486 103.886C24.364 118.139 11.5159 128.22 29.1368 143.365C46.7576 158.51 79.1403 153.202 97.0178 133.152C110.687 117.825 107.474 69.4235 67.7237 66.6921C27.9815 63.9607 25.7176 89.9691 25.0486 103.886Z" fill="white" stroke="#231815" stroke-width="2" stroke-miterlimit="10"/>
<path d="M35.9514 123.416C35.5119 125.074 35.9281 128.623 41.8601 125.144C47.1619 127.965 49.4997 125.64 48.8189 123.935" fill="white"/>
<path d="M35.9514 123.416C35.5119 125.074 35.9281 128.623 41.8601 125.144C47.1619 127.965 49.4997 125.64 48.8189 123.935" stroke="#231815" stroke-width="2" stroke-miterlimit="10" stroke-linecap="round"/>
<path d="M31.8905 114.629C33.6177 114.629 35.0179 114.008 35.0179 113.242C35.0179 112.476 33.6177 111.855 31.8905 111.855C30.1632 111.855 28.7631 112.476 28.7631 113.242C28.7631 114.008 30.1632 114.629 31.8905 114.629Z" fill="#FFAEE0"/>
<path d="M54.7667 114.404C56.4939 114.404 57.8941 113.783 57.8941 113.017C57.8941 112.251 56.4939 111.63 54.7667 111.63C53.0395 111.63 51.6393 112.251 51.6393 113.017C51.6393 113.783 53.0395 114.404 54.7667 114.404Z" fill="#FFAEE0"/>
<path d="M34.244 112.855C35.099 112.855 35.7922 112.164 35.7922 111.313C35.7922 110.461 35.099 109.771 34.244 109.771C33.389 109.771 32.6959 110.461 32.6959 111.313C32.6959 112.164 33.389 112.855 34.244 112.855Z" fill="#231815"/>
<path d="M52.4367 112.46C53.2917 112.46 53.9848 111.769 53.9848 110.918C53.9848 110.066 53.2917 109.376 52.4367 109.376C51.5817 109.376 50.8885 110.066 50.8885 110.918C50.8885 111.769 51.5817 112.46 52.4367 112.46Z" fill="#231815"/>
<path d="M28.1135 79.3845C28.8836 80.9148 32.8824 79.8455 32.8824 78.1602C42.8792 82.143 44.7268 76.3199 43.9567 70.3457C49.803 70.5007 47.9554 65.5415 47.9554 65.5415C50.1103 65.5958 50.262 62.8372 50.262 62.8372C51.9541 62.2251 60.5973 58.2423 66.891 59.9276C65.9535 63.9104 73.951 66.2505 76.5649 65.5415C72.1033 68.9664 76.5649 70.8067 76.5649 70.8067C73.3364 72.4921 78.8716 82.7551 84.718 81.6858C81.6411 85.5175 87.4875 90.1125 95.0221 85.9747C93.33 90.1125 100.406 87.6058 100.406 87.6058L109.197 59.5208L37.1923 49.9939L28.1135 79.3845Z" fill="#30B72C"/>
<path d="M28.1135 79.3844C28.8836 80.9148 32.8824 79.8454 32.8824 78.1601C42.8792 82.1429 44.7268 76.3198 43.9567 70.3456C49.803 70.5006 47.9554 65.5415 47.9554 65.5415C50.1103 65.5957 50.262 62.8372 50.262 62.8372C51.9541 62.225 60.5973 58.2422 66.891 59.9275C65.9535 63.9103 73.951 66.2505 76.5649 65.5415C72.1033 68.9664 76.5649 70.8066 76.5649 70.8066C73.3364 72.492 78.8716 82.7551 84.718 81.6858C81.6411 85.5175 87.4875 90.1124 95.0221 85.9746C93.33 90.1124 100.406 87.6057 100.406 87.6057" stroke="#231815" stroke-width="2" stroke-miterlimit="10"/>
</svg>
