<svg width="133" height="217" viewBox="0 0 133 217" fill="none" xmlns="http://www.w3.org/2000/svg">
<ellipse cx="66.5" cy="209" rx="66.5" ry="8" fill="#805936"/>
<path d="M39.8398 27.8572C23.771 28.9356 29.2867 12.3434 37.5292 14.325C40.8278 7.39147 43.9124 6.40265 46.9893 8.05329C51.0541 -0.199952 63.9177 -1.51969 66.2244 5.74083C70.1842 2.10862 78.1 4.09019 78.1 7.7224C82.0598 7.06058 88.9837 13.9941 83.0478 16.9645C77.1081 19.9349 39.8398 27.8572 39.8398 27.8572Z" fill="#30B72C" stroke="#231815" stroke-width="2" stroke-miterlimit="10"/>
<path d="M32.8032 28.9317C34.3091 28.9317 35.5299 27.7099 35.5299 26.2027C35.5299 24.6955 34.3091 23.4737 32.8032 23.4737C31.2972 23.4737 30.0764 24.6955 30.0764 26.2027C30.0764 27.7099 31.2972 28.9317 32.8032 28.9317Z" fill="#D33333" stroke="#231815" stroke-width="2" stroke-miterlimit="10"/>
<path d="M21.8767 54.5362C10.3317 50.5731 13.6303 38.3606 17.5901 38.3606C17.5901 34.3975 20.2274 33.0778 21.8767 34.7284C21.5461 30.1074 27.1552 31.0962 27.1552 31.0962C26.4939 27.7949 33.4216 25.1554 35.0709 27.464C37.3815 20.2035 44.3053 13.6009 50.9024 17.5601C54.5316 5.67464 70.9116 6.45326 74.3191 12.6082C81.5736 10.2957 86.1947 14.2588 86.5214 19.8687C95.0985 15.9056 103.146 17.8832 102.256 24.6532C107.962 26.8022 108.619 37.0331 107.962 39.3456C115.878 38.6837 124.455 51.558 115.547 62.4507C106.64 73.3513 21.8767 54.5362 21.8767 54.5362Z" fill="#30B72C" stroke="#231815" stroke-width="2" stroke-miterlimit="10"/>
<path d="M35.1293 49.3935C37.3184 49.3935 39.093 47.6174 39.093 45.4265C39.093 43.2356 37.3184 41.4595 35.1293 41.4595C32.9402 41.4595 31.1656 43.2356 31.1656 45.4265C31.1656 47.6174 32.9402 49.3935 35.1293 49.3935Z" fill="#D33333" stroke="#231815" stroke-width="2" stroke-miterlimit="10"/>
<path d="M75.9606 24.9842C78.1497 24.9842 79.9243 23.2081 79.9243 21.0172C79.9243 18.8262 78.1497 17.0501 75.9606 17.0501C73.7715 17.0501 71.9969 18.8262 71.9969 21.0172C71.9969 23.2081 73.7715 24.9842 75.9606 24.9842Z" fill="#D33333" stroke="#231815" stroke-width="2" stroke-miterlimit="10"/>
<path d="M45.7874 14.3133C47.2933 14.3133 48.5141 13.0915 48.5141 11.5843C48.5141 10.0771 47.2933 8.85527 45.7874 8.85527C44.2814 8.85527 43.0606 10.0771 43.0606 11.5843C43.0606 13.0915 44.2814 14.3133 45.7874 14.3133Z" fill="#D33333" stroke="#231815" stroke-width="2" stroke-miterlimit="10"/>
<path d="M76.5441 8.50102C77.5881 8.50102 78.4345 7.65391 78.4345 6.60898C78.4345 5.56405 77.5881 4.71697 76.5441 4.71697C75.5 4.71697 74.6536 5.56405 74.6536 6.60898C74.6536 7.65391 75.5 8.50102 76.5441 8.50102Z" fill="#D33333" stroke="#231815" stroke-width="2" stroke-miterlimit="10"/>
<path d="M107.822 61.17C112.456 61.17 116.212 57.4104 116.212 52.7727C116.212 48.135 112.456 44.3754 107.822 44.3754C103.188 44.3754 99.4317 48.135 99.4317 52.7727C99.4317 57.4104 103.188 61.17 107.822 61.17Z" fill="#D33333" stroke="#231815" stroke-width="2" stroke-miterlimit="10"/>
<path d="M28.47 99.0998C12.6384 95.7985 10.6585 84.0494 17.2556 81.0128C15.6063 77.6453 15.6063 71.9108 18.2436 69.8242C9.33985 69.0611 9.00923 64.7671 10.9891 62.4586C12.6384 58.8263 14.84 54.5168 17.7613 55.747C20.5308 51.1298 26.8362 46.972 37.2959 47.8947C37.2959 44.2002 41.6019 38.1971 46.9854 39.1198C46.3709 36.5036 49.2921 33.8875 50.8325 34.6545C50.2179 30.4967 56.9861 26.3428 62.5213 30.96C67.1347 29.2665 73.7512 32.961 75.136 37.0409C78.0572 32.6534 87.595 33.2685 88.6725 37.0409C97.1329 35.7328 104.154 35.4486 105.286 50.5108C113.439 51.4335 115.267 55.9727 116.815 60.7106C120.822 59.749 120.67 64.0158 120.67 64.0158C123.591 64.5219 127.746 78.0657 117.286 78.2215C113.287 80.3782 115.438 82.2235 115.594 82.6868C122.362 84.536 119.134 96.5421 112.054 95.4638C117.282 101.774 110.977 113.169 98.0586 110.09C85.1367 107.011 28.47 99.0998 28.47 99.0998Z" fill="#30B72C" stroke="#231815" stroke-width="2" stroke-miterlimit="10"/>
<path d="M49.5527 52.3834L47.3044 83.9443H78.7652L73.4089 56.9577L49.5527 52.3834Z" fill="black"/>
<path d="M46.2502 142.153C38.5328 153.992 25.8637 169.801 34.0712 177.288C42.2826 184.774 55.6441 147.167 55.6441 147.167" fill="white"/>
<path d="M46.2502 142.153C38.5328 153.992 25.8637 169.801 34.0712 177.288C42.2826 184.774 55.6441 147.167 55.6441 147.167" stroke="#231815" stroke-width="2" stroke-miterlimit="10"/>
<path d="M63.7116 192.798C63.7116 192.798 64.5595 208.377 61.0587 208.432C57.5579 208.49 45.9935 209.487 44.3481 207.54C42.7027 205.594 48.1406 200.514 48.1406 200.514L42.0687 186.288C42.0687 186.288 36.7591 179.156 37.3853 167.349C37.961 156.518 51.4664 146.034 50.389 140.023L82.7522 136.847C82.3399 151.185 82.5227 203.114 79.8932 206.478C77.2636 209.841 65.5281 209.129 64.1667 208.354C62.8052 207.579 65.9326 201.444 65.9326 201.444L62.8441 188.671L58.2814 188.43" fill="white"/>
<path d="M63.7116 192.798C63.7116 192.798 64.5595 208.377 61.0587 208.432C57.5579 208.49 45.9935 209.487 44.3481 207.54C42.7027 205.594 48.1406 200.514 48.1406 200.514L42.0687 186.288C42.0687 186.288 36.7591 179.156 37.3853 167.349C37.961 156.518 51.4664 146.034 50.389 140.023L82.7522 136.847C82.3399 151.185 82.5227 203.114 79.8932 206.478C77.2636 209.841 65.5281 209.129 64.1667 208.354C62.8052 207.579 65.9326 201.444 65.9326 201.444L62.8441 188.671L58.2814 188.43" stroke="#231815" stroke-width="2" stroke-miterlimit="10" stroke-linecap="round"/>
<path d="M81.348 142.41C84.8994 149.959 102.691 169.315 93.7526 175.633C84.8138 181.948 77.2909 170.241 74.7781 156.892" fill="white"/>
<path d="M81.348 142.41C84.8994 149.959 102.691 169.315 93.7526 175.633C84.8138 181.948 77.2909 170.241 74.7781 156.892" stroke="#231815" stroke-width="2" stroke-miterlimit="10" stroke-linecap="round"/>
<path d="M25.1558 104.383C24.4712 118.705 11.6231 128.835 29.244 144.053C46.8648 159.271 79.2475 153.937 97.125 133.791C110.794 118.39 107.581 69.7541 67.8309 67.0095C28.0887 64.2649 25.8248 90.3989 25.1558 104.383Z" fill="white" stroke="#231815" stroke-width="2" stroke-miterlimit="10"/>
<path d="M36.0589 124.008C35.6194 125.674 36.0356 129.24 41.9676 125.744C47.2694 128.578 49.6071 126.242 48.9264 124.529" fill="white"/>
<path d="M36.0589 124.008C35.6194 125.674 36.0356 129.24 41.9676 125.744C47.2694 128.578 49.6071 126.242 48.9264 124.529" stroke="#231815" stroke-width="2" stroke-miterlimit="10" stroke-linecap="round"/>
<path d="M32.0018 115.178C33.7291 115.178 35.1293 114.554 35.1293 113.784C35.1293 113.015 33.7291 112.391 32.0018 112.391C30.2746 112.391 28.8745 113.015 28.8745 113.784C28.8745 114.554 30.2746 115.178 32.0018 115.178Z" fill="#FFAEE0"/>
<path d="M54.8739 114.952C56.6011 114.952 58.0013 114.328 58.0013 113.559C58.0013 112.789 56.6011 112.165 54.8739 112.165C53.1467 112.165 51.7465 112.789 51.7465 113.559C51.7465 114.328 53.1467 114.952 54.8739 114.952Z" fill="#FFAEE0"/>
<path d="M34.3513 113.395C35.2063 113.395 35.8995 112.701 35.8995 111.846C35.8995 110.99 35.2063 110.296 34.3513 110.296C33.4963 110.296 32.8032 110.99 32.8032 111.846C32.8032 112.701 33.4963 113.395 34.3513 113.395Z" fill="#231815"/>
<path d="M52.5439 112.998C53.3989 112.998 54.0921 112.304 54.0921 111.449C54.0921 110.593 53.3989 109.899 52.5439 109.899C51.6889 109.899 50.9958 110.593 50.9958 111.449C50.9958 112.304 51.6889 112.998 52.5439 112.998Z" fill="#231815"/>
<path d="M28.2249 79.7631C28.995 81.3009 32.9937 80.2264 32.9937 78.5329C42.9906 82.535 44.8382 76.6837 44.068 70.6807C49.9144 70.8364 48.0668 65.8533 48.0668 65.8533C50.2217 65.9078 50.3734 63.136 50.3734 63.136C52.0655 62.5209 60.7087 58.5188 67.0024 60.2123C66.0649 64.2143 74.0624 66.5657 76.6763 65.8533C72.2147 69.2948 76.6763 71.1439 76.6763 71.1439C73.4478 72.8374 78.983 83.1501 84.8293 82.0756C81.7525 85.9258 87.5989 90.543 95.1334 86.3852C93.4414 90.543 100.517 88.0242 100.517 88.0242L109.308 59.8035L37.2998 50.2383L28.2249 79.7631Z" fill="#30B72C"/>
<path d="M28.2249 79.7631C28.995 81.3009 32.9937 80.2264 32.9937 78.5329C42.9906 82.535 44.8382 76.6837 44.068 70.6807C49.9144 70.8364 48.0668 65.8533 48.0668 65.8533C50.2217 65.9078 50.3734 63.1359 50.3734 63.1359C52.0655 62.5208 60.7087 58.5188 67.0024 60.2123C66.0649 64.2143 74.0624 66.5657 76.6763 65.8533C72.2147 69.2947 76.6763 71.1439 76.6763 71.1439C73.4478 72.8374 78.983 83.1501 84.8294 82.0756C81.7525 85.9258 87.5989 90.543 95.1335 86.3852C93.4414 90.543 100.517 88.0241 100.517 88.0241" stroke="#231815" stroke-width="2" stroke-miterlimit="10"/>
<path d="M19.9979 84.0805C24.389 84.0805 27.9487 80.5179 27.9487 76.1232C27.9487 71.7284 24.389 68.1658 19.9979 68.1658C15.6068 68.1658 12.0471 71.7284 12.0471 76.1232C12.0471 80.5179 15.6068 84.0805 19.9979 84.0805Z" fill="#D33333" stroke="#231815" stroke-width="2" stroke-miterlimit="10"/>
<path d="M102.614 87.047C106.135 87.047 108.989 84.1903 108.989 80.6663C108.989 77.1424 106.135 74.2856 102.614 74.2856C99.0926 74.2856 96.2382 77.1424 96.2382 80.6663C96.2382 84.1903 99.0926 87.047 102.614 87.047Z" fill="#D33333" stroke="#231815" stroke-width="2" stroke-miterlimit="10"/>
<path d="M72.7632 49.483C77.397 49.483 81.1535 45.7234 81.1535 41.0857C81.1535 36.4481 77.397 32.6885 72.7632 32.6885C68.1293 32.6885 64.3729 36.4481 64.3729 41.0857C64.3729 45.7234 68.1293 49.483 72.7632 49.483Z" fill="#D33333" stroke="#231815" stroke-width="2" stroke-miterlimit="10"/>
</svg>
