<svg width="174" height="177" viewBox="0 0 174 177" fill="none" xmlns="http://www.w3.org/2000/svg">
<path d="M12.3882 77.5738C11.0101 106.381 -14.8534 126.756 20.6178 157.365C56.0891 187.973 121.276 177.246 157.265 136.724C184.78 105.747 178.312 7.92319 98.2945 2.40282C18.2766 -3.11754 13.735 49.4473 12.3882 77.5738Z" fill="white" stroke="#231815" stroke-width="3" stroke-miterlimit="10"/>
<path d="M28.7222 76.9942C28.4246 74.4259 36.3489 80.3613 37.9697 82.2875C39.5906 84.2138 39.8255 86.7977 37.9384 86.3749C36.0513 85.9521 29.1998 81.0503 28.7222 76.9942Z" fill="#231815"/>
<path d="M79.2199 76.4853C80.3475 77.5032 71.0137 87.3459 68.4062 85.0516C66.9107 83.7361 76.2835 73.823 79.2199 76.4853Z" fill="#231815"/>
<path d="M48.157 119.247C50.6079 114.094 57.7256 109.193 63.614 110.414" stroke="#231815" stroke-width="3" stroke-miterlimit="10" stroke-linecap="round"/>
<path d="M64.2796 104.134C63.8333 106.945 63.0972 112.599 66.9419 114.736" stroke="#231815" stroke-width="3" stroke-miterlimit="10" stroke-linecap="round"/>
<path d="M82.814 95.0275C79.6663 100.336 76.7221 103.876 76.9178 107.611C77.1136 111.346 79.9716 124.806 95.7889 123.138C103.259 122.355 106.798 110.954 106.203 106.037C105.616 101.119 101.489 95.8183 98.733 95.0275C95.9846 94.2444 89.1018 96.7971 87.7236 101.119C86.3455 105.442 92.1086 110.226 92.1086 110.226" stroke="#FFAEE0" stroke-width="5" stroke-miterlimit="10"/>
</svg>
