<svg width="174" height="177" viewBox="0 0 174 177" fill="none" xmlns="http://www.w3.org/2000/svg">
<path d="M12.3882 77.5738C11.0101 106.381 -14.8534 126.756 20.6178 157.365C56.0891 187.973 121.276 177.246 157.264 136.724C184.78 105.747 178.312 7.92319 98.2945 2.40282C18.2765 -3.11754 13.735 49.4473 12.3882 77.5738Z" fill="white" stroke="#231815" stroke-width="3" stroke-miterlimit="10"/>
<path d="M68.5549 79.0849C72.0081 79.8993 81.6472 78.6778 83.4795 77.8634" stroke="#231815" stroke-width="5" stroke-miterlimit="10" stroke-linecap="round"/>
<path d="M45.7531 81.9275C41.8928 82.3347 35.5894 83.149 33.9607 84.0651" stroke="#231815" stroke-width="5" stroke-miterlimit="10" stroke-linecap="round"/>
<path d="M85.9461 84.2374C81.6473 87.3304 78.3821 84.9343 77.6852 83.2821C76.9883 81.6299 77.8887 76.3209 83.2838 77.0805C88.6789 77.8322 88.7102 82.2485 85.9461 84.2374Z" fill="white" stroke="#231815" stroke-width="3" stroke-miterlimit="10"/>
<path d="M37.038 88.3483C39.7708 85.2945 36.8736 81.9039 32.8801 82.64C28.8866 83.376 30.1865 87.1268 31.1653 88.3483C32.144 89.5777 35.652 89.8987 37.038 88.3483Z" fill="white" stroke="#231815" stroke-width="3" stroke-miterlimit="10"/>
<path d="M47.147 118.103C48.2041 120.108 51.4223 121.275 50.3183 117.156C49.2064 113.037 45.5653 115.097 47.147 118.103Z" fill="#231815"/>
<path d="M49.0496 91.9738C45.2754 93.4302 34.5792 101.887 38.1498 101.01C41.7126 100.133 50.7801 91.3865 53.0509 91.9738C55.3217 92.5532 44.8839 98.0971 45.2441 99.8432C45.6043 101.589 57.984 92.2086 59.4091 91.9424C60.8342 91.6762 50.0284 100.846 51.2186 101.073C52.4088 101.3 67.6388 89.3506 69.2518 90.2198C70.8727 91.0968 59.5344 98.379 61.7974 99.8432" stroke="#FFAEE0" stroke-width="3" stroke-miterlimit="10" stroke-linecap="round"/>
</svg>
