<svg width="22" height="23" viewBox="0 0 22 23" fill="none" xmlns="http://www.w3.org/2000/svg">
<mask id="mask0_88_1645" style="mask-type:alpha" maskUnits="userSpaceOnUse" x="0" y="0" width="22" height="23">
<rect y="0.320618" width="22" height="22" fill="#D9D9D9"/>
</mask>
<g mask="url(#mask0_88_1645)">
<path d="M4.58333 17.7373H5.86667L13.7729 9.83104L12.4896 8.54771L4.58333 16.454V17.7373ZM17.6917 8.50188L13.7958 4.65188L15.0792 3.36854C15.4306 3.01716 15.8622 2.84146 16.374 2.84146C16.8858 2.84146 17.3174 3.01716 17.6687 3.36854L18.9521 4.65188C19.3035 5.00327 19.4868 5.42722 19.5021 5.92375C19.5174 6.42028 19.3493 6.84424 18.9979 7.19563L17.6917 8.50188ZM16.3625 9.85396L6.64583 19.5706H2.75V15.6748L12.4667 5.95813L16.3625 9.85396Z" fill="#353938"/>
</g>
</svg>
