<svg width="393" height="381" viewBox="0 0 393 381" fill="none" xmlns="http://www.w3.org/2000/svg">
<rect width="393" height="380.781" rx="8" fill="white"/>
<mask id="mask0_79_5802" style="mask-type:alpha" maskUnits="userSpaceOnUse" x="149" y="18" width="21" height="20">
<rect x="149.5" y="18" width="20" height="20" fill="#D9D9D9"/>
</mask>
<g mask="url(#mask0_79_5802)">
<path d="M152.458 28L158.583 34.125C158.792 34.3333 158.892 34.5764 158.885 34.8541C158.878 35.1319 158.771 35.375 158.563 35.5833C158.354 35.7916 158.111 35.8958 157.833 35.8958C157.556 35.8958 157.313 35.7916 157.104 35.5833L150.688 29.1875C150.521 29.0208 150.396 28.8333 150.313 28.625C150.229 28.4166 150.188 28.2083 150.188 28C150.188 27.7916 150.229 27.5833 150.313 27.375C150.396 27.1666 150.521 26.9791 150.688 26.8125L157.104 20.3958C157.313 20.1875 157.559 20.0868 157.844 20.0937C158.128 20.1007 158.375 20.2083 158.583 20.4166C158.792 20.625 158.896 20.868 158.896 21.1458C158.896 21.4236 158.792 21.6666 158.583 21.875L152.458 28Z" fill="#1D1F1E"/>
</g>
<path d="M186.997 36.2127C183.442 36.2127 180.897 34.3439 180.897 31.8142C180.897 29.8543 182.401 28.2666 184.316 27.9703V27.864C182.644 27.5373 181.482 26.1243 181.482 24.4151C181.482 21.9993 183.814 20.2293 186.997 20.2293C190.165 20.2293 192.497 21.9993 192.505 24.4151C192.497 26.1319 191.32 27.5373 189.671 27.864V27.9703C191.571 28.2666 193.09 29.8543 193.097 31.8142C193.09 34.3439 190.537 36.2127 186.997 36.2127ZM184.27 31.5635C184.255 32.8854 185.349 33.8198 186.997 33.8198C188.638 33.8198 189.732 32.893 189.732 31.5635C189.732 30.2113 188.577 29.2238 186.997 29.2238C185.417 29.2238 184.255 30.2113 184.27 31.5635ZM184.642 24.7493C184.642 25.9876 185.622 26.8612 186.997 26.8612C188.365 26.8612 189.352 25.9876 189.352 24.7493C189.352 23.5262 188.38 22.6754 186.997 22.6754C185.6 22.6754 184.642 23.5262 184.642 24.7493ZM211.207 18.4441V29.7783H208.457V29.1402H204.925V27.4993H208.457V18.4441H211.207ZM194.639 25.3343C198.422 25.3343 203.102 25.3039 207.287 24.9164L207.432 26.6181C205.7 26.846 203.93 26.9979 202.19 27.0891V29.8011H199.47V27.1878C197.875 27.2258 196.341 27.2258 194.928 27.2106L194.639 25.3343ZM195.976 21.6499C195.968 19.8874 197.951 18.7175 200.929 18.7099C203.846 18.7175 205.844 19.8874 205.859 21.6499C205.844 23.4655 203.846 24.5822 200.929 24.5746C197.951 24.5822 195.968 23.4655 195.976 21.6499ZM197.442 32.2017V30.3557H211.207V34.9213H200.215V35.9316H211.663V37.846H197.518V33.1512H208.472V32.2017H197.442ZM198.566 21.6499C198.551 22.3715 199.455 22.7742 200.929 22.7742C202.38 22.7742 203.291 22.3715 203.291 21.6499C203.291 20.9282 202.38 20.4952 200.929 20.5028C199.455 20.4952 198.551 20.9282 198.566 21.6499Z" fill="#1D1F1E"/>
<mask id="mask1_79_5802" style="mask-type:alpha" maskUnits="userSpaceOnUse" x="223" y="18" width="21" height="20">
<rect width="20" height="20" transform="matrix(-1 0 0 1 243.5 18)" fill="#D9D9D9"/>
</mask>
<g mask="url(#mask1_79_5802)">
<path d="M240.542 28L234.417 34.125C234.208 34.3333 234.108 34.5764 234.115 34.8541C234.122 35.1319 234.229 35.375 234.437 35.5833C234.646 35.7916 234.889 35.8958 235.167 35.8958C235.444 35.8958 235.687 35.7916 235.896 35.5833L242.312 29.1875C242.479 29.0208 242.604 28.8333 242.687 28.625C242.771 28.4166 242.812 28.2083 242.812 28C242.812 27.7916 242.771 27.5833 242.687 27.375C242.604 27.1666 242.479 26.9791 242.312 26.8125L235.896 20.3958C235.687 20.1875 235.441 20.0868 235.156 20.0937C234.872 20.1007 234.625 20.2083 234.417 20.4166C234.208 20.625 234.104 20.868 234.104 21.1458C234.104 21.4236 234.208 21.6666 234.417 21.875L240.542 28Z" fill="#1D1F1E"/>
</g>
<path d="M42.0787 66.5619H43.6282V69.5675H42.0787V66.5619ZM49.8261 59.58H51.3755V69.5115H49.8261V59.58ZM37.6917 67.0847L37.505 65.9272C40.7533 65.9272 44.879 65.9086 48.482 65.4979L48.5753 66.5059C44.879 67.0473 40.8466 67.0847 37.6917 67.0847ZM40.0626 70.1276H51.3755V73.6372H41.612V75.5414H40.0999V72.6105H49.8447V71.2477H40.0626V70.1276ZM40.0999 75.1493H51.9356V76.2694H40.0999V75.1493ZM46.4658 67.6074H50.3115V68.6155H46.4658V67.6074ZM42.9562 59.8974C45.4577 59.8974 47.1005 60.8681 47.1005 62.4363C47.1005 64.0044 45.4577 64.9751 42.9562 64.9751C40.4359 64.9751 38.7931 64.0044 38.7931 62.4363C38.7931 60.8681 40.4359 59.8974 42.9562 59.8974ZM42.9562 60.9801C41.2947 60.9801 40.2306 61.5402 40.2306 62.4363C40.2306 63.3323 41.2947 63.8924 42.9562 63.8924C44.5803 63.8924 45.6444 63.3323 45.6444 62.4363C45.6444 61.5402 44.5803 60.9801 42.9562 60.9801Z" fill="#1D1F1E"/>
<path d="M92.358 69.6422H93.9074V72.3864H92.358V69.6422ZM99.4519 59.58H101.001V76.4561H99.4519V59.58ZM100.497 66.7486H103.615V68.0554H100.497V66.7486ZM88.0083 73.2452L87.7842 71.9571C90.8085 71.9571 94.9342 71.9197 98.4252 71.4157L98.5558 72.5731C94.9155 73.2265 90.9579 73.2452 88.0083 73.2452ZM88.0643 61.6149H98.1638V62.8656H88.0643V61.6149ZM93.1234 63.855C95.4756 63.855 97.0997 65.0871 97.0997 66.9726C97.0997 68.8768 95.4756 70.0902 93.1234 70.0902C90.7712 70.0902 89.1657 68.8768 89.1657 66.9726C89.1657 65.0871 90.7712 63.855 93.1234 63.855ZM93.1234 65.0498C91.6112 65.0498 90.6218 65.8152 90.6218 66.9726C90.6218 68.1301 91.6112 68.8955 93.1234 68.8955C94.6355 68.8955 95.6436 68.1301 95.6436 66.9726C95.6436 65.8152 94.6355 65.0498 93.1234 65.0498ZM92.358 59.5987H93.9074V62.4549H92.358V59.5987Z" fill="#1D1F1E"/>
<path d="M145.232 60.1774H146.595V61.1108C146.595 64.3404 143.309 66.6553 139.8 67.2527L139.184 66.0019C142.264 65.5352 145.232 63.519 145.232 61.1108V60.1774ZM145.512 60.1774H146.856V61.1108C146.856 63.463 149.862 65.5352 152.905 66.0019L152.289 67.2527C148.816 66.6553 145.512 64.3031 145.512 61.1108V60.1774ZM145.232 70.0342H146.763V76.4561H145.232V70.0342ZM138.418 69.0822H153.67V70.3703H138.418V69.0822Z" fill="#1D1F1E"/>
<path d="M190.788 60.2707H202.139V66.0206H190.788V60.2707ZM200.608 61.5215H192.3V64.7698H200.608V61.5215ZM188.828 68.1301H204.08V69.3809H188.828V68.1301ZM195.698 65.6845H197.229V68.5968H195.698V65.6845ZM190.527 71.117H202.195V76.4561H200.645V72.3864H190.527V71.117Z" fill="#1D1F1E"/>
<path d="M241.217 60.4574H252.082V61.7269H241.217V60.4574ZM239.275 66.674H254.565V67.9434H239.275V66.674ZM251.074 60.4574H252.586V61.7082C252.586 63.1456 252.586 64.7885 252.026 67.122L250.514 67.0473C251.074 64.7325 251.074 63.1083 251.074 61.7082V60.4574ZM241.142 70.2396H252.642V76.2321H241.142V70.2396ZM251.13 71.4717H242.654V74.9813H251.13V71.4717Z" fill="#1D1F1E"/>
<path d="M291.664 68.3354H303.257V69.5862H291.664V68.3354ZM289.704 73.0772H304.993V74.3653H289.704V73.0772ZM296.555 68.9888H298.086V73.6746H296.555V68.9888ZM291.664 60.9428H303.07V62.2122H293.232V68.8021H291.664V60.9428ZM292.728 64.5644H302.716V65.8152H292.728V64.5644Z" fill="#1D1F1E"/>
<path d="M344.856 60.1961C347.376 60.1961 349.224 61.7269 349.224 63.9484C349.224 66.1512 347.376 67.682 344.856 67.682C342.354 67.682 340.506 66.1512 340.506 63.9484C340.506 61.7269 342.354 60.1961 344.856 60.1961ZM344.856 61.4655C343.231 61.4655 341.999 62.4923 341.999 63.9484C341.999 65.4045 343.231 66.4126 344.856 66.4126C346.498 66.4126 347.712 65.4045 347.712 63.9484C347.712 62.4923 346.498 61.4655 344.856 61.4655ZM352.398 59.58H353.966V68.2234H352.398V59.58ZM343.045 69.0448H353.966V73.1518H344.594V75.6907H343.082V71.9944H352.435V70.2956H343.045V69.0448ZM343.082 75H354.526V76.2321H343.082V75Z" fill="#1D1F1E"/>
<path d="M82.4762 105.462C82.233 110.546 77.6686 114.142 83.9285 119.544C90.1885 124.946 101.693 123.052 108.044 115.901C112.9 110.434 111.759 93.1703 97.637 92.196C83.5167 91.2232 82.7125 100.498 82.4762 105.462Z" fill="#AC80E3" stroke="#231815" stroke-width="2.54683" stroke-miterlimit="10"/>
<path d="M86.7628 111.739C86.6067 112.33 86.7545 113.596 88.8619 112.355C90.7455 113.361 91.576 112.532 91.3342 111.924" fill="white"/>
<path d="M86.7628 111.739C86.6067 112.33 86.7545 113.596 88.8619 112.355C90.7455 113.361 91.576 112.532 91.3342 111.924" stroke="#231815" stroke-width="2.54683" stroke-miterlimit="10" stroke-linecap="round"/>
<path d="M85.3214 108.605C85.935 108.605 86.4325 108.383 86.4325 108.11C86.4325 107.837 85.935 107.615 85.3214 107.615C84.7078 107.615 84.2104 107.837 84.2104 108.11C84.2104 108.383 84.7078 108.605 85.3214 108.605Z" fill="#FFAEE0"/>
<path d="M93.447 108.525C94.0606 108.525 94.5581 108.303 94.5581 108.03C94.5581 107.757 94.0606 107.535 93.447 107.535C92.8334 107.535 92.336 107.757 92.336 108.03C92.336 108.303 92.8334 108.525 93.447 108.525Z" fill="#FFAEE0"/>
<path d="M86.1562 107.972C86.46 107.972 86.7062 107.726 86.7062 107.422C86.7062 107.118 86.46 106.872 86.1562 106.872C85.8524 106.872 85.6062 107.118 85.6062 107.422C85.6062 107.726 85.8524 107.972 86.1562 107.972Z" fill="#231815"/>
<path d="M92.6206 107.829C92.9244 107.829 93.1706 107.583 93.1706 107.279C93.1706 106.976 92.9244 106.729 92.6206 106.729C92.3169 106.729 92.0707 106.976 92.0707 107.279C92.0707 107.583 92.3169 107.829 92.6206 107.829Z" fill="#231815"/>
<path d="M97.033 128.465V137.656H95.6238V129.861H95.573L93.3767 131.296V129.963L95.6619 128.465H97.033Z" fill="#1D1F1E"/>
<path d="M132.905 105.462C132.662 110.546 128.097 114.142 134.357 119.544C140.617 124.946 152.121 123.052 158.473 115.901C163.329 110.434 162.187 93.1703 148.066 92.196C133.945 91.2232 133.142 100.498 132.905 105.462Z" fill="#FFE38E" stroke="#231815" stroke-width="2.229" stroke-miterlimit="10"/>
<path d="M137.223 110.639C137.223 110.639 139.395 109.781 143.283 109.724C143.598 112.365 142.195 113.895 140.425 114.04C138.819 114.171 137.338 113.325 137.223 110.639Z" fill="#231815"/>
<path d="M140.364 111.5L139.245 111.74C138.876 111.819 138.511 111.583 138.431 111.215L138.359 110.878C138.28 110.509 138.517 110.144 138.884 110.064L140.004 109.823C140.372 109.745 140.737 109.981 140.817 110.349L140.889 110.686C140.969 111.053 140.733 111.42 140.364 111.5Z" fill="white"/>
<path d="M135.922 108.465C136.648 108.336 137.165 107.83 137.077 107.335C136.989 106.839 136.329 106.543 135.603 106.672C134.877 106.801 134.36 107.307 134.448 107.803C134.536 108.298 135.196 108.594 135.922 108.465Z" fill="#FFAEE0"/>
<path d="M145.18 107.567C146.054 107.567 146.762 107.064 146.762 106.445C146.762 105.825 146.054 105.323 145.18 105.323C144.306 105.323 143.598 105.825 143.598 106.445C143.598 107.064 144.306 107.567 145.18 107.567Z" fill="#FFAEE0"/>
<path d="M135.727 106.542C135.912 105.754 136.93 105.272 137.222 106.186" stroke="#231815" stroke-miterlimit="10" stroke-linecap="round"/>
<path d="M142.883 105.813C143.37 104.632 144.285 105.231 144.312 105.946" stroke="#231815" stroke-miterlimit="10" stroke-linecap="round"/>
<path d="M137.223 110.639C137.223 110.639 139.395 109.781 143.283 109.724C143.598 112.365 142.195 113.895 140.425 114.04C138.819 114.171 137.338 113.325 137.223 110.639Z" stroke="#231815" stroke-width="2.229" stroke-miterlimit="10" stroke-linecap="round"/>
<path d="M143.018 137.656V136.64L146.205 133.428C147.214 132.381 147.715 131.797 147.715 130.991C147.715 130.083 146.979 129.506 146.014 129.506C144.992 129.506 144.345 130.153 144.339 131.131H143.018C143.006 129.448 144.288 128.338 146.04 128.338C147.811 128.338 149.036 129.461 149.048 130.953C149.036 131.981 148.553 132.8 146.827 134.495L144.961 136.386V136.463H149.201V137.656H143.018Z" fill="#1D1F1E"/>
<path d="M183.333 105.462C183.09 110.546 178.526 114.142 184.786 119.544C191.046 124.946 202.55 123.052 208.901 115.901C213.757 110.434 212.616 93.1703 198.494 92.1961C184.374 91.2219 183.57 100.499 183.333 105.462Z" fill="#8FACF5" stroke="#231815" stroke-width="2.13716" stroke-miterlimit="10"/>
<path d="M192.993 105.728C193.602 105.871 195.303 105.656 195.627 105.512" stroke="#231815" stroke-width="2" stroke-miterlimit="10" stroke-linecap="round"/>
<path d="M188.969 106.229C188.287 106.301 187.175 106.445 186.888 106.607" stroke="#231815" stroke-width="2" stroke-miterlimit="10" stroke-linecap="round"/>
<path d="M196.062 106.637C195.303 107.183 194.727 106.76 194.604 106.468C194.481 106.177 194.64 105.24 195.592 105.374C196.543 105.507 196.55 106.287 196.062 106.637Z" fill="white" stroke="#231815" stroke-miterlimit="10"/>
<path d="M187.431 107.364C187.913 106.825 187.402 106.226 186.697 106.356C185.992 106.486 186.221 107.148 186.394 107.364C186.567 107.579 187.185 107.637 187.431 107.364Z" fill="white" stroke="#231815" stroke-miterlimit="10"/>
<path d="M189.215 112.615C189.401 112.969 189.969 113.175 189.774 112.448C189.58 111.721 188.934 112.083 189.215 112.615Z" fill="#231815"/>
<path d="M189.549 108.002C188.883 108.259 186.995 109.752 187.626 109.597C188.254 109.442 189.855 107.899 190.255 108.002C190.656 108.104 188.814 109.083 188.878 109.391C188.941 109.699 191.126 108.044 191.377 107.997C191.627 107.95 189.722 109.568 189.932 109.608C190.142 109.648 192.83 107.539 193.114 107.693C193.4 107.847 191.399 109.133 191.799 109.391" stroke="#FFAEE0" stroke-miterlimit="10" stroke-linecap="round"/>
<path d="M196.519 137.783C194.615 137.783 193.263 136.761 193.206 135.257H194.627C194.678 136.063 195.478 136.577 196.506 136.577C197.617 136.577 198.423 135.974 198.423 135.079C198.423 134.171 197.668 133.524 196.354 133.517H195.567V132.375H196.354C197.401 132.381 198.131 131.797 198.131 130.915C198.131 130.077 197.503 129.506 196.532 129.506C195.611 129.506 194.786 130.02 194.754 130.851H193.409C193.447 129.353 194.831 128.338 196.544 128.338C198.354 128.338 199.49 129.48 199.477 130.839C199.49 131.886 198.842 132.635 197.852 132.883V132.946C199.109 133.124 199.839 133.968 199.833 135.13C199.839 136.66 198.423 137.783 196.519 137.783Z" fill="#1D1F1E"/>
<path d="M233.762 105.462C233.519 110.546 228.954 114.142 235.214 119.544C241.474 124.946 252.979 123.052 259.33 115.901C264.186 110.434 263.044 93.1703 248.923 92.1961C234.804 91.2219 234 100.499 233.762 105.462Z" fill="white" stroke="#231815" stroke-width="1.91608" stroke-miterlimit="10"/>
<path d="M238.867 110.632C238.734 111.229 238.933 112.488 240.988 111.163C242.91 112.091 243.706 111.229 243.441 110.632" stroke="#231815" stroke-width="1.91608" stroke-miterlimit="10"/>
<path d="M237.722 108.798C238.331 108.721 238.796 108.438 238.762 108.167C238.728 107.896 238.206 107.739 237.598 107.816C236.989 107.893 236.523 108.176 236.558 108.447C236.592 108.718 237.113 108.875 237.722 108.798Z" fill="#FFAEE0"/>
<path d="M246.254 107.668C246.274 107.395 245.794 107.138 245.182 107.094C244.57 107.049 244.058 107.234 244.038 107.506C244.018 107.779 244.498 108.036 245.11 108.081C245.722 108.125 246.234 107.94 246.254 107.668Z" fill="#FFAEE0"/>
<path d="M239.19 106.213C239.526 106.548 238.336 106.964 238.062 107.34C237.789 107.716 237.243 107.784 237.243 107.34C237.243 106.897 238.745 105.768 239.19 106.213Z" fill="#231815"/>
<path d="M242.878 105.827C242.577 106.193 243.8 106.493 244.108 106.841C244.416 107.19 244.966 107.205 244.925 106.763C244.882 106.32 243.278 105.343 242.878 105.827Z" fill="#231815"/>
<path d="M243.412 135.866V134.736L247.474 128.465H249.201V134.685H250.458V135.866H249.201V137.656H247.881V135.866H243.412ZM244.885 134.685H247.881V130.128H247.779L244.885 134.609V134.685Z" fill="#1D1F1E"/>
<path d="M284.19 105.461C283.947 110.545 279.383 114.141 285.643 119.543C291.903 124.945 303.407 123.053 309.758 115.902C314.614 110.435 313.473 93.1709 299.351 92.1967C285.231 91.221 284.427 100.498 284.19 105.461Z" fill="#F9A19A" stroke="#231815" stroke-width="2.13658" stroke-miterlimit="10"/>
<path d="M287.092 105.358C287.04 104.905 288.438 105.952 288.724 106.292C289.01 106.632 289.052 107.088 288.719 107.013C288.386 106.939 287.177 106.074 287.092 105.358Z" fill="#231815"/>
<path d="M296.004 105.268C296.203 105.448 294.556 107.185 294.096 106.78C293.832 106.548 295.486 104.798 296.004 105.268Z" fill="#231815"/>
<path d="M290.522 112.815C290.955 111.905 292.211 111.04 293.25 111.256" stroke="#231815" stroke-width="2.13658" stroke-miterlimit="10" stroke-linecap="round"/>
<path d="M293.366 110.149C293.287 110.645 293.158 111.643 293.836 112.02" stroke="#231815" stroke-width="2.13658" stroke-miterlimit="10" stroke-linecap="round"/>
<path d="M296.637 108.54C296.082 109.477 295.562 110.102 295.597 110.761C295.631 111.42 296.136 113.796 298.927 113.501C300.245 113.363 300.87 111.351 300.765 110.483C300.66 109.615 299.933 108.68 299.447 108.54C298.962 108.402 297.747 108.853 297.504 109.615C297.26 110.378 298.278 111.223 298.278 111.223" stroke="#FFAEE0" stroke-width="3.56096" stroke-miterlimit="10"/>
<path d="M297.351 137.783C295.612 137.783 294.304 136.723 294.24 135.256H295.599C295.675 136.037 296.424 136.608 297.351 136.615C298.468 136.608 299.268 135.802 299.268 134.71C299.268 133.593 298.443 132.781 297.287 132.768C296.551 132.768 295.986 133.016 295.675 133.581H294.355L294.951 128.464H300.156V129.658H296.107L295.802 132.235H295.891C296.272 131.867 296.919 131.619 297.617 131.613C299.35 131.619 300.626 132.901 300.626 134.672C300.626 136.481 299.268 137.783 297.351 137.783Z" fill="#1D1F1E"/>
<path d="M334.619 105.462C334.376 110.546 329.811 114.142 336.071 119.544C342.331 124.946 353.836 123.052 360.187 115.901C365.043 110.434 363.901 93.1703 349.78 92.1961C335.661 91.2219 334.857 100.499 334.619 105.462Z" fill="white" stroke="#231815" stroke-width="1.91608" stroke-miterlimit="10"/>
<path d="M347.875 137.783C346.173 137.77 344.396 136.761 344.396 133.365C344.402 130.166 345.786 128.338 347.989 128.338C349.684 128.338 350.858 129.391 351.074 130.851H349.69C349.506 130.102 348.916 129.563 347.989 129.557C346.567 129.563 345.742 130.794 345.742 132.87H345.843C346.345 132.089 347.208 131.632 348.205 131.626C349.842 131.632 351.163 132.889 351.163 134.647C351.163 136.431 349.849 137.796 347.875 137.783ZM345.907 134.685C345.913 135.707 346.732 136.609 347.862 136.615C348.973 136.609 349.804 135.745 349.804 134.673C349.804 133.619 349.004 132.762 347.9 132.768C346.776 132.762 345.92 133.663 345.907 134.685Z" fill="#1D1F1E"/>
<path d="M32.0476 160.993C31.8044 166.077 27.24 169.673 33.5 175.075C39.76 180.477 51.2643 178.584 57.6155 171.432C62.4714 165.965 61.33 148.701 47.2084 147.727C33.0896 146.753 32.2853 156.03 32.0476 160.993Z" fill="white" stroke="#231815" stroke-width="1.91608" stroke-miterlimit="10"/>
<path d="M42.707 193.187L46.8075 185.265V185.189H42.0722V183.996H48.2548V185.24L44.1669 193.187H42.707Z" fill="#1D1F1E"/>
<path d="M82.4762 160.993C82.233 166.077 77.6686 169.673 83.9285 175.075C90.1885 180.477 101.693 178.584 108.044 171.432C112.9 165.965 111.759 148.701 97.637 147.727C83.5181 146.753 82.7139 156.03 82.4762 160.993Z" fill="white" stroke="#231815" stroke-width="1.91608" stroke-miterlimit="10"/>
<path d="M95.6492 193.314C93.6497 193.314 92.2596 192.235 92.2722 190.737C92.2596 189.556 93.1038 188.592 94.1892 188.427V188.376C93.2434 188.16 92.615 187.322 92.615 186.319C92.615 184.904 93.8909 183.869 95.6492 183.869C97.3821 183.869 98.6643 184.904 98.6707 186.319C98.6643 187.322 98.0232 188.16 97.0965 188.376V188.427C98.1692 188.592 99.0198 189.556 99.0262 190.737C99.0198 192.235 97.617 193.314 95.6492 193.314ZM93.6941 190.635C93.6751 191.537 94.4368 192.159 95.6492 192.159C96.8426 192.159 97.6043 191.537 97.6043 190.635C97.6043 189.69 96.7791 188.998 95.6492 188.998C94.5066 188.998 93.6751 189.69 93.6941 190.635ZM93.9734 186.446C93.9798 187.303 94.6653 187.9 95.6492 187.893C96.6077 187.9 97.3059 187.309 97.2996 186.446C97.3059 185.589 96.6331 185.005 95.6492 185.011C94.6399 185.005 93.9798 185.589 93.9734 186.446Z" fill="#1D1F1E"/>
<path d="M132.905 160.993C132.662 166.077 128.097 169.673 134.357 175.075C140.617 180.477 152.121 178.584 158.473 171.432C163.329 165.965 162.187 148.701 148.066 147.727C133.947 146.753 133.142 156.03 132.905 160.993Z" fill="white" stroke="#231815" stroke-width="1.91608" stroke-miterlimit="10"/>
<path d="M145.995 183.869C147.684 183.882 149.455 184.897 149.461 188.261C149.461 191.486 148.071 193.314 145.868 193.314C144.173 193.314 142.993 192.267 142.771 190.775H144.154C144.345 191.55 144.942 192.089 145.868 192.095C147.284 192.089 148.115 190.858 148.128 188.757H148.014C147.519 189.531 146.655 190.001 145.665 190.001C144.015 190.001 142.694 188.738 142.694 186.979C142.694 185.227 143.996 183.856 145.995 183.869ZM144.053 186.954C144.059 188.02 144.853 188.865 145.97 188.858C147.081 188.865 147.938 187.957 147.938 186.941C147.938 185.945 147.119 185.037 145.995 185.037C144.884 185.037 144.047 185.9 144.053 186.954Z" fill="#1D1F1E"/>
<path d="M183.333 160.993C183.09 166.077 178.526 169.673 184.786 175.075C191.046 180.477 202.55 178.584 208.901 171.432C213.757 165.965 212.616 148.701 198.494 147.727C184.375 146.753 183.571 156.03 183.333 160.993Z" fill="white" stroke="#231815" stroke-width="1.91608" stroke-miterlimit="10"/>
<path d="M193.878 183.996V193.187H192.469V185.392H192.418L190.222 186.827V185.494L192.507 183.996H193.878ZM199.414 193.314C197.287 193.314 196.037 191.6 196.037 188.592C196.037 185.602 197.3 183.869 199.414 183.869C201.521 183.869 202.784 185.602 202.791 188.592C202.784 191.6 201.54 193.314 199.414 193.314ZM197.433 188.592C197.427 190.883 198.169 192.108 199.414 192.108C200.651 192.108 201.394 190.883 201.394 188.592C201.394 186.306 200.645 185.056 199.414 185.05C198.176 185.056 197.433 186.306 197.433 188.592Z" fill="#1D1F1E"/>
<path d="M233.762 160.993C233.519 166.077 228.954 169.673 235.214 175.075C241.474 180.477 252.979 178.584 259.33 171.432C264.186 165.965 263.044 148.701 248.923 147.727C234.804 146.753 234 156.03 233.762 160.993Z" fill="white" stroke="#231815" stroke-width="1.91608" stroke-miterlimit="10"/>
<path d="M245.405 183.996V193.187H243.996V185.392H243.945L241.749 186.827V185.494L244.034 183.996H245.405ZM251.232 183.996V193.187H249.823V185.392H249.772L247.576 186.827V185.494L249.861 183.996H251.232Z" fill="#1D1F1E"/>
<path d="M284.19 160.993C283.947 166.077 279.383 169.673 285.643 175.075C291.903 180.477 303.407 178.584 309.758 171.432C314.614 165.965 313.473 148.701 299.351 147.727C285.232 146.753 284.428 156.03 284.19 160.993Z" fill="white" stroke="#231815" stroke-width="1.91608" stroke-miterlimit="10"/>
<path d="M294.882 183.996V193.187H293.472V185.392H293.422L291.225 186.827V185.494L293.51 183.996H294.882ZM297.217 193.187V192.172L300.404 188.96C301.413 187.912 301.915 187.328 301.915 186.522C301.915 185.615 301.178 185.037 300.214 185.037C299.192 185.037 298.544 185.684 298.538 186.662H297.217C297.205 184.98 298.487 183.869 300.239 183.869C302.01 183.869 303.235 184.992 303.248 186.484C303.235 187.512 302.753 188.331 301.026 190.026L299.16 191.918V191.994H303.4V193.187H297.217Z" fill="#1D1F1E"/>
<path d="M334.619 160.993C334.376 166.077 329.811 169.673 336.071 175.075C342.331 180.477 353.836 178.584 360.187 171.432C365.043 165.965 363.901 148.701 349.78 147.727C335.661 146.753 334.857 156.03 334.619 160.993Z" fill="white" stroke="#231815" stroke-width="1.91608" stroke-miterlimit="10"/>
<path d="M345.12 183.996V193.187H343.711V185.392H343.66L341.463 186.827V185.494L343.749 183.996H345.12ZM350.718 193.314C348.814 193.314 347.462 192.292 347.405 190.788H348.827C348.878 191.594 349.677 192.108 350.706 192.108C351.816 192.108 352.623 191.505 352.623 190.61C352.623 189.702 351.867 189.055 350.553 189.049H349.766V187.906H350.553C351.601 187.912 352.331 187.328 352.331 186.446C352.331 185.608 351.702 185.037 350.731 185.037C349.811 185.037 348.985 185.551 348.954 186.383H347.608C347.646 184.885 349.03 183.869 350.744 183.869C352.553 183.869 353.689 185.011 353.676 186.37C353.689 187.417 353.042 188.166 352.051 188.414V188.477C353.308 188.655 354.038 189.499 354.032 190.661C354.038 192.191 352.623 193.314 350.718 193.314Z" fill="#1D1F1E"/>
<path d="M32.0476 216.525C31.8044 221.609 27.24 225.204 33.5 230.606C39.76 236.008 51.2643 234.115 57.6155 226.963C62.4714 221.497 61.33 204.233 47.2084 203.258C33.0896 202.284 32.2853 211.561 32.0476 216.525Z" fill="white" stroke="#231815" stroke-width="1.91608" stroke-miterlimit="10"/>
<path d="M42.4784 239.527V248.718H41.0693V240.923H41.0185L38.8222 242.358V241.025L41.1074 239.527H42.4784ZM44.6113 246.928V245.798L48.6738 239.527H50.4003V245.748H51.6572V246.928H50.4003V248.718H49.08V246.928H44.6113ZM46.0839 245.748H49.08V241.19H48.9784L46.0839 245.672V245.748Z" fill="#1D1F1E"/>
<path d="M82.4762 216.525C82.233 221.609 77.6686 225.204 83.9285 230.606C90.1885 236.008 101.693 234.115 108.044 226.963C112.9 221.497 111.759 204.233 97.637 203.258C83.5181 202.284 82.7139 211.561 82.4762 216.525Z" fill="white" stroke="#231815" stroke-width="1.91608" stroke-miterlimit="10"/>
<path d="M93.0911 239.527V248.718H91.6819V240.923H91.6311L89.4348 242.358V241.025L91.72 239.527H93.0911ZM98.5501 248.845C96.8108 248.845 95.5032 247.785 95.4397 246.319H96.7981C96.8743 247.1 97.6233 247.671 98.5501 247.677C99.6673 247.671 100.467 246.865 100.467 245.773C100.467 244.656 99.6419 243.843 98.4866 243.831C97.7503 243.831 97.1853 244.078 96.8743 244.643H95.554L96.1507 239.527H101.356V240.72H97.3059L97.0013 243.297H97.0901C97.471 242.929 98.1184 242.682 98.8167 242.675C100.55 242.682 101.825 243.964 101.825 245.735C101.825 247.544 100.467 248.845 98.5501 248.845Z" fill="#1D1F1E"/>
<path d="M132.905 216.525C132.662 221.609 128.097 225.204 134.357 230.606C140.617 236.008 152.121 234.115 158.473 226.963C163.329 221.497 162.187 204.233 148.066 203.258C133.947 202.284 133.142 211.561 132.905 216.525Z" fill="white" stroke="#231815" stroke-width="1.91608" stroke-miterlimit="10"/>
<path d="M143.412 239.527V248.718H142.003V240.923H141.952L139.756 242.358V241.025L142.041 239.527H143.412ZM149.074 248.845C147.373 248.833 145.595 247.823 145.595 244.427C145.602 241.228 146.985 239.4 149.188 239.4C150.883 239.4 152.057 240.454 152.273 241.914H150.889C150.705 241.165 150.115 240.625 149.188 240.619C147.766 240.625 146.941 241.857 146.941 243.932H147.043C147.544 243.151 148.407 242.694 149.404 242.688C151.042 242.694 152.362 243.951 152.362 245.71C152.362 247.493 151.048 248.858 149.074 248.845ZM147.106 245.748C147.112 246.77 147.931 247.671 149.061 247.677C150.172 247.671 151.004 246.808 151.004 245.735C151.004 244.681 150.204 243.824 149.099 243.831C147.976 243.824 147.119 244.726 147.106 245.748Z" fill="#1D1F1E"/>
<path d="M183.333 216.525C183.09 221.609 178.526 225.204 184.786 230.606C191.046 236.008 202.55 234.115 208.901 226.963C213.757 221.497 212.616 204.233 198.494 203.258C184.375 202.284 183.571 211.561 183.333 216.525Z" fill="white" stroke="#231815" stroke-width="1.91608" stroke-miterlimit="10"/>
<path d="M194.253 239.527V248.718H192.844V240.923H192.793L190.597 242.358V241.025L192.882 239.527H194.253ZM196.906 248.718L201.007 240.797V240.72H196.271V239.527H202.454V240.771L198.366 248.718H196.906Z" fill="#1D1F1E"/>
<path d="M233.762 216.525C233.519 221.609 228.954 225.204 235.214 230.606C241.474 236.008 252.979 234.115 259.33 226.963C264.186 221.497 263.044 204.233 248.923 203.258C234.804 202.284 234 211.561 233.762 216.525Z" fill="white" stroke="#231815" stroke-width="1.91608" stroke-miterlimit="10"/>
<path d="M244.301 239.527V248.718H242.891V240.923H242.841L240.644 242.358V241.025L242.93 239.527H244.301ZM249.849 248.845C247.849 248.845 246.459 247.766 246.472 246.268C246.459 245.088 247.303 244.123 248.389 243.958V243.907C247.443 243.691 246.814 242.853 246.814 241.85C246.814 240.435 248.09 239.4 249.849 239.4C251.581 239.4 252.864 240.435 252.87 241.85C252.864 242.853 252.223 243.691 251.296 243.907V243.958C252.369 244.123 253.219 245.088 253.225 246.268C253.219 247.766 251.816 248.845 249.849 248.845ZM247.893 246.167C247.874 247.068 248.636 247.69 249.849 247.69C251.042 247.69 251.804 247.068 251.804 246.167C251.804 245.221 250.978 244.529 249.849 244.529C248.706 244.529 247.874 245.221 247.893 246.167ZM248.173 241.977C248.179 242.834 248.865 243.431 249.849 243.424C250.807 243.431 251.505 242.84 251.499 241.977C251.505 241.12 250.832 240.536 249.849 240.543C248.839 240.536 248.179 241.12 248.173 241.977Z" fill="#1D1F1E"/>
<path d="M284.19 216.525C283.947 221.609 279.383 225.204 285.643 230.606C291.903 236.008 303.407 234.115 309.758 226.963C314.614 221.497 313.473 204.233 299.351 203.258C285.232 202.284 284.428 211.561 284.19 216.525Z" fill="white" stroke="#231815" stroke-width="1.91608" stroke-miterlimit="10"/>
<path d="M294.697 239.527V248.718H293.288V240.923H293.238L291.041 242.358V241.025L293.326 239.527H294.697ZM300.195 239.4C301.883 239.413 303.654 240.428 303.66 243.793C303.66 247.017 302.27 248.845 300.068 248.845C298.373 248.845 297.192 247.798 296.97 246.306H298.354C298.544 247.081 299.141 247.62 300.068 247.627C301.483 247.62 302.315 246.389 302.327 244.288H302.213C301.718 245.062 300.855 245.532 299.864 245.532C298.214 245.532 296.894 244.269 296.894 242.51C296.894 240.758 298.195 239.387 300.195 239.4ZM298.252 242.485C298.259 243.551 299.052 244.396 300.169 244.389C301.28 244.396 302.137 243.488 302.137 242.472C302.137 241.476 301.318 240.568 300.195 240.568C299.084 240.568 298.246 241.431 298.252 242.485Z" fill="#1D1F1E"/>
<path d="M334.619 216.525C334.376 221.609 329.811 225.204 336.071 230.606C342.331 236.008 353.836 234.115 360.187 226.963C365.043 221.497 363.901 204.233 349.78 203.258C335.661 202.284 334.857 211.561 334.619 216.525Z" fill="white" stroke="#231815" stroke-width="1.91608" stroke-miterlimit="10"/>
<path d="M340.721 248.718V247.703L343.907 244.491C344.917 243.443 345.418 242.859 345.418 242.053C345.418 241.146 344.682 240.568 343.717 240.568C342.695 240.568 342.047 241.215 342.041 242.193H340.721C340.708 240.511 341.99 239.4 343.742 239.4C345.513 239.4 346.738 240.524 346.751 242.015C346.738 243.044 346.256 243.862 344.529 245.557L342.663 247.449V247.525H346.903V248.718H340.721ZM351.651 248.845C349.525 248.845 348.275 247.131 348.275 244.123C348.275 241.133 349.538 239.4 351.651 239.4C353.759 239.4 355.022 241.133 355.028 244.123C355.022 247.131 353.778 248.845 351.651 248.845ZM349.671 244.123C349.665 246.414 350.407 247.639 351.651 247.639C352.889 247.639 353.632 246.414 353.632 244.123C353.632 241.838 352.883 240.587 351.651 240.581C350.414 240.587 349.671 241.838 349.671 244.123Z" fill="#1D1F1E"/>
<path d="M32.0476 272.056C31.8044 277.14 27.24 280.736 33.5 286.137C39.76 291.539 51.2643 289.646 57.6155 282.495C62.4715 277.028 61.33 259.764 47.2084 258.79C33.0896 257.815 32.2853 267.092 32.0476 272.056Z" fill="white" stroke="#231815" stroke-width="1.91608" stroke-miterlimit="10"/>
<path d="M39.2475 304.25V303.234L42.434 300.022C43.4433 298.975 43.9448 298.391 43.9448 297.585C43.9448 296.677 43.2084 296.099 42.2436 296.099C41.2216 296.099 40.5741 296.747 40.5678 297.724H39.2475C39.2348 296.042 40.517 294.931 42.269 294.931C44.04 294.931 45.2651 296.055 45.2778 297.547C45.2651 298.575 44.7826 299.394 43.0561 301.089L41.1899 302.98V303.056H45.4301V304.25H39.2475ZM50.4701 295.058V304.25H49.061V296.455H49.0102L46.8139 297.889V296.556L49.0991 295.058H50.4701Z" fill="#1D1F1E"/>
<path d="M82.4762 272.056C82.233 277.14 77.6686 280.736 83.9285 286.137C90.1885 291.539 101.693 289.646 108.044 282.495C112.9 277.028 111.759 259.764 97.637 258.79C83.5181 257.815 82.7139 267.092 82.4762 272.056Z" fill="white" stroke="#231815" stroke-width="1.91608" stroke-miterlimit="10"/>
<path d="M88.7239 304.25V303.234L91.9104 300.022C92.9197 298.975 93.4212 298.391 93.4212 297.585C93.4212 296.677 92.6848 296.099 91.72 296.099C90.698 296.099 90.0506 296.747 90.0442 297.724H88.7239C88.7112 296.042 89.9934 294.931 91.7454 294.931C93.5164 294.931 94.7415 296.055 94.7542 297.547C94.7415 298.575 94.2591 299.394 92.5325 301.089L90.6663 302.98V303.056H94.9065V304.25H88.7239ZM96.4554 304.25V303.234L99.6419 300.022C100.651 298.975 101.153 298.391 101.153 297.585C101.153 296.677 100.416 296.099 99.4514 296.099C98.4295 296.099 97.782 296.747 97.7757 297.724H96.4554C96.4427 296.042 97.7249 294.931 99.4768 294.931C101.248 294.931 102.473 296.055 102.486 297.547C102.473 298.575 101.991 299.394 100.264 301.089L98.3977 302.98V303.056H102.638V304.25H96.4554Z" fill="#1D1F1E"/>
<path d="M132.905 272.056C132.662 277.14 128.097 280.736 134.357 286.137C140.617 291.539 152.121 289.646 158.473 282.495C163.329 277.028 162.187 259.764 148.066 258.79C133.947 257.815 133.142 267.092 132.905 272.056Z" fill="white" stroke="#231815" stroke-width="1.91608" stroke-miterlimit="10"/>
<path d="M138.962 304.25V303.234L142.149 300.022C143.158 298.975 143.659 298.391 143.659 297.585C143.659 296.677 142.923 296.099 141.958 296.099C140.936 296.099 140.289 296.747 140.282 297.724H138.962C138.949 296.042 140.232 294.931 141.984 294.931C143.755 294.931 144.98 296.055 144.992 297.547C144.98 298.575 144.497 299.394 142.771 301.089L140.904 302.98V303.056H145.145V304.25H138.962ZM149.956 304.377C148.052 304.377 146.7 303.355 146.643 301.85H148.065C148.115 302.656 148.915 303.171 149.944 303.171C151.054 303.171 151.86 302.568 151.86 301.672C151.86 300.765 151.105 300.117 149.791 300.111H149.004V298.968H149.791C150.839 298.975 151.569 298.391 151.569 297.508C151.569 296.671 150.94 296.099 149.969 296.099C149.048 296.099 148.223 296.613 148.192 297.445H146.846C146.884 295.947 148.268 294.931 149.982 294.931C151.791 294.931 152.927 296.074 152.914 297.432C152.927 298.48 152.279 299.229 151.289 299.476V299.54C152.546 299.717 153.276 300.562 153.27 301.723C153.276 303.253 151.86 304.377 149.956 304.377Z" fill="#1D1F1E"/>
<path d="M183.333 272.056C183.09 277.14 178.526 280.736 184.786 286.137C191.046 291.539 202.55 289.646 208.901 282.495C213.757 277.028 212.616 259.764 198.494 258.79C184.375 257.815 183.571 267.092 183.333 272.056Z" fill="white" stroke="#231815" stroke-width="1.91608" stroke-miterlimit="10"/>
<path d="M189.422 304.25V303.234L192.609 300.022C193.618 298.975 194.12 298.391 194.12 297.585C194.12 296.677 193.383 296.099 192.418 296.099C191.396 296.099 190.749 296.747 190.743 297.724H189.422C189.41 296.042 190.692 294.931 192.444 294.931C194.215 294.931 195.44 296.055 195.453 297.547C195.44 298.575 194.958 299.394 193.231 301.089L191.365 302.98V303.056H195.605V304.25H189.422ZM196.748 302.46V301.33L200.81 295.058H202.537V301.279H203.793V302.46H202.537V304.25H201.216V302.46H196.748ZM198.22 301.279H201.216V296.721H201.115L198.22 301.203V301.279Z" fill="#1D1F1E"/>
<path d="M233.762 272.056C233.519 277.14 228.954 280.736 235.214 286.137C241.474 291.539 252.979 289.646 259.33 282.495C264.186 277.028 263.044 259.764 248.923 258.79C234.804 257.815 234 267.092 233.762 272.056Z" fill="white" stroke="#231815" stroke-width="1.91608" stroke-miterlimit="10"/>
<path d="M239.933 304.25L239.929 303.235L243.116 300.017C244.126 298.971 244.629 298.392 244.633 297.584C244.629 296.677 243.893 296.102 242.928 296.102C241.909 296.102 241.258 296.744 241.258 297.727H239.929C239.924 296.044 241.204 294.931 242.955 294.931C244.728 294.931 245.953 296.053 245.962 297.543C245.953 298.571 245.468 299.393 243.745 301.085L241.877 302.984V303.051H246.11V304.25H239.933ZM250.794 304.375C249.048 304.375 247.741 303.316 247.683 301.848H249.043C249.11 302.634 249.86 303.204 250.794 303.204C251.907 303.204 252.706 302.4 252.706 301.305C252.706 300.187 251.88 299.375 250.731 299.366C249.986 299.361 249.425 299.608 249.106 300.174H247.791L248.392 295.056H253.599V296.255H249.55L249.236 298.822H249.326C249.712 298.463 250.354 298.212 251.054 298.212C252.787 298.212 254.066 299.491 254.062 301.273C254.066 303.078 252.702 304.375 250.794 304.375Z" fill="#1D1F1E"/>
<path d="M284.19 272.056C283.947 277.14 279.383 280.736 285.643 286.137C291.903 291.539 303.407 289.646 309.758 282.495C314.614 277.028 313.473 259.764 299.351 258.79C285.232 257.815 284.428 267.092 284.19 272.056Z" fill="white" stroke="#231815" stroke-width="1.91608" stroke-miterlimit="10"/>
<path d="M290.254 304.25V303.234L293.441 300.022C294.45 298.975 294.951 298.391 294.951 297.585C294.951 296.677 294.215 296.099 293.25 296.099C292.228 296.099 291.581 296.747 291.574 297.724H290.254C290.241 296.042 291.524 294.931 293.276 294.931C295.047 294.931 296.272 296.055 296.284 297.547C296.272 298.575 295.789 299.394 294.063 301.089L292.197 302.98V303.056H296.437V304.25H290.254ZM301.312 304.377C299.611 304.364 297.833 303.355 297.833 299.959C297.84 296.759 299.223 294.931 301.426 294.931C303.121 294.931 304.295 295.985 304.511 297.445H303.127C302.943 296.696 302.353 296.156 301.426 296.15C300.004 296.156 299.179 297.388 299.179 299.464H299.28C299.782 298.683 300.645 298.226 301.642 298.219C303.28 298.226 304.6 299.483 304.6 301.241C304.6 303.025 303.286 304.389 301.312 304.377ZM299.344 301.279C299.35 302.301 300.169 303.202 301.299 303.209C302.41 303.202 303.241 302.339 303.241 301.266C303.241 300.213 302.442 299.356 301.337 299.362C300.214 299.356 299.357 300.257 299.344 301.279Z" fill="#1D1F1E"/>
<path d="M334.619 272.056C334.376 277.14 329.811 280.736 336.071 286.137C342.331 291.539 353.836 289.646 360.187 282.495C365.043 277.028 363.901 259.764 349.78 258.79C335.661 257.815 334.857 267.092 334.619 272.056Z" fill="white" stroke="#231815" stroke-width="1.91608" stroke-miterlimit="10"/>
<path d="M341.095 304.25V303.234L344.282 300.022C345.291 298.975 345.793 298.391 345.793 297.585C345.793 296.677 345.056 296.099 344.091 296.099C343.069 296.099 342.422 296.747 342.416 297.724H341.095C341.083 296.042 342.365 294.931 344.117 294.931C345.888 294.931 347.113 296.055 347.126 297.547C347.113 298.575 346.63 299.394 344.904 301.089L343.038 302.98V303.056H347.278V304.25H341.095ZM349.144 304.25L353.245 296.328V296.252H348.509V295.058H354.692V296.302L350.604 304.25H349.144Z" fill="#1D1F1E"/>
<path d="M32.0476 329.087C31.8044 334.171 27.24 337.767 33.5 343.168C39.76 348.57 51.2643 346.677 57.6155 339.526C62.4714 334.059 61.33 316.795 47.2084 315.821C33.0896 314.846 32.2853 324.123 32.0476 329.087Z" fill="white" stroke="#231815" stroke-width="1.91608" stroke-miterlimit="10"/>
<path d="M38.143 361.281V360.265L41.3295 357.053C42.3388 356.006 42.8403 355.422 42.8403 354.616C42.8403 353.708 42.1039 353.13 41.1391 353.13C40.1171 353.13 39.4697 353.778 39.4633 354.755H38.143C38.1303 353.073 39.4125 351.962 41.1645 351.962C42.9355 351.962 44.1606 353.086 44.1733 354.578C44.1606 355.606 43.6782 356.425 41.9516 358.12L40.0854 360.011V360.087H44.3256V361.281H38.143ZM49.0864 361.408C47.0868 361.408 45.6967 360.328 45.7094 358.83C45.6967 357.65 46.5409 356.685 47.6264 356.52V356.469C46.6806 356.253 46.0522 355.415 46.0522 354.412C46.0522 352.997 47.3281 351.962 49.0864 351.962C50.8193 351.962 52.1015 352.997 52.1078 354.412C52.1015 355.415 51.4604 356.253 50.5336 356.469V356.52C51.6064 356.685 52.457 357.65 52.4633 358.83C52.457 360.328 51.0541 361.408 49.0864 361.408ZM47.1313 358.729C47.1122 359.63 47.874 360.252 49.0864 360.252C50.2797 360.252 51.0414 359.63 51.0414 358.729C51.0414 357.783 50.2162 357.091 49.0864 357.091C47.9438 357.091 47.1122 357.783 47.1313 358.729ZM47.4106 354.539C47.4169 355.396 48.1025 355.993 49.0864 355.987C50.0449 355.993 50.7431 355.403 50.7367 354.539C50.7431 353.682 50.0702 353.099 49.0864 353.105C48.0771 353.099 47.4169 353.682 47.4106 354.539Z" fill="#1D1F1E"/>
<path d="M82.4762 329.087C82.233 334.171 77.6686 337.767 83.9285 343.168C90.1885 348.57 101.693 346.677 108.044 339.526C112.9 334.059 111.759 316.795 97.637 315.821C83.5181 314.846 82.7139 324.123 82.4762 329.087Z" fill="white" stroke="#231815" stroke-width="1.91608" stroke-miterlimit="10"/>
<path d="M88.5398 361.281V360.265L91.7263 357.053C92.7356 356.006 93.2371 355.422 93.2371 354.616C93.2371 353.708 92.5008 353.13 91.5359 353.13C90.5139 353.13 89.8665 353.778 89.8601 354.755H88.5398C88.5271 353.073 89.8094 351.962 91.5613 351.962C93.3323 351.962 94.5574 353.086 94.5701 354.578C94.5574 355.606 94.075 356.425 92.3484 358.12L90.4822 360.011V360.087H94.7224V361.281H88.5398ZM99.4324 351.962C101.121 351.975 102.892 352.991 102.898 356.355C102.898 359.579 101.508 361.408 99.3055 361.408C97.6106 361.408 96.43 360.36 96.2078 358.869H97.5916C97.782 359.643 98.3787 360.182 99.3055 360.189C100.721 360.182 101.553 358.951 101.565 356.85H101.451C100.956 357.624 100.093 358.094 99.1023 358.094C97.4519 358.094 96.1316 356.831 96.1316 355.073C96.1316 353.321 97.4329 351.95 99.4324 351.962ZM97.49 355.047C97.4964 356.114 98.2898 356.958 99.407 356.952C100.518 356.958 101.375 356.05 101.375 355.035C101.375 354.038 100.556 353.13 99.4324 353.13C98.3216 353.13 97.4837 353.994 97.49 355.047Z" fill="#1D1F1E"/>
<path d="M132.905 329.087C132.662 334.171 128.097 337.767 134.357 343.168C140.617 348.57 152.121 346.677 158.473 339.526C163.329 334.059 162.187 316.795 148.066 315.821C133.947 314.846 133.142 324.123 132.905 329.087Z" fill="white" stroke="#231815" stroke-width="1.91608" stroke-miterlimit="10"/>
<path d="M142.079 361.408C140.174 361.408 138.822 360.386 138.765 358.881H140.187C140.238 359.687 141.038 360.202 142.066 360.202C143.177 360.202 143.983 359.599 143.983 358.703C143.983 357.796 143.228 357.148 141.914 357.142H141.127V355.999H141.914C142.961 356.006 143.691 355.422 143.691 354.539C143.691 353.702 143.063 353.13 142.091 353.13C141.171 353.13 140.346 353.644 140.314 354.476H138.968C139.006 352.978 140.39 351.962 142.104 351.962C143.913 351.962 145.049 353.105 145.037 354.463C145.049 355.511 144.402 356.26 143.412 356.507V356.571C144.669 356.748 145.399 357.593 145.392 358.754C145.399 360.284 143.983 361.408 142.079 361.408ZM150.128 361.408C148.001 361.408 146.751 359.694 146.751 356.685C146.751 353.695 148.014 351.962 150.128 351.962C152.235 351.962 153.498 353.695 153.505 356.685C153.498 359.694 152.254 361.408 150.128 361.408ZM148.147 356.685C148.141 358.976 148.883 360.202 150.128 360.202C151.365 360.202 152.108 358.976 152.108 356.685C152.108 354.4 151.359 353.149 150.128 353.143C148.89 353.149 148.147 354.4 148.147 356.685Z" fill="#1D1F1E"/>
<path d="M183.333 329.087C183.09 334.171 178.526 337.767 184.786 343.168C191.046 348.57 202.55 346.677 208.901 339.526C213.757 334.059 212.616 316.795 198.494 315.821C184.375 314.846 183.571 324.123 183.333 329.087Z" fill="white" stroke="#231815" stroke-width="1.91608" stroke-miterlimit="10"/>
<path d="M193.605 361.408C191.701 361.408 190.349 360.386 190.292 358.881H191.714C191.765 359.687 192.564 360.202 193.593 360.202C194.704 360.202 195.51 359.599 195.51 358.703C195.51 357.796 194.754 357.148 193.44 357.142H192.653V355.999H193.44C194.488 356.006 195.218 355.422 195.218 354.539C195.218 353.702 194.589 353.13 193.618 353.13C192.698 353.13 191.873 353.644 191.841 354.476H190.495C190.533 352.978 191.917 351.962 193.631 351.962C195.44 351.962 196.576 353.105 196.563 354.463C196.576 355.511 195.929 356.26 194.938 356.507V356.571C196.195 356.748 196.925 357.593 196.919 358.754C196.925 360.284 195.51 361.408 193.605 361.408ZM201.946 352.089V361.281H200.537V353.486H200.486L198.29 354.92V353.587L200.575 352.089H201.946Z" fill="#1D1F1E"/>
</svg>
