<svg width="174" height="177" viewBox="0 0 174 177" fill="none" xmlns="http://www.w3.org/2000/svg">
<path d="M12.3882 77.5738C11.0101 106.381 -14.8534 126.756 20.6178 157.365C56.097 187.973 121.276 177.246 157.264 136.724C184.78 105.747 178.312 7.92319 98.2945 2.40282C18.2766 -3.11754 13.735 49.4473 12.3882 77.5738Z" fill="white" stroke="#231815" stroke-width="3" stroke-miterlimit="10"/>
<path d="M36.6857 113.139C35.8009 116.49 36.6387 123.663 48.58 116.631C59.2527 122.332 63.9587 117.634 62.5884 114.188" fill="white"/>
<path d="M36.6857 113.139C35.8009 116.49 36.6387 123.663 48.58 116.631C59.2527 122.332 63.9587 117.634 62.5884 114.188" stroke="#231815" stroke-width="3" stroke-miterlimit="10" stroke-linecap="round"/>
<path d="M28.5108 95.3799C31.9878 95.3799 34.8064 94.1248 34.8064 92.5767C34.8064 91.0285 31.9878 89.7734 28.5108 89.7734C25.0339 89.7734 22.2152 91.0285 22.2152 92.5767C22.2152 94.1248 25.0339 95.3799 28.5108 95.3799Z" fill="#FFAEE0"/>
<path d="M74.5608 94.9257C78.0377 94.9257 80.8564 93.6707 80.8564 92.1225C80.8564 90.5743 78.0377 89.3192 74.5608 89.3192C71.0838 89.3192 68.2653 90.5743 68.2653 92.1225C68.2653 93.6707 71.0838 94.9257 74.5608 94.9257Z" fill="#FFAEE0"/>
<path d="M33.2482 91.7936C34.9694 91.7936 36.3647 90.3983 36.3647 88.6771C36.3647 86.9559 34.9694 85.5607 33.2482 85.5607C31.527 85.5607 30.1317 86.9559 30.1317 88.6771C30.1317 90.3983 31.527 91.7936 33.2482 91.7936Z" fill="#231815"/>
<path d="M69.8705 90.9949C71.5917 90.9949 72.9869 89.5996 72.9869 87.8784C72.9869 86.1572 71.5917 84.762 69.8705 84.762C68.1493 84.762 66.754 86.1572 66.754 87.8784C66.754 89.5996 68.1493 90.9949 69.8705 90.9949Z" fill="#231815"/>
</svg>
