<svg width="120" height="132" viewBox="0 0 120 132" fill="none" xmlns="http://www.w3.org/2000/svg">
<rect width="120" height="132" rx="8" fill="#EEF1F0"/>
<mask id="mask0_79_7842" style="mask-type:alpha" maskUnits="userSpaceOnUse" x="0" y="0" width="120" height="132">
<rect width="120" height="132" rx="8" fill="#EEF1F0"/>
</mask>
<g mask="url(#mask0_79_7842)">
<path d="M28.7971 15.3118C13.8491 38.2235 -10.69 68.8202 5.20729 83.3087C21.1122 97.7971 46.9924 25.0159 46.9924 25.0159" fill="white"/>
<path d="M28.7971 15.3118C13.8491 38.2235 -10.69 68.8202 5.20729 83.3087C21.1122 97.7971 46.9924 25.0159 46.9924 25.0159" stroke="#231815" stroke-width="3" stroke-miterlimit="10"/>
<path d="M62.6184 113.325C62.6184 113.325 64.2609 143.477 57.4801 143.583C50.6992 143.696 28.2998 145.625 25.1128 141.858C21.9258 138.09 32.4587 128.258 32.4587 128.258L20.6977 100.728C20.6977 100.728 10.4134 86.9251 11.6264 64.0736C12.7415 43.1133 38.9005 22.8234 36.8135 11.1905L99.4988 5.04254C98.7001 32.7913 99.0542 133.291 93.961 139.801C88.8679 146.31 66.1369 144.932 63.4999 143.432C60.8705 141.933 66.9205 130.059 66.9205 130.059L60.9383 105.339L52.1006 104.872" fill="white"/>
<path d="M62.6184 113.325C62.6184 113.325 64.2609 143.477 57.4801 143.583C50.6992 143.696 28.2998 145.625 25.1128 141.858C21.9258 138.09 32.4587 128.258 32.4587 128.258L20.6977 100.728C20.6977 100.728 10.4134 86.9251 11.6264 64.0736C12.7415 43.1133 38.9005 22.8234 36.8135 11.1905L99.4988 5.04254C98.7001 32.7913 99.0542 133.291 93.961 139.801C88.8679 146.31 66.1369 144.932 63.4999 143.432C60.8705 141.933 66.9205 130.059 66.9205 130.059L60.9383 105.339L52.1006 104.872" stroke="#231815" stroke-width="3" stroke-miterlimit="10" stroke-linecap="round"/>
<path d="M19.2964 95.1149L25.9567 125.825H62.7089L64.4117 95.1149H19.2964Z" fill="#475A8E" stroke="#231815" stroke-width="3" stroke-miterlimit="10" stroke-linecap="round"/>
<path d="M54.3911 95.1149L61.0439 125.825H97.7961L99.4989 95.1149H54.3911Z" fill="#475A8E" stroke="#231815" stroke-width="3" stroke-miterlimit="10" stroke-linecap="round"/>
<path d="M17.6538 31.9249L6.67639 45.0571L15.5141 50.2633L31.9238 28.4064L17.6538 31.9249Z" fill="white" stroke="#231815" stroke-width="3" stroke-miterlimit="10" stroke-linecap="round"/>
<path d="M98.7528 73.4388C98.7528 73.4388 101.036 83.0299 99.5062 95.356C85.4397 103.312 42.1703 113.657 16.1167 99.5299C0.204341 53.1941 17.9099 40.2653 27.6517 28.7303L31.6826 35.1118C29.2415 58.9578 65.0746 49.6153 69.0376 32.9043C73.5958 15.0028 100.237 20.1563 100.237 20.1563L112.578 35.9632C112.578 35.9632 97.5021 52.9982 84.0609 52.0037C82.9458 49.216 82.1472 42.2619 82.1472 42.2619" fill="white"/>
<path d="M98.7528 73.4388C98.7528 73.4388 101.036 83.0299 99.5062 95.356C85.4397 103.312 42.1703 113.657 16.1167 99.5299C0.204341 53.1941 17.9099 40.2653 27.6517 28.7303L31.6826 35.1118C29.2415 58.9578 65.0746 49.6153 69.0376 32.9043C73.5958 15.0028 100.237 20.1563 100.237 20.1563L112.578 35.9632C112.578 35.9632 97.5021 52.9982 84.0609 52.0037C82.9458 49.216 82.1472 42.2619 82.1472 42.2619" stroke="#231815" stroke-width="3" stroke-miterlimit="10" stroke-linecap="round"/>
<path d="M96.7713 15.8091C103.65 30.4181 138.112 67.8785 120.798 80.1067C103.484 92.3273 88.913 69.6717 84.0459 43.8366" fill="white"/>
<path d="M96.7713 15.8091C103.65 30.4181 138.112 67.8785 120.798 80.1067C103.484 92.3273 88.913 69.6717 84.0459 43.8366" stroke="#231815" stroke-width="3" stroke-miterlimit="10" stroke-linecap="round"/>
<path d="M69.0302 32.9043C73.5884 15.0028 100.23 20.1563 100.23 20.1563L112.571 35.9632C112.571 35.9632 97.4947 52.9982 84.0535 52.0037C82.9384 49.216 82.1398 42.2619 82.1398 42.2619" fill="white"/>
<path d="M69.0302 32.9043C73.5884 15.0028 100.23 20.1563 100.23 20.1563L112.571 35.9632C112.571 35.9632 97.4947 52.9982 84.0535 52.0037C82.9384 49.216 82.1398 42.2619 82.1398 42.2619" stroke="#231815" stroke-width="3" stroke-miterlimit="10" stroke-linecap="round"/>
<path d="M-13.5683 -57.7859C-14.8943 -30.0672 -39.78 -10.463 -5.64972 18.9885C28.4806 48.44 91.2034 38.1181 125.831 -0.871846C152.306 -30.6775 146.083 -124.803 69.0903 -130.115C-7.90251 -135.427 -12.2724 -84.849 -13.5683 -57.7859Z" fill="white" stroke="#231815" stroke-width="3" stroke-miterlimit="10"/>
</g>
</svg>
