<svg width="120" height="132" viewBox="0 0 120 132" fill="none" xmlns="http://www.w3.org/2000/svg">
<rect width="120" height="132" rx="8" fill="#EEF1F0"/>
<mask id="mask0_79_7861" style="mask-type:alpha" maskUnits="userSpaceOnUse" x="0" y="0" width="120" height="132">
<rect width="120" height="132" rx="8" fill="#EEF1F0"/>
</mask>
<g mask="url(#mask0_79_7861)">
<path d="M28.3883 19.1432C13.4403 42.0549 -11.0989 72.6517 4.79848 87.1401C20.7034 101.629 46.5836 28.8473 46.5836 28.8473" fill="white"/>
<path d="M28.3883 19.1432C13.4403 42.0549 -11.0989 72.6517 4.79848 87.1401C20.7034 101.629 46.5836 28.8473 46.5836 28.8473" stroke="#231815" stroke-width="3" stroke-miterlimit="10"/>
<path d="M62.2096 116.403C62.2096 116.403 63.8521 147.309 57.0713 147.414C50.2904 147.527 27.891 149.456 24.704 145.689C21.517 141.922 32.0499 132.09 32.0499 132.09L20.2889 104.559C20.2889 104.559 10.0046 90.7566 11.2176 67.9052C12.3327 46.9448 38.4917 26.655 36.4047 15.022L99.09 8.87402C98.2913 36.6228 98.6454 137.123 93.5522 143.632C88.4591 150.142 65.7282 148.763 63.0912 147.264C60.4617 145.764 66.5117 133.89 66.5117 133.89L60.5295 109.17L51.6918 108.703" fill="white"/>
<path d="M62.2096 116.403C62.2096 116.403 63.8521 147.309 57.0713 147.414C50.2904 147.527 27.891 149.456 24.704 145.689C21.517 141.922 32.0499 132.09 32.0499 132.09L20.2889 104.559C20.2889 104.559 10.0046 90.7566 11.2176 67.9052C12.3327 46.9448 38.4917 26.655 36.4047 15.022L99.09 8.87402C98.2913 36.6228 98.6454 137.123 93.5522 143.632C88.4591 150.142 65.7282 148.763 63.0912 147.264C60.4617 145.764 66.5117 133.89 66.5117 133.89L60.5295 109.17L51.6918 108.703" stroke="#231815" stroke-width="3" stroke-miterlimit="10" stroke-linecap="round"/>
<path d="M19.9349 100.589L23.1144 118.324H96.8675V93.1976L19.9349 100.589Z" fill="#394042" stroke="#231815" stroke-width="3" stroke-miterlimit="10" stroke-linecap="round"/>
<path d="M60.4918 118.324L55.7603 107.897" stroke="#231815" stroke-width="3" stroke-miterlimit="10" stroke-linecap="round"/>
<path d="M18.782 104.567C24.1765 108.914 48.0376 113.412 48.0376 113.412V96.1812L52.3849 113.412C52.3849 113.412 91.1186 111.853 99.655 103.783C99.6625 103.625 100.265 80.0579 100.265 80.0579L98.0049 25.05L20.2888 31.2206L6.98328 46.794L15.3915 53.507C15.3991 53.4995 0.172287 78.6941 18.782 104.567Z" fill="#EDF2F4" stroke="#231815" stroke-width="3" stroke-miterlimit="10" stroke-linecap="round"/>
<path d="M32.9768 28.7796C33.7227 39.2522 44.3384 47.7961 44.3384 47.7961C44.3384 47.7961 60.3714 38.5139 66.7153 28.7796C73.0591 19.0453 82.7859 28.7796 82.7859 28.7796L61.5015 58.8866C54.0275 52.3242 44.346 48.0071 44.346 48.0071C44.346 48.0071 34.672 51.6085 33.8658 56.2797C32.3966 54.6749 22.052 40.631 28.3281 25.246C34.6042 9.86101 32.9768 28.7796 32.9768 28.7796Z" fill="#EDF2F4" stroke="#231815" stroke-width="3" stroke-miterlimit="10" stroke-linecap="round"/>
<path d="M96.37 19.6481C103.249 34.257 137.711 71.7175 120.397 83.9456C103.083 96.1662 88.5118 73.5106 83.6447 47.6756" fill="white"/>
<path d="M96.37 19.6481C103.249 34.257 137.711 71.7175 120.397 83.9456C103.083 96.1662 88.5118 73.5106 83.6447 47.6756" stroke="#231815" stroke-width="3" stroke-miterlimit="10" stroke-linecap="round"/>
<path d="M15.3993 53.4995L19.9349 47.6378" stroke="#231815" stroke-width="3" stroke-miterlimit="10" stroke-linecap="round"/>
<path d="M83.1852 46.892C83.1852 46.892 81.9571 52.8365 84.2852 59.6023C96.4531 59.8057 115.296 42.6652 115.296 42.6652L100.401 24.5528L77.6023 19.6555" fill="#EDF2F4"/>
<path d="M83.1852 46.892C83.1852 46.892 81.9571 52.8365 84.2852 59.6023C96.4531 59.8057 115.296 42.6652 115.296 42.6652L100.401 24.5528L77.6023 19.6555" stroke="#231815" stroke-width="3" stroke-miterlimit="10" stroke-linecap="round"/>
<path d="M44.5569 55.1269C45.0063 55.1269 45.3705 54.7626 45.3705 54.3132C45.3705 53.8638 45.0063 53.4995 44.5569 53.4995C44.1075 53.4995 43.7432 53.8638 43.7432 54.3132C43.7432 54.7626 44.1075 55.1269 44.5569 55.1269Z" fill="white" stroke="#231815" stroke-width="3" stroke-miterlimit="10" stroke-linecap="round"/>
<path d="M44.5569 64.7557C45.0063 64.7557 45.3705 64.3914 45.3705 63.942C45.3705 63.4926 45.0063 63.1283 44.5569 63.1283C44.1075 63.1283 43.7432 63.4926 43.7432 63.942C43.7432 64.3914 44.1075 64.7557 44.5569 64.7557Z" fill="white" stroke="#231815" stroke-width="3" stroke-miterlimit="10" stroke-linecap="round"/>
<path d="M-13.9771 -53.9544C-15.3031 -26.2358 -40.1888 -6.6316 -6.05854 22.8199C28.0718 52.2714 90.7946 41.9495 125.422 2.95956C151.898 -26.8461 145.674 -120.972 68.6815 -126.284C-8.29623 -131.588 -12.6812 -81.0175 -13.9771 -53.9544Z" fill="white" stroke="#231815" stroke-width="3" stroke-miterlimit="10"/>
</g>
</svg>
