<svg width="25" height="26" viewBox="0 0 25 26" fill="none" xmlns="http://www.w3.org/2000/svg">
<path d="M12.5013 23.1562C13.6471 23.1562 14.5846 22.2187 14.5846 21.0729H10.418C10.418 22.2187 11.345 23.1562 12.5013 23.1562ZM18.7513 16.9062V11.6979C18.7513 8.5 17.043 5.82292 14.0638 5.11458V4.40625C14.0638 3.54167 13.3659 2.84375 12.5013 2.84375C11.6367 2.84375 10.9388 3.54167 10.9388 4.40625V5.11458C7.94921 5.82292 6.25129 8.48958 6.25129 11.6979V16.9062L4.90754 18.25C4.25129 18.9063 4.70962 20.0312 5.63671 20.0312H19.3555C20.2825 20.0312 20.7513 18.9063 20.095 18.25L18.7513 16.9062Z" fill="#B5B7B6"/>
</svg>
