<svg width="120" height="132" viewBox="0 0 120 132" fill="none" xmlns="http://www.w3.org/2000/svg">
<rect width="120" height="132" rx="8" fill="#EEF1F0"/>
<mask id="mask0_79_7928" style="mask-type:alpha" maskUnits="userSpaceOnUse" x="0" y="0" width="120" height="132">
<rect width="120" height="132" rx="8" fill="#EEF1F0"/>
</mask>
<g mask="url(#mask0_79_7928)">
<path d="M31.0674 13.787C16.1194 36.6987 -8.41978 67.2955 7.47756 81.7839C23.3824 96.2723 49.2627 23.4911 49.2627 23.4911" fill="white"/>
<path d="M31.0674 13.787C16.1194 36.6987 -8.41978 67.2955 7.47756 81.7839C23.3824 96.2723 49.2627 23.4911 49.2627 23.4911" stroke="#231815" stroke-width="3" stroke-miterlimit="10"/>
<path d="M64.8888 111.8C64.8888 111.8 66.5313 141.953 59.7504 142.058C52.9696 142.164 30.5702 144.1 27.3831 140.333C24.1961 136.566 34.7291 126.733 34.7291 126.733L22.9681 99.2031C22.9681 99.2031 12.6838 85.4003 13.8968 62.5489C15.0119 41.5885 41.1709 21.2987 39.0839 9.66574L101.769 3.51776C100.97 31.2665 101.325 131.766 96.2314 138.276C91.1383 144.786 68.4073 143.407 65.7703 141.907C63.1409 140.408 69.1909 128.534 69.1909 128.534L63.2087 103.814L54.371 103.347" fill="white"/>
<path d="M64.8888 111.8C64.8888 111.8 66.5313 141.953 59.7504 142.058C52.9696 142.164 30.5702 144.1 27.3831 140.333C24.1961 136.566 34.7291 126.733 34.7291 126.733L22.9681 99.2031C22.9681 99.2031 12.6838 85.4003 13.8968 62.5489C15.0119 41.5885 41.1709 21.2987 39.0839 9.66574L101.769 3.51776C100.97 31.2665 101.325 131.766 96.2314 138.276C91.1383 144.786 68.4073 143.407 65.7703 141.907C63.1409 140.408 69.1909 128.534 69.1909 128.534L63.2087 103.814L54.371 103.347" stroke="#231815" stroke-width="3" stroke-miterlimit="10" stroke-linecap="round"/>
<path d="M16.4281 51.8502L2.31641 93.3113C25.6727 123.825 77.9455 128.655 119.143 93.3113C118.819 92.023 99.2374 44.9865 99.2374 44.9865L16.4281 51.8502Z" fill="#FF88F1" stroke="#231815" stroke-width="3" stroke-miterlimit="10" stroke-linecap="round"/>
<path d="M42.4667 11.4061C33.7043 39.6672 51.3722 53.8015 77.0641 15.5801C102.756 -22.6413 96.2238 3.05061 86.3237 18.1493C76.4237 33.248 80.8086 41.92 86.3237 45.4535C91.8388 48.9871 63.8942 67.9358 45.5859 66.9715C27.2776 66.0071 16.4207 51.8426 16.4207 51.8426C16.4207 51.8426 39.0235 13.3349 42.4667 11.4061Z" fill="#FCCAFF" stroke="#231815" stroke-width="3" stroke-miterlimit="10" stroke-linecap="round"/>
<path d="M99.0491 14.2917C105.928 28.9007 140.39 66.3612 123.076 78.5893C105.762 90.8099 91.1909 68.1543 86.3237 42.3193" fill="white"/>
<path d="M99.0491 14.2917C105.928 28.9007 140.39 66.3612 123.076 78.5893C105.762 90.8099 91.1909 68.1543 86.3237 42.3193" stroke="#231815" stroke-width="3" stroke-miterlimit="10" stroke-linecap="round"/>
<path d="M-11.2904 -59.3107C-12.6165 -31.592 -37.5022 -11.9878 -3.37189 17.4637C30.7659 46.9152 93.4813 36.5932 128.109 -2.3967C154.584 -32.2023 148.361 -126.328 71.3682 -131.64C-5.6171 -136.944 -10.0021 -86.3738 -11.2904 -59.3107Z" fill="white" stroke="#231815" stroke-width="3" stroke-miterlimit="10"/>
<path d="M45.7969 40.707C35.3469 43.1406 31.7003 43.3817 33.1619 46.5386C34.616 49.6954 45.7969 40.707 45.7969 40.707Z" fill="#FF88F1" stroke="#231815" stroke-width="3" stroke-miterlimit="10" stroke-linecap="round"/>
<path d="M63.5476 47.1412C62.086 50.2981 50.9126 41.3097 50.9126 41.3097C61.3551 43.7357 65.0017 43.9768 63.5476 47.1412Z" fill="#FF88F1" stroke="#231815" stroke-width="3" stroke-miterlimit="10" stroke-linecap="round"/>
<path d="M43.6121 53.8242L48.5244 40.707L49.2703 79.3428" stroke="#231815" stroke-width="3" stroke-miterlimit="10" stroke-linecap="round" stroke-linejoin="round"/>
</g>
</svg>
