<svg width="34" height="34" viewBox="0 0 34 34" fill="none" xmlns="http://www.w3.org/2000/svg">
<path d="M3.83331 15.3371C3.5901 20.4211 -0.974306 24.0168 5.28569 29.4187C11.5457 34.8205 23.05 32.9273 29.4012 25.776C34.2572 20.3092 33.1157 3.04514 18.9941 2.07091C4.87388 1.09805 4.071 10.3733 3.83331 15.3371Z" fill="#FFE38E" stroke="#231815" stroke-width="2.229" stroke-miterlimit="10"/>
<path d="M8.15173 20.5137C8.15173 20.5137 10.3241 19.6555 14.2114 19.5989C14.5264 22.2397 13.1238 23.7694 11.3536 23.9145C9.74783 24.0458 8.26643 23.2001 8.15173 20.5137Z" fill="#231815"/>
<path d="M11.2927 21.3746L10.1734 21.6151C9.80444 21.6938 9.43962 21.4575 9.35947 21.0899L9.28761 20.7528C9.20884 20.3838 9.44515 20.019 9.81273 19.9388L10.9321 19.6984C11.301 19.6196 11.6659 19.8559 11.746 20.2235L11.8179 20.5607C11.898 20.9283 11.6617 21.2945 11.2927 21.3746Z" fill="white"/>
<path d="M6.85067 18.34C7.57649 18.2107 8.09341 17.7046 8.00525 17.2094C7.91708 16.7143 7.25721 16.4176 6.53138 16.5469C5.80556 16.6761 5.28864 17.1823 5.3768 17.6774C5.46497 18.1726 6.12484 18.4692 6.85067 18.34Z" fill="#FFAEE0"/>
<path d="M16.1086 17.4417C16.9825 17.4417 17.6909 16.9393 17.6909 16.3196C17.6909 15.6999 16.9825 15.1975 16.1086 15.1975C15.2348 15.1975 14.5264 15.6999 14.5264 16.3196C14.5264 16.9393 15.2348 17.4417 16.1086 17.4417Z" fill="#FFAEE0"/>
<path d="M6.65515 16.4164C6.84033 15.6287 7.85878 15.1464 8.15036 16.0613" stroke="#231815" stroke-miterlimit="10" stroke-linecap="round"/>
<path d="M13.812 15.6882C14.2984 14.5066 15.2133 15.1064 15.2409 15.8208" stroke="#231815" stroke-miterlimit="10" stroke-linecap="round"/>
<path d="M8.15173 20.5137C8.15173 20.5137 10.3241 19.6555 14.2114 19.5989C14.5264 22.2397 13.1238 23.7694 11.3536 23.9145C9.74783 24.0458 8.26643 23.2001 8.15173 20.5137Z" stroke="#231815" stroke-miterlimit="10" stroke-linecap="round"/>
</svg>
