<svg width="133" height="216" viewBox="0 0 133 216" fill="none" xmlns="http://www.w3.org/2000/svg">
<ellipse cx="66.5" cy="208" rx="66.5" ry="8" fill="#805936"/>
<path d="M38.868 28.6931C22.7992 29.7725 28.3149 13.1653 36.5574 15.1486C39.856 8.20885 42.9406 7.21913 46.0175 8.87127C50.0823 0.610544 62.9459 -0.710394 65.2526 6.55671C69.2124 2.92121 77.1281 4.90458 77.1281 8.54008C81.088 7.87766 88.0119 14.8174 82.076 17.7905C76.1363 20.7636 38.868 28.6931 38.868 28.6931Z" fill="#30B72C" stroke="#231815" stroke-width="2" stroke-miterlimit="10"/>
<path d="M57.0335 11.993C58.0776 11.993 58.924 11.145 58.924 10.0989C58.924 9.05282 58.0776 8.20477 57.0335 8.20477C55.9894 8.20477 55.1431 9.05282 55.1431 10.0989C55.1431 11.145 55.9894 11.993 57.0335 11.993Z" fill="#FFE000" stroke="#231815" stroke-width="2" stroke-miterlimit="10"/>
<path d="M31.8314 29.7723C33.3373 29.7723 34.5581 28.5493 34.5581 27.0408C34.5581 25.5322 33.3373 24.3093 31.8314 24.3093C30.3254 24.3093 29.1046 25.5322 29.1046 27.0408C29.1046 28.5493 30.3254 29.7723 31.8314 29.7723Z" fill="#FFE000" stroke="#231815" stroke-width="2" stroke-miterlimit="10"/>
<path d="M20.9048 55.3962C9.35986 51.4295 12.6584 39.2059 16.6183 39.2059C16.6183 35.2392 19.2555 33.9183 20.9048 35.5704C20.5742 30.9452 26.1833 31.9349 26.1833 31.9349C25.522 28.6306 32.4498 25.9887 34.099 28.2994C36.4096 21.0323 43.3335 14.4237 49.9306 18.3865C53.5598 6.49028 69.9398 7.26961 73.3472 13.4301C80.6017 11.1155 85.2228 15.0822 85.5496 20.6972C94.1266 16.7305 102.175 18.7099 101.284 25.4861C106.99 27.637 107.648 37.8772 106.99 40.1917C114.906 39.5293 123.483 52.4153 114.575 63.3179C105.668 74.2283 20.9048 55.3962 20.9048 55.3962Z" fill="#30B72C" stroke="#231815" stroke-width="2" stroke-miterlimit="10"/>
<path d="M34.1576 50.2488C36.3467 50.2488 38.1213 48.4711 38.1213 46.2782C38.1213 44.0853 36.3467 42.3076 34.1576 42.3076C31.9685 42.3076 30.1938 44.0853 30.1938 46.2782C30.1938 48.4711 31.9685 50.2488 34.1576 50.2488Z" fill="#FFE000" stroke="#231815" stroke-width="2" stroke-miterlimit="10"/>
<path d="M74.9887 25.8211C77.1778 25.8211 78.9525 24.0434 78.9525 21.8505C78.9525 19.6576 77.1778 17.8799 74.9887 17.8799C72.7996 17.8799 71.025 19.6576 71.025 21.8505C71.025 24.0434 72.7996 25.8211 74.9887 25.8211Z" fill="#FFE000" stroke="#231815" stroke-width="2" stroke-miterlimit="10"/>
<path d="M44.8156 31.0114C47.0047 31.0114 48.7794 29.2337 48.7794 27.0408C48.7794 24.8479 47.0047 23.0702 44.8156 23.0702C42.6265 23.0702 40.8519 24.8479 40.8519 27.0408C40.8519 29.2337 42.6265 31.0114 44.8156 31.0114Z" fill="#FFE000" stroke="#231815" stroke-width="2" stroke-miterlimit="10"/>
<path d="M44.8155 15.1407C46.3215 15.1407 47.5423 13.9177 47.5423 12.4092C47.5423 10.9006 46.3215 9.67767 44.8155 9.67767C43.3096 9.67767 42.0887 10.9006 42.0887 12.4092C42.0887 13.9177 43.3096 15.1407 44.8155 15.1407Z" fill="#FFE000" stroke="#231815" stroke-width="2" stroke-miterlimit="10"/>
<path d="M91.7578 34.5923C93.2637 34.5923 94.4845 33.3694 94.4845 31.8608C94.4845 30.3523 93.2637 29.1293 91.7578 29.1293C90.2518 29.1293 89.031 30.3523 89.031 31.8608C89.031 33.3694 90.2518 34.5923 91.7578 34.5923Z" fill="#FFE000" stroke="#231815" stroke-width="2" stroke-miterlimit="10"/>
<path d="M75.5723 9.31998C76.6164 9.31998 77.4628 8.47193 77.4628 7.42583C77.4628 6.37973 76.6164 5.53171 75.5723 5.53171C74.5283 5.53171 73.6819 6.37973 73.6819 7.42583C73.6819 8.47193 74.5283 9.31998 75.5723 9.31998Z" fill="#FFE000" stroke="#231815" stroke-width="2" stroke-miterlimit="10"/>
<path d="M106.85 62.0398C111.484 62.0398 115.241 58.2768 115.241 53.6349C115.241 48.993 111.484 45.23 106.85 45.23C102.216 45.23 98.46 48.993 98.46 53.6349C98.46 58.2768 102.216 62.0398 106.85 62.0398Z" fill="#FFE000" stroke="#231815" stroke-width="2" stroke-miterlimit="10"/>
<path d="M27.5021 100C11.6705 96.6958 9.69061 84.936 16.2877 81.8967C14.6385 78.5261 14.6384 72.7865 17.2757 70.6979C8.37196 69.9342 8.04134 65.6363 10.0213 63.3256C11.6705 59.6901 13.8722 55.3766 16.7934 56.6079C19.5629 51.9866 25.8683 47.8251 36.328 48.7486C36.328 45.0507 40.634 39.0422 46.0175 39.9657C45.4029 37.3472 48.3242 34.7287 49.8646 35.4963C49.25 31.3348 56.0182 27.1771 61.5534 31.7985C66.1668 30.1035 72.7833 33.8013 74.1681 37.8849C77.0893 33.4935 86.6272 34.1091 87.7046 37.8849C96.165 36.5757 103.186 36.2912 104.318 51.367C112.471 52.2905 114.299 56.8339 115.847 61.5761C119.854 60.6136 119.702 64.8842 119.702 64.8842C122.623 65.3908 126.778 78.947 116.318 79.1028C112.319 81.2615 114.47 83.1085 114.626 83.5722C121.394 85.4231 118.166 97.4401 111.086 96.3608C116.314 102.677 110.009 114.082 97.0908 111C84.1649 107.918 27.5021 100 27.5021 100Z" fill="#30B72C" stroke="#231815" stroke-width="2" stroke-miterlimit="10"/>
<path d="M101.642 115.544C105.163 115.544 108.017 112.684 108.017 109.157C108.017 105.63 105.163 102.771 101.642 102.771C98.1208 102.771 95.2665 105.63 95.2665 109.157C95.2665 112.684 98.1208 115.544 101.642 115.544Z" fill="#FFE000" stroke="#231815" stroke-width="2" stroke-miterlimit="10"/>
<path d="M48.581 53.2452L46.3326 84.8347H77.7934L72.4372 57.8198L48.581 53.2452Z" fill="black"/>
<path d="M45.2784 143.092C37.561 154.942 24.8919 170.766 33.0994 178.259C41.3069 185.752 54.6723 148.111 54.6723 148.111" fill="white"/>
<path d="M45.2784 143.092C37.561 154.942 24.8919 170.766 33.0994 178.259C41.3069 185.752 54.6723 148.111 54.6723 148.111" stroke="#231815" stroke-width="2" stroke-miterlimit="10"/>
<path d="M62.7396 193.783C62.7396 193.783 63.5876 209.377 60.0868 209.431C56.586 209.486 45.0216 210.487 43.3762 208.539C41.7308 206.591 47.1687 201.506 47.1687 201.506L41.0968 187.268C41.0968 187.268 35.7871 180.129 36.4134 168.311C36.9891 157.471 50.4945 146.977 49.417 140.961L81.7803 137.781C81.368 152.132 81.5507 204.109 78.9212 207.475C76.2917 210.842 64.5562 210.129 63.1948 209.353C61.8372 208.578 64.9608 202.437 64.9608 202.437L61.8722 189.652L57.3095 189.411" fill="white"/>
<path d="M62.7396 193.783C62.7396 193.783 63.5876 209.377 60.0868 209.431C56.586 209.486 45.0216 210.487 43.3762 208.539C41.7308 206.591 47.1687 201.506 47.1687 201.506L41.0968 187.268C41.0968 187.268 35.7871 180.129 36.4134 168.311C36.9891 157.471 50.4945 146.977 49.417 140.961L81.7803 137.781C81.368 152.132 81.5507 204.109 78.9212 207.475C76.2917 210.842 64.5562 210.129 63.1948 209.353C61.8372 208.578 64.9608 202.437 64.9608 202.437L61.8722 189.652L57.3095 189.411" stroke="#231815" stroke-width="2" stroke-miterlimit="10" stroke-linecap="round"/>
<path d="M80.3761 143.354C83.9275 150.909 101.72 170.283 92.7807 176.607C83.8419 182.927 76.3191 171.21 73.8063 157.849" fill="white"/>
<path d="M80.3761 143.354C83.9275 150.909 101.72 170.283 92.7807 176.607C83.8419 182.927 76.3191 171.21 73.8063 157.849" stroke="#231815" stroke-width="2" stroke-miterlimit="10" stroke-linecap="round"/>
<path d="M24.184 105.288C23.4994 119.623 10.6514 129.762 28.2722 144.994C45.8931 160.226 78.2757 154.887 96.1533 134.723C109.822 119.308 106.609 70.6278 66.8591 67.8808C27.1169 65.1337 24.8531 91.2914 24.184 105.288Z" fill="white" stroke="#231815" stroke-width="2" stroke-miterlimit="10"/>
<path d="M35.0873 124.934C34.6477 126.602 35.0639 130.172 40.9959 126.672C46.2977 129.51 48.6355 127.171 47.9547 125.457" fill="white"/>
<path d="M35.0873 124.934C34.6477 126.602 35.0639 130.172 40.9959 126.672C46.2977 129.51 48.6355 127.171 47.9547 125.457" stroke="#231815" stroke-width="2" stroke-miterlimit="10" stroke-linecap="round"/>
<path d="M31.0301 116.098C32.7574 116.098 34.1575 115.473 34.1575 114.702C34.1575 113.932 32.7574 113.307 31.0301 113.307C29.3029 113.307 27.9027 113.932 27.9027 114.702C27.9027 115.473 29.3029 116.098 31.0301 116.098Z" fill="#FFAEE0"/>
<path d="M53.9022 115.871C55.6294 115.871 57.0296 115.247 57.0296 114.476C57.0296 113.706 55.6294 113.081 53.9022 113.081C52.175 113.081 50.7748 113.706 50.7748 114.476C50.7748 115.247 52.175 115.871 53.9022 115.871Z" fill="#FFAEE0"/>
<path d="M33.3794 114.309C34.2345 114.309 34.9276 113.614 34.9276 112.758C34.9276 111.901 34.2345 111.207 33.3794 111.207C32.5244 111.207 31.8313 111.901 31.8313 112.758C31.8313 113.614 32.5244 114.309 33.3794 114.309Z" fill="#231815"/>
<path d="M51.5721 113.912C52.4271 113.912 53.1202 113.217 53.1202 112.36C53.1202 111.504 52.4271 110.809 51.5721 110.809C50.7171 110.809 50.0239 111.504 50.0239 112.36C50.0239 113.217 50.7171 113.912 51.5721 113.912Z" fill="#231815"/>
<path d="M27.2532 80.6459C28.0234 82.1851 32.0221 81.1096 32.0221 79.4146C42.0189 83.4203 43.8665 77.5637 43.0964 71.5552C48.9427 71.7111 47.0951 66.7235 47.0951 66.7235C49.2501 66.778 49.4018 64.0036 49.4018 64.0036C51.0938 63.388 59.737 59.3823 66.0307 61.0773C65.0933 65.083 73.0907 67.4365 75.7047 66.7235C71.2431 70.168 75.7047 72.0189 75.7047 72.0189C72.4761 73.7139 78.0113 84.0359 83.8577 82.9605C80.7809 86.8142 86.6272 91.4355 94.1618 87.274C92.4697 91.4355 99.5453 88.9144 99.5453 88.9144L108.336 60.6682L36.3281 51.0865L27.2532 80.6459Z" fill="#30B72C"/>
<path d="M27.2532 80.6459C28.0234 82.1851 32.0221 81.1096 32.0221 79.4146C42.0189 83.4203 43.8665 77.5637 43.0964 71.5552C48.9427 71.7111 47.0951 66.7235 47.0951 66.7235C49.2501 66.7781 49.4018 64.0037 49.4018 64.0037C51.0938 63.388 59.737 59.3823 66.0307 61.0774C65.0933 65.083 73.0907 67.4366 75.7047 66.7235C71.2431 70.1681 75.7047 72.0189 75.7047 72.0189C72.4761 73.7139 78.0113 84.036 83.8577 82.9605C80.7809 86.8142 86.6272 91.4355 94.1618 87.274C92.4697 91.4355 99.5453 88.9145 99.5453 88.9145" stroke="#231815" stroke-width="2" stroke-miterlimit="10"/>
<path d="M19.0261 84.9711C23.4172 84.9711 26.9768 81.4053 26.9768 77.0066C26.9768 72.6078 23.4172 69.042 19.0261 69.042C14.635 69.042 11.0753 72.6078 11.0753 77.0066C11.0753 81.4053 14.635 84.9711 19.0261 84.9711Z" fill="#FFE000" stroke="#231815" stroke-width="2" stroke-miterlimit="10"/>
<path d="M101.642 87.9403C105.163 87.9403 108.017 85.081 108.017 81.5539C108.017 78.0267 105.163 75.1674 101.642 75.1674C98.1208 75.1674 95.2665 78.0267 95.2665 81.5539C95.2665 85.081 98.1208 87.9403 101.642 87.9403Z" fill="#FFE000" stroke="#231815" stroke-width="2" stroke-miterlimit="10"/>
<path d="M71.7915 50.3384C76.4254 50.3384 80.1818 46.5754 80.1818 41.9335C80.1818 37.2916 76.4254 33.5286 71.7915 33.5286C67.1577 33.5286 63.4012 37.2916 63.4012 41.9335C63.4012 46.5754 67.1577 50.3384 71.7915 50.3384Z" fill="#FFE000" stroke="#231815" stroke-width="2" stroke-miterlimit="10"/>
<path d="M77.7934 76.0635C80.9278 76.0635 83.4686 73.5182 83.4686 70.3784C83.4686 67.2386 80.9278 64.6933 77.7934 64.6933C74.6591 64.6933 72.1182 67.2386 72.1182 70.3784C72.1182 73.5182 74.6591 76.0635 77.7934 76.0635Z" fill="#FFE000" stroke="#231815" stroke-width="2" stroke-miterlimit="10"/>
<path d="M17.0384 50.1319C20.1727 50.1319 22.7136 47.5865 22.7136 44.4468C22.7136 41.307 20.1727 38.7617 17.0384 38.7617C13.904 38.7617 11.3632 41.307 11.3632 44.4468C11.3632 47.5865 13.904 50.1319 17.0384 50.1319Z" fill="#FFE000" stroke="#231815" stroke-width="2" stroke-miterlimit="10"/>
<path d="M40.8557 17.4123C41.657 21.1335 41.6648 25.0106 40.8557 28.7318C40.0466 25.0106 40.0544 21.1296 40.8557 17.4123Z" fill="white"/>
<path d="M44.8234 23.0697C42.2522 23.872 39.4593 23.8758 36.8882 23.0697C39.4593 22.2636 42.2483 22.2675 44.8234 23.0697Z" fill="white"/>
<path d="M105.61 77.9767C106.411 81.6979 106.419 85.575 105.61 89.2963C104.8 85.575 104.808 81.694 105.61 77.9767Z" fill="white"/>
<path d="M109.577 83.6342C107.006 84.4364 104.213 84.4403 101.642 83.6342C104.213 82.8281 107.006 82.8359 109.577 83.6342Z" fill="white"/>
<path d="M76.6732 1C77.4745 3.9575 77.4784 7.11373 76.6732 10.0673C75.8642 7.11373 75.8719 3.9575 76.6732 1Z" fill="white"/>
<path d="M79.8513 5.53529C77.8208 6.33361 75.5219 6.3414 73.4915 5.53529C75.5219 4.72918 77.8208 4.73697 79.8513 5.53529Z" fill="white"/>
<path d="M17.723 80.5988C15.6925 81.3971 13.3936 81.4049 11.3632 80.5988C13.3936 79.7927 15.6925 79.8004 17.723 80.5988Z" fill="white"/>
<path d="M75.125 26.8849C75.5918 30.1775 75.6773 33.6182 75.7084 36.9381C75.6929 40.3008 75.5879 43.6519 75.125 46.9912C74.6621 43.6519 74.5571 40.2969 74.5415 36.9381C74.5726 33.6143 74.6621 30.1775 75.125 26.8849Z" fill="white"/>
<path d="M82.1772 36.9377C77.5211 37.7399 72.7367 37.7477 68.0806 36.9377C72.7328 36.1316 77.5172 36.1355 82.1772 36.9377Z" fill="white"/>
</svg>
