<svg width="174" height="177" viewBox="0 0 174 177" fill="none" xmlns="http://www.w3.org/2000/svg">
<path d="M12.3882 77.5738C11.0101 106.381 -14.8535 126.756 20.6178 157.365C56.097 187.973 121.276 177.246 157.265 136.724C184.78 105.747 178.312 7.92319 98.2945 2.40282C18.2766 -3.11754 13.7272 49.4473 12.3882 77.5738Z" fill="white" stroke="#231815" stroke-width="2.34909" stroke-miterlimit="10"/>
<path d="M39.7629 106.906C39.7629 106.906 52.0722 102.044 74.0989 101.723C75.8842 116.686 67.9364 125.354 57.9057 126.177C48.7991 126.928 40.405 122.128 39.7629 106.906Z" fill="#231815"/>
<path d="M57.5612 111.784L51.2186 113.147C49.1279 113.593 47.0607 112.254 46.6065 110.171L46.1994 108.261C45.753 106.17 47.092 104.103 49.1749 103.649L55.5174 102.286C57.6081 101.84 59.6753 103.179 60.1295 105.262L60.5367 107.172C60.983 109.263 59.644 111.338 57.5612 111.784Z" fill="white"/>
<path d="M32.3884 94.599C36.5012 93.8667 39.4302 90.9986 38.9306 88.1929C38.4311 85.3871 34.692 83.7063 30.5793 84.4387C26.4665 85.171 23.5374 88.0391 24.037 90.8448C24.5366 93.6505 28.2756 95.3314 32.3884 94.599Z" fill="#FFAEE0"/>
<path d="M84.8419 89.5072C89.7936 89.5072 93.8076 86.6605 93.8076 83.149C93.8076 79.6374 89.7936 76.7908 84.8419 76.7908C79.8903 76.7908 75.8762 79.6374 75.8762 83.149C75.8762 86.6605 79.8903 89.5072 84.8419 89.5072Z" fill="#FFAEE0"/>
<path d="M31.2826 83.6892C32.3319 79.226 38.1028 76.4932 39.755 81.6768" stroke="#231815" stroke-width="2.34909" stroke-miterlimit="10" stroke-linecap="round"/>
<path d="M71.828 79.5626C74.5843 72.8677 79.768 76.2661 79.9246 80.3144" stroke="#231815" stroke-width="2.34909" stroke-miterlimit="10" stroke-linecap="round"/>
<path d="M39.7629 106.906C39.7629 106.906 52.0722 102.044 74.0989 101.723C75.8842 116.686 67.9364 125.354 57.9057 126.177C48.7991 126.928 40.405 122.128 39.7629 106.906Z" stroke="#231815" stroke-width="2.34909" stroke-miterlimit="10" stroke-linecap="round"/>
</svg>
