<svg width="133" height="216" viewBox="0 0 133 216" fill="none" xmlns="http://www.w3.org/2000/svg">
<ellipse cx="66.5" cy="208" rx="66.5" ry="8" fill="#805936"/>
<path d="M39.836 27.7281C23.7672 28.8013 29.283 12.2889 37.5255 14.2609C40.824 7.36074 43.9086 6.37667 46.9855 8.01938C51.0503 -0.194183 63.9139 -1.50758 66.2206 5.71803C70.1804 2.10329 78.0962 4.07533 78.0962 7.69008C82.056 7.03144 88.9799 13.9316 83.044 16.8877C77.1082 19.8438 39.836 27.7281 39.836 27.7281Z" fill="#30B72C" stroke="#231815" stroke-width="2" stroke-miterlimit="10"/>
<path d="M21.873 54.2788C10.328 50.3347 13.6266 38.181 17.5864 38.181C17.5864 34.2369 20.2237 32.9235 21.873 34.5662C21.5423 29.9674 27.1514 30.9515 27.1514 30.9515C26.4902 27.666 33.4179 25.0392 35.0672 27.3367C37.3777 20.1111 44.3016 13.5402 50.8987 17.4804C54.5279 5.65212 70.9079 6.427 74.3154 12.5523C81.5699 10.251 86.191 14.195 86.5177 19.7779C95.0947 15.8339 103.143 17.802 102.252 24.5395C107.958 26.6781 108.616 36.8598 107.958 39.1612C115.874 38.5025 124.451 51.3149 115.543 62.1553C106.64 73.0034 21.873 54.2788 21.873 54.2788Z" fill="#30B72C" stroke="#231815" stroke-width="2" stroke-miterlimit="10"/>
<path d="M28.4699 98.6282C12.6384 95.3428 10.6585 83.6501 17.2556 80.6281C15.6063 77.2768 15.6063 71.5699 18.2436 69.4933C9.33987 68.7339 9.00923 64.4605 10.9891 62.163C12.6384 58.5483 14.8401 54.2594 17.7613 55.4837C20.5308 50.8888 26.8362 46.751 37.2959 47.6692C37.2959 43.9925 41.6019 38.0183 46.9854 38.9365C46.3709 36.3329 49.2921 33.7294 50.8325 34.4926C50.2179 30.3549 56.9861 26.221 62.5213 30.8159C67.1346 29.1306 73.7512 32.8073 75.136 36.8676C78.0572 32.5012 87.595 33.1134 88.6725 36.8676C97.1329 35.5658 104.154 35.283 105.286 50.2727C113.439 51.191 115.267 55.7084 116.815 60.4235C120.822 59.4665 120.67 63.7128 120.67 63.7128C123.591 64.2164 127.746 77.6952 117.286 77.8502C113.287 79.9966 115.438 81.833 115.594 82.294C122.362 84.1344 119.134 96.0828 112.054 95.0096C117.282 101.29 110.977 112.63 98.0547 109.565C85.1367 106.501 28.4699 98.6282 28.4699 98.6282Z" fill="#30B72C" stroke="#231815" stroke-width="2" stroke-miterlimit="10"/>
<path d="M49.5529 52.1363L47.3046 83.5455H78.7653L73.4052 56.6886L49.5529 52.1363Z" fill="black"/>
<path d="M46.2503 141.474C38.5329 153.256 25.8599 168.99 34.0713 176.44C42.2827 183.89 55.6481 146.464 55.6481 146.464" fill="white"/>
<path d="M46.2503 141.474C38.5329 153.256 25.8599 168.99 34.0713 176.44C42.2827 183.89 55.6481 146.464 55.6481 146.464" stroke="#231815" stroke-width="2" stroke-miterlimit="10"/>
<path d="M63.7116 191.875C63.7116 191.875 64.5595 207.38 61.0587 207.435C57.5579 207.493 45.9935 208.485 44.3481 206.547C42.7027 204.61 48.1406 199.554 48.1406 199.554L42.0687 185.398C42.0687 185.398 36.7591 178.3 37.3853 166.549C37.961 155.771 51.4664 145.337 50.389 139.355L82.7522 136.194C82.3399 150.463 82.5227 202.142 79.8932 205.49C77.2637 208.837 65.5281 208.128 64.1667 207.357C62.8091 206.586 65.9326 200.48 65.9326 200.48L62.8441 187.769L58.2814 187.528" fill="white"/>
<path d="M63.7116 191.875C63.7116 191.875 64.5595 207.38 61.0587 207.435C57.5579 207.493 45.9935 208.485 44.3481 206.547C42.7027 204.61 48.1406 199.554 48.1406 199.554L42.0687 185.398C42.0687 185.398 36.7591 178.3 37.3853 166.549C37.961 155.771 51.4664 145.337 50.389 139.355L82.7522 136.194C82.3399 150.463 82.5227 202.142 79.8932 205.49C77.2637 208.837 65.5281 208.128 64.1667 207.357C62.8091 206.586 65.9326 200.48 65.9326 200.48L62.8441 187.769L58.2814 187.528" stroke="#231815" stroke-width="2" stroke-miterlimit="10" stroke-linecap="round"/>
<path d="M62.8231 198.045C62.8468 195.387 62.736 193.306 62.736 193.306L67.0788 189.009" fill="#7DA3BA"/>
<path d="M62.8231 198.045C62.8468 195.387 62.736 193.306 62.736 193.306L67.0788 189.009" stroke="#231815" stroke-width="2" stroke-miterlimit="10" stroke-linecap="round"/>
<path d="M80.6855 197.495C81.8296 180.749 81.7979 147.538 82.1186 136.453L49.1809 139.681C50.2814 145.789 36.5363 156.443 35.9464 167.449C35.3051 179.448 40.7129 186.695 40.7129 186.695L45.5506 198.009" fill="#7DA3BA"/>
<path d="M80.6855 197.495C81.8296 180.749 81.7979 147.538 82.1186 136.453L49.1809 139.681C50.2814 145.789 36.5363 156.443 35.9464 167.449C35.3051 179.448 40.7129 186.695 40.7129 186.695L45.5506 198.009" stroke="#231815" stroke-width="2" stroke-miterlimit="10" stroke-linecap="round"/>
<path d="M57.2134 188.867L61.8571 189.116L63.888 197.495" fill="#7DA3BA"/>
<path d="M57.2134 188.867L61.8571 189.116L63.888 197.495" stroke="#231815" stroke-width="2" stroke-miterlimit="10" stroke-linecap="round"/>
<path d="M57.2134 188.867L61.8571 189.116L63.888 197.495" stroke="#231815" stroke-width="2" stroke-miterlimit="10" stroke-linecap="round"/>
<path d="M72.5618 143.795C68.785 147.688 65.8595 153.531 65.8595 154.667C58.7137 154.991 46.0691 154.667 46.0691 154.667C48.8245 147.922 53.7453 146.553 53.7453 146.553L72.5618 143.795Z" fill="white" stroke="#231815" stroke-width="2" stroke-miterlimit="10"/>
<path d="M72.5144 156.945L65.4082 156.115L66.3148 153.156L73.4249 153.595L72.5144 156.945Z" fill="#C9CACA" stroke="#231815" stroke-width="2" stroke-miterlimit="10"/>
<path d="M45.1943 156.467H40.0834L41.6669 153.713H45.986L45.1943 156.467Z" fill="#C9CACA" stroke="#231815" stroke-width="2" stroke-miterlimit="10"/>
<path d="M40.0834 165.771H65.4082C67.6648 183.328 37.2053 190.149 40.0834 165.771Z" fill="#7DA3BA" stroke="#231815" stroke-width="2" stroke-miterlimit="10" stroke-linecap="round"/>
<path d="M40.7089 186.695L43.7136 196.751C43.9433 197.523 44.6519 198.049 45.4555 198.049H62.8191L63.5119 194.682L62.1619 189.12" fill="#7DA3BA"/>
<path d="M40.7089 186.695L43.7136 196.751C43.9433 197.523 44.6519 198.049 45.4555 198.049H62.8191L63.5119 194.682L62.1619 189.12" stroke="#231815" stroke-width="2" stroke-miterlimit="10" stroke-linecap="round"/>
<path d="M81.3981 180.528L82.0395 195.644C82.083 196.652 81.2754 197.491 80.2659 197.491H65.052C64.1414 197.491 63.3616 196.838 63.2032 195.944L62.736 193.306L61.8572 189.112" fill="#7DA3BA"/>
<path d="M81.3981 180.528L82.0395 195.644C82.083 196.652 81.2754 197.491 80.2659 197.491H65.052C64.1414 197.491 63.3616 196.838 63.2032 195.944L62.736 193.306L61.8572 189.112" stroke="#231815" stroke-width="2" stroke-miterlimit="10" stroke-linecap="round"/>
<path d="M40.0834 168.837H65.4716" stroke="#231815" stroke-width="2" stroke-miterlimit="10"/>
<path d="M43.2861 195.312L82.1186 194.916" stroke="#231815" stroke-width="2" stroke-miterlimit="10"/>
<path d="M82.2926 143.399C76.0383 148.335 73.3201 155.039 74.0738 158.269C74.8275 161.499 75.7416 159.401 75.7416 159.401" fill="white"/>
<path d="M82.2926 143.399C76.0383 148.335 73.3201 155.039 74.0738 158.269C74.8275 161.499 75.7416 159.401 75.7416 159.401" stroke="#231815" stroke-width="2" stroke-miterlimit="10" stroke-linecap="round"/>
<path d="M81.348 141.73C84.8994 149.242 102.691 168.506 93.7526 174.794C84.8138 181.078 77.2909 169.428 74.7781 156.143" fill="white"/>
<path d="M81.348 141.73C84.8994 149.242 102.691 168.506 93.7526 174.794C84.8138 181.078 77.2909 169.428 74.7781 156.143" stroke="#231815" stroke-width="2" stroke-miterlimit="10" stroke-linecap="round"/>
<path d="M25.156 103.886C24.4713 118.139 11.6233 128.22 29.2441 143.365C46.865 158.51 79.2476 153.202 97.1252 133.152C110.794 117.825 107.581 69.4235 67.8311 66.6921C28.0889 63.9607 25.825 89.9691 25.156 103.886Z" fill="white" stroke="#231815" stroke-width="2" stroke-miterlimit="10"/>
<path d="M36.0589 123.416C35.6194 125.074 36.0356 128.623 41.9676 125.144C47.2694 127.965 49.6071 125.64 48.9264 123.935" fill="white"/>
<path d="M36.0589 123.416C35.6194 125.074 36.0356 128.623 41.9676 125.144C47.2694 127.965 49.6071 125.64 48.9264 123.935" stroke="#231815" stroke-width="2" stroke-miterlimit="10" stroke-linecap="round"/>
<path d="M31.9979 114.629C33.7251 114.629 35.1253 114.008 35.1253 113.242C35.1253 112.476 33.7251 111.855 31.9979 111.855C30.2707 111.855 28.8705 112.476 28.8705 113.242C28.8705 114.008 30.2707 114.629 31.9979 114.629Z" fill="#FFAEE0"/>
<path d="M54.8741 114.404C56.6013 114.404 58.0015 113.783 58.0015 113.017C58.0015 112.251 56.6013 111.63 54.8741 111.63C53.1469 111.63 51.7467 112.251 51.7467 113.017C51.7467 113.783 53.1469 114.404 54.8741 114.404Z" fill="#FFAEE0"/>
<path d="M34.3514 112.855C35.2064 112.855 35.8995 112.164 35.8995 111.313C35.8995 110.461 35.2064 109.771 34.3514 109.771C33.4964 109.771 32.8032 110.461 32.8032 111.313C32.8032 112.164 33.4964 112.855 34.3514 112.855Z" fill="#231815"/>
<path d="M52.5441 112.46C53.3991 112.46 54.0923 111.769 54.0923 110.918C54.0923 110.066 53.3991 109.376 52.5441 109.376C51.6891 109.376 50.996 110.066 50.996 110.918C50.996 111.769 51.6891 112.46 52.5441 112.46Z" fill="#231815"/>
<path d="M28.2209 79.3845C28.9911 80.9148 32.9899 79.8455 32.9899 78.1602C42.9867 82.143 44.8343 76.3199 44.0641 70.3457C49.9105 70.5006 48.0629 65.5415 48.0629 65.5415C50.2178 65.5958 50.3695 62.8372 50.3695 62.8372C52.0616 62.2251 60.7047 58.2423 66.9985 59.9276C66.061 63.9104 74.0585 66.2505 76.6724 65.5415C72.2108 68.9664 76.6724 70.8067 76.6724 70.8067C73.4439 72.492 78.9791 82.7551 84.8255 81.6858C81.7486 85.5175 87.595 90.1125 95.1296 85.9747C93.4375 90.1125 100.513 87.6058 100.513 87.6058L109.304 59.5208L37.2998 49.9939L28.2209 79.3845Z" fill="#30B72C"/>
<path d="M28.2209 79.3844C28.9911 80.9148 32.9899 79.8454 32.9899 78.1601C42.9867 82.1429 44.8343 76.3198 44.0641 70.3456C49.9105 70.5006 48.0629 65.5415 48.0629 65.5415C50.2178 65.5957 50.3695 62.8372 50.3695 62.8372C52.0616 62.225 60.7047 58.2422 66.9985 59.9275C66.061 63.9103 74.0585 66.2505 76.6724 65.5415C72.2108 68.9664 76.6724 70.8066 76.6724 70.8066C73.4439 72.492 78.9791 82.7551 84.8254 81.6858C81.7486 85.5175 87.595 90.1124 95.1296 85.9746C93.4375 90.1124 100.513 87.6057 100.513 87.6057" stroke="#231815" stroke-width="2" stroke-miterlimit="10"/>
</svg>
