<svg width="137" height="246" viewBox="0 0 137 246" fill="none" xmlns="http://www.w3.org/2000/svg">
<path d="M36.813 33.3074C18.0661 34.5644 24.5012 15.223 34.1174 17.5329C37.9657 9.45053 41.5645 8.29786 45.1541 10.222C49.8964 0.601218 64.904 -0.937203 67.5951 7.52637C72.2149 3.29232 81.4499 5.60223 81.4499 9.83629C86.0697 9.06481 94.1476 17.1472 87.2224 20.6098C80.2927 24.0723 36.813 33.3074 36.813 33.3074Z" fill="#30B72C" stroke="#231815" stroke-width="3" stroke-miterlimit="10"/>
<path d="M28.6037 34.56C30.3606 34.56 31.7849 33.1357 31.7849 31.3787C31.7849 29.6218 30.3606 28.1975 28.6037 28.1975C26.8468 28.1975 25.4225 29.6218 25.4225 31.3787C25.4225 33.1357 26.8468 34.56 28.6037 34.56Z" fill="#D33333" stroke="#231815" stroke-width="3" stroke-miterlimit="10"/>
<path d="M15.8561 64.4071C2.38699 59.7873 6.2353 45.5512 10.8551 45.5512C10.8551 40.9314 13.9319 39.393 15.8561 41.3172C15.4704 35.9304 22.0143 37.0831 22.0143 37.0831C21.2428 33.2348 29.3252 30.1579 31.2494 32.849C33.945 24.3855 42.0229 16.6888 49.7195 21.3041C53.9535 7.44922 73.0635 8.35686 77.0389 15.5316C85.5025 12.836 90.8938 17.4558 91.275 23.9952C101.282 19.3754 110.671 21.6808 109.632 29.5725C116.289 32.0776 117.056 44.0037 116.289 46.6994C125.524 45.9279 135.531 60.9354 125.138 73.633C114.746 86.3397 15.8561 64.4071 15.8561 64.4071Z" fill="#30B72C" stroke="#231815" stroke-width="3" stroke-miterlimit="10"/>
<path d="M31.3175 58.4122C33.8714 58.4122 35.9418 56.3419 35.9418 53.7879C35.9418 51.234 33.8714 49.1636 31.3175 49.1636C28.7635 49.1636 26.6931 51.234 26.6931 53.7879C26.6931 56.3419 28.7635 58.4122 31.3175 58.4122Z" fill="#D33333" stroke="#231815" stroke-width="3" stroke-miterlimit="10"/>
<path d="M78.954 29.9583C81.508 29.9583 83.5784 27.8879 83.5784 25.334C83.5784 22.78 81.508 20.7096 78.954 20.7096C76.4001 20.7096 74.3297 22.78 74.3297 25.334C74.3297 27.8879 76.4001 29.9583 78.954 29.9583Z" fill="#D33333" stroke="#231815" stroke-width="3" stroke-miterlimit="10"/>
<path d="M43.7519 17.5193C45.5088 17.5193 46.9331 16.095 46.9331 14.3381C46.9331 12.5812 45.5088 11.1569 43.7519 11.1569C41.995 11.1569 40.5707 12.5812 40.5707 14.3381C40.5707 16.095 41.995 17.5193 43.7519 17.5193Z" fill="#D33333" stroke="#231815" stroke-width="3" stroke-miterlimit="10"/>
<path d="M79.6347 10.7439C80.8528 10.7439 81.8402 9.75645 81.8402 8.53837C81.8402 7.32029 80.8528 6.33286 79.6347 6.33286C78.4166 6.33286 77.4292 7.32029 77.4292 8.53837C77.4292 9.75645 78.4166 10.7439 79.6347 10.7439Z" fill="#D33333" stroke="#231815" stroke-width="3" stroke-miterlimit="10"/>
<path d="M116.126 72.14C121.532 72.14 125.914 67.7575 125.914 62.3513C125.914 56.9451 121.532 52.5626 116.126 52.5626C110.72 52.5626 106.337 56.9451 106.337 62.3513C106.337 67.7575 110.72 72.14 116.126 72.14Z" fill="#D33333" stroke="#231815" stroke-width="3" stroke-miterlimit="10"/>
<path d="M23.5483 116.355C5.07817 112.507 2.76826 98.8105 10.4649 95.2708C8.54074 91.3453 8.54073 84.6607 11.6176 82.2282C1.22983 81.3388 0.844107 76.3332 3.15401 73.6421C5.07816 69.4081 7.64672 64.3844 11.0548 65.8184C14.286 60.4362 21.6423 55.5896 33.8453 56.6651C33.8453 52.3584 38.8689 45.3606 45.1497 46.4362C44.4327 43.3866 47.8408 40.337 49.6379 41.231C48.9209 36.3843 56.8172 31.5421 63.2749 36.9243C68.6571 34.9502 76.3764 39.2569 77.992 44.0128C81.4001 38.8984 92.5276 39.6154 93.7846 44.0128C103.655 42.488 111.846 42.1567 113.167 59.7147C122.679 60.7902 124.812 66.0817 126.618 71.6045C131.292 70.4836 131.115 75.4574 131.115 75.4574C134.523 76.0473 139.37 91.8354 127.167 92.017C122.502 94.5311 125.011 96.6821 125.193 97.2222C133.089 99.3778 129.323 113.373 121.063 112.116C127.162 119.473 119.806 132.756 104.735 129.166C89.6595 125.576 23.5483 116.355 23.5483 116.355Z" fill="#30B72C" stroke="#231815" stroke-width="3" stroke-miterlimit="10"/>
<path d="M48.1447 61.8975L45.5217 98.688H82.226L75.977 67.2298L48.1447 61.8975Z" fill="black"/>
<path d="M44.292 166.542C35.2884 180.342 20.5077 198.771 30.0831 207.498C39.6631 216.225 55.2515 172.387 55.2515 172.387" fill="white"/>
<path d="M44.292 166.542C35.2884 180.342 20.5077 198.771 30.0831 207.498C39.6631 216.225 55.2515 172.387 55.2515 172.387" stroke="#231815" stroke-width="3" stroke-miterlimit="10"/>
<path d="M64.6636 225.578C64.6636 225.578 65.6529 243.74 61.5686 243.803C57.4843 243.871 43.9925 245.033 42.0729 242.764C40.1533 240.495 46.4975 234.573 46.4975 234.573L39.4135 217.99C39.4135 217.99 33.219 209.677 33.9497 195.912C34.6213 183.287 50.3776 171.066 49.1206 164.059L86.8777 160.356C86.3966 177.07 86.6099 237.604 83.5421 241.525C80.4744 245.446 66.7829 244.615 65.1946 243.712C63.6062 242.809 67.2549 235.657 67.2549 235.657L63.6516 220.768L58.3284 220.486" fill="white"/>
<path d="M64.6636 225.578C64.6636 225.578 65.6529 243.74 61.5686 243.803C57.4843 243.871 43.9925 245.033 42.0729 242.764C40.1533 240.495 46.4975 234.573 46.4975 234.573L39.4135 217.99C39.4135 217.99 33.219 209.677 33.9497 195.912C34.6213 183.287 50.3776 171.066 49.1206 164.059L86.8777 160.356C86.3966 177.07 86.6099 237.604 83.5421 241.525C80.4744 245.446 66.7829 244.615 65.1946 243.712C63.6062 242.809 67.2549 235.657 67.2549 235.657L63.6516 220.768L58.3284 220.486" stroke="#231815" stroke-width="3" stroke-miterlimit="10" stroke-linecap="round"/>
<path d="M85.2393 166.841C89.3826 175.641 110.14 198.204 99.7114 205.57C89.2828 212.93 80.5061 199.284 77.5745 183.723" fill="white"/>
<path d="M85.2393 166.841C89.3826 175.641 110.14 198.204 99.7114 205.57C89.2828 212.93 80.5061 199.284 77.5745 183.723" stroke="#231815" stroke-width="3" stroke-miterlimit="10" stroke-linecap="round"/>
<path d="M19.6818 122.513C18.8831 139.209 3.89372 151.017 24.4514 168.756C45.009 186.496 82.7888 180.279 103.646 156.794C119.593 138.841 115.844 82.1465 69.4694 78.9471C23.1036 75.7478 20.4624 106.212 19.6818 122.513Z" fill="white" stroke="#231815" stroke-width="3" stroke-miterlimit="10"/>
<path d="M32.4021 145.39C31.8893 147.332 32.3749 151.489 39.2955 147.414C45.481 150.717 48.2084 147.995 47.4142 145.998" fill="white"/>
<path d="M32.4021 145.39C31.8893 147.332 32.3749 151.489 39.2955 147.414C45.481 150.717 48.2084 147.995 47.4142 145.998" stroke="#231815" stroke-width="3" stroke-miterlimit="10" stroke-linecap="round"/>
<path d="M27.6688 135.097C29.6839 135.097 31.3174 134.37 31.3174 133.473C31.3174 132.575 29.6839 131.848 27.6688 131.848C25.6537 131.848 24.0201 132.575 24.0201 133.473C24.0201 134.37 25.6537 135.097 27.6688 135.097Z" fill="#FFAEE0"/>
<path d="M54.3529 134.834C56.3679 134.834 58.0015 134.107 58.0015 133.209C58.0015 132.312 56.3679 131.585 54.3529 131.585C52.3378 131.585 50.7042 132.312 50.7042 133.209C50.7042 134.107 52.3378 134.834 54.3529 134.834Z" fill="#FFAEE0"/>
<path d="M30.4098 133.019C31.4073 133.019 32.216 132.21 32.216 131.213C32.216 130.215 31.4073 129.406 30.4098 129.406C29.4123 129.406 28.6036 130.215 28.6036 131.213C28.6036 132.21 29.4123 133.019 30.4098 133.019Z" fill="#231815"/>
<path d="M51.6347 132.556C52.6322 132.556 53.4408 131.747 53.4408 130.75C53.4408 129.752 52.6322 128.944 51.6347 128.944C50.6371 128.944 49.8285 129.752 49.8285 130.75C49.8285 131.747 50.6371 132.556 51.6347 132.556Z" fill="#231815"/>
<path d="M23.2623 93.8141C24.1609 95.6066 28.826 94.3541 28.826 92.38C40.489 97.0452 42.6446 90.2244 41.746 83.2267C48.5668 83.4082 46.4112 77.5994 46.4112 77.5994C48.9253 77.663 49.1023 74.4318 49.1023 74.4318C51.0764 73.7148 61.1601 69.0496 68.5028 71.0237C67.4091 75.6889 76.7394 78.4299 79.789 77.5994C74.5838 81.6111 79.789 83.7667 79.789 83.7667C76.0224 85.7408 82.4801 97.7622 89.3009 96.5097C85.7113 100.998 92.532 106.38 101.322 101.533C99.3483 106.38 107.603 103.444 107.603 103.444L117.859 70.5472L33.8497 59.397L23.2623 93.8141Z" fill="#30B72C"/>
<path d="M23.2623 93.814C24.1609 95.6066 28.826 94.3541 28.826 92.38C40.489 97.0452 42.6446 90.2244 41.746 83.2266C48.5668 83.4081 46.4112 77.5994 46.4112 77.5994C48.9253 77.6629 49.1023 74.4318 49.1023 74.4318C51.0764 73.7147 61.1601 69.0495 68.5028 71.0236C67.4091 75.6888 76.7394 78.4298 79.789 77.5994C74.5838 81.6111 79.789 83.7667 79.789 83.7667C76.0224 85.7407 82.4801 97.7622 89.3009 96.5097C85.7113 100.998 92.532 106.38 101.322 101.533C99.3483 106.38 107.603 103.444 107.603 103.444" stroke="#231815" stroke-width="3" stroke-miterlimit="10"/>
<path d="M13.6642 98.8468C18.7871 98.8468 22.9401 94.6939 22.9401 89.5709C22.9401 84.448 18.7871 80.295 13.6642 80.295C8.54127 80.295 4.38831 84.448 4.38831 89.5709C4.38831 94.6939 8.54127 98.8468 13.6642 98.8468Z" fill="#D33333" stroke="#231815" stroke-width="3" stroke-miterlimit="10"/>
<path d="M110.049 102.305C114.157 102.305 117.487 98.9748 117.487 94.8669C117.487 90.7591 114.157 87.429 110.049 87.429C105.941 87.429 102.611 90.7591 102.611 94.8669C102.611 98.9748 105.941 102.305 110.049 102.305Z" fill="#D33333" stroke="#231815" stroke-width="3" stroke-miterlimit="10"/>
<path d="M75.2238 58.5166C80.6299 58.5166 85.0125 54.134 85.0125 48.7279C85.0125 43.3217 80.6299 38.9392 75.2238 38.9392C69.8176 38.9392 65.4351 43.3217 65.4351 48.7279C65.4351 54.134 69.8176 58.5166 75.2238 58.5166Z" fill="#D33333" stroke="#231815" stroke-width="3" stroke-miterlimit="10"/>
</svg>
