<svg width="174" height="177" viewBox="0 0 174 177" fill="none" xmlns="http://www.w3.org/2000/svg">
<path d="M12.3882 77.5738C11.0101 106.381 -14.8534 126.756 20.6178 157.365C56.0891 187.973 121.276 177.246 157.265 136.724C184.78 105.747 178.312 7.92319 98.2945 2.40282C18.2766 -3.11754 13.735 49.4473 12.3882 77.5738Z" fill="white" stroke="#231815" stroke-width="3" stroke-miterlimit="10"/>
<path d="M45.9723 106.875C45.2206 110.257 46.3482 117.391 57.9918 109.882C68.8838 115.144 73.3941 110.257 71.8906 106.875" stroke="#231815" stroke-width="3" stroke-miterlimit="10"/>
<path d="M39.4857 96.4909C42.9352 96.0539 45.5738 94.4545 45.3792 92.9185C45.1846 91.3825 42.2305 90.4917 38.781 90.9287C35.3315 91.3658 32.6929 92.9652 32.8875 94.5012C33.0821 96.0372 36.0362 96.928 39.4857 96.4909Z" fill="#FFAEE0"/>
<path d="M87.8433 90.0865C87.9557 88.5424 85.2356 87.086 81.7677 86.8335C78.2998 86.5811 75.3973 87.6283 75.2849 89.1724C75.1725 90.7166 77.8927 92.173 81.3607 92.4254C84.8286 92.6779 87.7309 91.6307 87.8433 90.0865Z" fill="#FFAEE0"/>
<path d="M47.8045 81.8256C49.7073 83.7283 42.9654 86.0853 41.415 88.2151C39.8646 90.345 36.7716 90.7287 36.7716 88.2151C36.7716 85.7016 45.2832 79.312 47.8045 81.8256Z" fill="#231815"/>
<path d="M68.7037 79.6489C66.9967 81.7239 73.9265 83.423 75.6727 85.3963C77.4188 87.3695 80.5353 87.4556 80.3004 84.95C80.0576 82.4443 70.9666 76.9004 68.7037 79.6489Z" fill="#231815"/>
</svg>
